<svg width="44" height="44" viewBox="0 0 44 44" fill="none" xmlns="http://www.w3.org/2000/svg">
<path d="M15.6131 19.1613V16.3226C15.6131 14.476 14.5983 12.865 13.0994 12.0085C14.6437 11.7955 16.034 10.9383 16.9132 9.61897C17.0587 9.4011 17.0722 9.12148 16.9487 8.89084C16.8252 8.66019 16.5847 8.51613 16.3228 8.51613C15.149 8.51613 14.1938 7.5609 14.1938 6.3871V5.67742C14.1938 2.54703 11.6467 0 8.51634 0C5.38596 0 2.83892 2.54703 2.83892 5.67742V6.3871C2.83892 7.5609 1.8837 8.51613 0.709892 8.51613C0.448021 8.51613 0.20744 8.66019 0.0839563 8.89084C-0.0395276 9.12148 -0.0260437 9.40181 0.11944 9.61897C0.99873 10.9375 2.38899 11.7948 3.93325 12.0085C2.43441 12.865 1.41957 14.476 1.41957 16.3226V19.1613C1.41957 19.5537 1.7375 19.871 2.12925 19.871H14.9034C15.2952 19.871 15.6131 19.5537 15.6131 19.1613ZM11.3551 8.51613C11.3551 10.0817 10.0819 11.3548 8.51634 11.3548C6.95079 11.3548 5.67763 10.0817 5.67763 8.51613V7.09678C6.83725 7.09678 7.86841 6.53755 8.51634 5.67529C9.16428 6.53755 10.1954 7.09678 11.3551 7.09678V8.51613ZM6.38731 12.7742H8.51634H10.6454L9.85834 13.8231L9.01738 12.9821C8.8797 12.8437 8.69802 12.7742 8.51634 12.7742C8.33467 12.7742 8.15299 12.8437 8.0146 12.9821L7.17363 13.8231L6.38731 12.7742ZM4.25828 6.3871V5.67742C4.25828 3.3291 6.16802 1.41936 8.51634 1.41936C10.8647 1.41936 12.7744 3.3291 12.7744 5.67742V6.3871C12.7744 7.87103 13.6899 9.1449 14.9851 9.67361C14.2583 10.2939 13.3265 10.6452 12.3451 10.6452H12.1989C12.5622 10.0178 12.7744 9.29181 12.7744 8.51613V6.3871C12.7744 5.99465 12.4565 5.67742 12.0647 5.67742H11.3551C10.1812 5.67742 9.22602 4.72219 9.22602 3.54839C9.22602 3.15594 8.90808 2.83871 8.51634 2.83871C8.1246 2.83871 7.80667 3.15594 7.80667 3.54839C7.80667 4.72219 6.85144 5.67742 5.67763 5.67742H4.96796C4.57621 5.67742 4.25828 5.99465 4.25828 6.3871V8.51613C4.25828 9.29181 4.47047 10.0178 4.83454 10.6452H4.68763C3.70544 10.6452 2.77434 10.2939 2.04692 9.67361C3.34279 9.1449 4.25828 7.87103 4.25828 6.3871ZM14.1938 18.4516H12.7744V15.6129H11.3551V18.4516H5.67763V15.6129H4.25828V18.4516H2.83892V16.3226C2.83892 14.9082 3.67634 13.6946 4.87641 13.1248L6.52925 15.329C6.65273 15.4937 6.8415 15.5966 7.0466 15.6108C7.2517 15.6292 7.45325 15.5505 7.59873 15.405L8.51634 14.4874L9.43396 15.405C9.56738 15.5391 9.74834 15.6129 9.9357 15.6129C9.95202 15.6129 9.96905 15.6122 9.98608 15.6108C10.1912 15.5959 10.38 15.4937 10.5034 15.329L12.1563 13.1248C13.3563 13.6946 14.1938 14.9082 14.1938 16.3226V18.4516Z" fill="#214E41"/>
<path d="M39.9836 35.5775C40.3924 35.1482 40.7111 34.6344 40.9133 34.0645H41.8714C43.0452 34.0645 44.0004 33.1093 44.0004 31.9355C44.0004 31.0115 43.405 30.2308 42.5811 29.937V27.6774C42.5811 25.7208 40.9893 24.129 39.0327 24.129H37.6133V19.1613C37.6133 18.7688 37.2954 18.4516 36.9036 18.4516H28.3875C28.1994 18.4516 28.0185 18.5261 27.8858 18.6595L20.789 25.7563C20.6556 25.889 20.5811 26.0693 20.5811 26.258V37.6129C20.5811 38.0053 20.899 38.3226 21.2907 38.3226H30.293C29.985 38.9691 29.8069 39.6894 29.8069 40.4516V43.2903C29.8069 43.6827 30.1248 44 30.5165 44H43.2907C43.6825 44 44.0004 43.6827 44.0004 43.2903V40.4516C44.0004 38.038 42.2688 36.0225 39.9836 35.5775ZM32.6456 32.6451H31.9359C31.5449 32.6451 31.2262 32.3272 31.2262 31.9355C31.2262 31.5437 31.5449 31.2258 31.9359 31.2258H32.6456V32.6451ZM34.0649 30.514C34.4183 30.2478 34.7207 29.9186 34.9542 29.541C36.0449 30.6041 37.8887 31.2258 39.0327 31.2258H39.7423V32.6451C39.7423 34.2107 38.4692 35.4838 36.9036 35.4838C35.3381 35.4838 34.0649 34.2107 34.0649 32.6451V30.514ZM34.7746 36.9032H36.9036H39.0327L38.2456 37.9521L37.4047 37.1111C37.267 36.9727 37.0853 36.9032 36.9036 36.9032C36.722 36.9032 36.5403 36.9727 36.4019 37.1111L35.5609 37.9521L34.7746 36.9032ZM41.8714 32.6451H41.1617V31.2258H41.8714C42.2624 31.2258 42.5811 31.5437 42.5811 31.9355C42.5811 32.3272 42.2624 32.6451 41.8714 32.6451ZM41.1617 27.6774V29.8064H40.452H39.0327C37.6318 29.8064 35.4843 28.6646 35.4843 27.6774C35.4843 27.2849 35.1663 26.9677 34.7746 26.9677C34.3829 26.9677 34.0649 27.2849 34.0649 27.6774C34.0649 28.6028 33.4716 29.392 32.6456 29.6851V27.6774C32.6456 26.5036 33.6008 25.5484 34.7746 25.5484H39.0327C40.2065 25.5484 41.1617 26.5036 41.1617 27.6774ZM27.6778 20.8744V25.5484H23.0039L27.6778 20.8744ZM22.0004 26.9677H28.3875C28.7792 26.9677 29.0972 26.6505 29.0972 26.258V19.8709H36.194V24.129H34.7746C32.818 24.129 31.2262 25.7208 31.2262 27.6774V29.937C30.4023 30.2308 29.8069 31.0115 29.8069 31.9355C29.8069 33.1093 30.7621 34.0645 31.9359 34.0645H32.894C33.0962 34.6344 33.4149 35.1482 33.8236 35.5775C32.8535 35.7663 31.9849 36.2382 31.3043 36.9032H22.0004V26.9677ZM42.5811 42.5806H41.1617V39.7419H39.7423V42.5806H34.0649V39.7419H32.6456V42.5806H31.2262V40.4516C31.2262 39.0372 32.0636 37.8236 33.2637 37.2538L34.9165 39.458C35.04 39.6227 35.2288 39.7256 35.4339 39.7398C35.639 39.7561 35.8405 39.6795 35.986 39.534L36.9036 38.6164L37.8212 39.534C37.9547 39.6681 38.1356 39.7419 38.323 39.7419C38.3393 39.7419 38.3563 39.7412 38.3734 39.7398C38.5785 39.7249 38.7672 39.6227 38.8907 39.458L40.5436 37.2538C41.7436 37.8236 42.5811 39.0372 42.5811 40.4516V42.5806Z" fill="#214E41"/>
<path d="M22.71 27.6774H24.1293V29.0968H22.71V27.6774Z" fill="#214E41"/>
<path d="M24.8391 27.6774H29.0972V29.0968H24.8391V27.6774Z" fill="#214E41"/>
<path d="M22.71 29.8064H24.1293V31.2258H22.71V29.8064Z" fill="#214E41"/>
<path d="M24.8391 29.8064H29.0972V31.2258H24.8391V29.8064Z" fill="#214E41"/>
<path d="M22.71 31.9355H24.1293V33.3549H22.71V31.9355Z" fill="#214E41"/>
<path d="M24.8391 31.9355H29.0972V33.3549H24.8391V31.9355Z" fill="#214E41"/>
<path d="M22.0005 17.7419C22.1821 17.7419 22.3638 17.6724 22.5022 17.534L23.9216 16.1146C24.055 15.9819 24.1295 15.8017 24.1295 15.6129V9.45219C25.8462 8.63748 26.9682 6.89452 26.9682 4.96774C26.9682 2.2291 24.7398 0 22.0005 0C19.2611 0 17.0327 2.2291 17.0327 4.96774C17.0327 6.89452 18.1547 8.63748 19.8714 9.45219V11.3548C19.8714 11.5436 19.9459 11.7239 20.0794 11.8566L20.2873 12.0645L20.0794 12.2724C19.8019 12.5499 19.8019 12.9985 20.0794 13.2759L20.2873 13.4839L20.0794 13.6918C19.9459 13.8245 19.8714 14.0048 19.8714 14.1935V15.6129C19.8714 15.8017 19.9459 15.9819 20.0794 16.1146L21.4987 17.534C21.6371 17.6724 21.8188 17.7419 22.0005 17.7419ZM21.7925 12.9821L21.5846 12.7742L21.7925 12.5663C22.07 12.2888 22.07 11.8403 21.7925 11.5628L21.2908 11.061V8.97813C21.2908 8.67723 21.1013 8.40897 20.8174 8.30961C19.403 7.80858 18.4521 6.46516 18.4521 4.96774C18.4521 3.01116 20.0439 1.41935 22.0005 1.41935C23.957 1.41935 25.5488 3.01116 25.5488 4.96774C25.5488 6.46516 24.5979 7.80858 23.1835 8.30961C22.8996 8.40968 22.7101 8.67793 22.7101 8.97813V15.3191L22.0005 16.0288L21.2908 15.3191V14.4874L21.7925 13.9856C22.07 13.7081 22.07 13.2596 21.7925 12.9821Z" fill="#214E41"/>
<path d="M21.2908 2.12904H22.7101V3.54839H21.2908V2.12904Z" fill="#214E41"/>
<path d="M8.51668 23.0035L10.144 24.6308L11.1475 23.6273L8.30875 20.7886C8.03126 20.5111 7.58275 20.5111 7.30526 20.7886L4.46655 23.6273L5.47004 24.6308L7.09733 23.0035V36.1936C7.09733 36.586 7.41526 36.9032 7.807 36.9032H19.1618V35.4839H8.51668V23.0035Z" fill="#214E41"/>
<path d="M35.4842 15.3191L33.8569 13.6918L32.8535 14.6953L35.6922 17.534C35.8305 17.6724 36.0122 17.7419 36.1939 17.7419C36.3756 17.7419 36.5573 17.6724 36.6956 17.534L39.5344 14.6953L38.5309 13.6918L36.9036 15.3191V7.80643C36.9036 7.41398 36.5856 7.09676 36.1939 7.09676H28.3875V8.51611H35.4842V15.3191Z" fill="#214E41"/>
</svg>
