<svg width="44" height="44" viewBox="0 0 44 44" fill="none" xmlns="http://www.w3.org/2000/svg">
<path d="M16.8666 14.6667H15.3999V16.1333H16.8666V14.6667Z" fill="#214E41"/>
<path d="M16.8666 17.6H15.3999V19.0667H16.8666V17.6Z" fill="#214E41"/>
<path d="M16.8666 20.5333H15.3999V22H16.8666V20.5333Z" fill="#214E41"/>
<path d="M16.8666 23.4667H15.3999V24.9333H16.8666V23.4667Z" fill="#214E41"/>
<path d="M19.7999 14.6667H18.3333V16.1333H19.7999V14.6667Z" fill="#214E41"/>
<path d="M19.7999 17.6H18.3333V19.0667H19.7999V17.6Z" fill="#214E41"/>
<path d="M19.7999 20.5333H18.3333V22H19.7999V20.5333Z" fill="#214E41"/>
<path d="M19.7999 23.4667H18.3333V24.9333H19.7999V23.4667Z" fill="#214E41"/>
<path d="M22.7333 14.6667H21.2666V16.1333H22.7333V14.6667Z" fill="#214E41"/>
<path d="M22.7333 17.6H21.2666V19.0667H22.7333V17.6Z" fill="#214E41"/>
<path d="M22.7333 20.5333H21.2666V22H22.7333V20.5333Z" fill="#214E41"/>
<path d="M22.7333 23.4667H21.2666V24.9333H22.7333V23.4667Z" fill="#214E41"/>
<path d="M25.6666 14.6667H24.2V16.1333H25.6666V14.6667Z" fill="#214E41"/>
<path d="M19.7999 11.7333H18.3333V13.2H19.7999V11.7333Z" fill="#214E41"/>
<path d="M22.7333 11.7333H21.2666V13.2H22.7333V11.7333Z" fill="#214E41"/>
<path d="M25.6666 11.7333H24.2V13.2H25.6666V11.7333Z" fill="#214E41"/>
<path d="M25.6666 17.6H24.2V19.0667H25.6666V17.6Z" fill="#214E41"/>
<path d="M25.6666 20.5333H24.2V22H25.6666V20.5333Z" fill="#214E41"/>
<path d="M25.6666 23.4667H24.2V24.9333H25.6666V23.4667Z" fill="#214E41"/>
<path d="M28.6 14.6667H27.1333V16.1333H28.6V14.6667Z" fill="#214E41"/>
<path d="M28.6 17.6H27.1333V19.0667H28.6V17.6Z" fill="#214E41"/>
<path d="M28.6 20.5333H27.1333V22H28.6V20.5333Z" fill="#214E41"/>
<path d="M28.6 23.4667H27.1333V24.9333H28.6V23.4667Z" fill="#214E41"/>
<path d="M43.2675 11C43.2672 11 43.2669 11 43.2667 11H32.2667V0.733334C32.2669 0.328534 31.939 0.000275173 31.5342 1.72805e-07C31.5339 1.72805e-07 31.5336 1.72805e-07 31.5333 1.72805e-07H12.4667C12.0619 -0.000274827 11.7336 0.327709 11.7333 0.732509C11.7333 0.732784 11.7333 0.733059 11.7333 0.733334V11H0.733334C0.328534 10.9997 0.000275173 11.3277 1.72805e-07 11.7325C1.72805e-07 11.7328 1.72805e-07 11.7331 1.72805e-07 11.7333V38.1333C-0.000274827 38.5381 0.327709 38.8664 0.732509 38.8667C0.732784 38.8667 0.733059 38.8667 0.733334 38.8667H2.26628C2.22374 39.1089 2.20156 39.3542 2.2 39.6V43.2667C2.19973 43.6715 2.52771 43.9997 2.93251 44C2.93278 44 2.93306 44 2.93333 44H41.0667C41.4715 44.0003 41.7997 43.6723 41.8 43.2675C41.8 43.2672 41.8 43.2669 41.8 43.2667V39.6C41.7985 39.3542 41.7764 39.1089 41.7337 38.8667H43.2667C43.6715 38.8669 43.9997 38.539 44 38.1342C44 38.1339 44 38.1336 44 38.1333V11.7333C44.0003 11.3285 43.6723 11.0003 43.2675 11ZM31.5333 31.5333C31.5333 32.3434 30.8767 33 30.0667 33C29.2566 33 28.6 32.3434 28.6 31.5333C28.6 30.7233 29.2566 30.0667 30.0667 30.0667C30.8763 30.0677 31.5323 30.7237 31.5333 31.5333ZM13.9333 30.0667C14.7434 30.0667 15.4 30.7233 15.4 31.5333C15.4 32.3434 14.7434 33 13.9333 33C13.1233 33 12.4667 32.3434 12.4667 31.5333C12.4677 30.7237 13.1237 30.0677 13.9333 30.0667ZM9.53333 42.5333H3.66667V39.6C3.66667 37.98 4.97998 36.6667 6.6 36.6667C8.22003 36.6667 9.53333 37.98 9.53333 39.6V42.5333ZM5.13333 33.7333C5.13333 32.9233 5.78994 32.2667 6.6 32.2667C7.41006 32.2667 8.06667 32.9233 8.06667 33.7333C8.06667 34.5434 7.41006 35.2 6.6 35.2C5.7904 35.199 5.13434 34.5429 5.13333 33.7333ZM9.64443 36.4306C9.36788 36.1639 9.05777 35.9343 8.7219 35.7478C9.84042 34.5759 9.79724 32.7191 8.62538 31.6005C7.45351 30.4819 5.59671 30.5252 4.4781 31.6971C3.39616 32.8305 3.39616 34.6143 4.4781 35.7477C3.77813 36.1362 3.1966 36.7072 2.79528 37.3999H1.46667V12.4667H11.7333V29.6135C10.7263 30.7434 10.7603 32.4587 11.8114 33.5478C10.7114 34.1562 9.92319 35.2049 9.64443 36.4306ZM16.8667 42.5333H11V37.4C11 35.78 12.3133 34.4667 13.9333 34.4667C15.5534 34.4667 16.8667 35.78 16.8667 37.4V42.5333ZM25.6667 42.5333H18.3333V37.4C18.3333 35.375 19.975 33.7333 22 33.7333C24.025 33.7333 25.6667 35.375 25.6667 37.4V42.5333ZM19.8 30.0667C19.8 28.8516 20.785 27.8667 22 27.8667C23.215 27.8667 24.2 28.8516 24.2 30.0667C24.2 31.2817 23.215 32.2667 22 32.2667C20.7855 32.2654 19.8013 31.2812 19.8 30.0667ZM26.4662 34.8787C25.9751 34.013 25.2445 33.3076 24.3622 32.8474C25.9111 31.5428 26.1091 29.2296 24.8045 27.6807C23.4999 26.1318 21.1867 25.9338 19.6378 27.2383C18.089 28.5429 17.891 30.8561 19.1955 32.405C19.33 32.5648 19.478 32.7127 19.6378 32.8474C18.7555 33.3076 18.0249 34.013 17.5338 34.8787C17.1483 34.3287 16.6426 33.8736 16.0552 33.5478C17.1795 32.3977 17.1586 30.5538 16.0084 29.4295C15.2678 28.7055 14.1985 28.4294 13.2 28.7041V1.46667H30.8V28.7041C30.561 28.6382 30.3145 28.6032 30.0667 28.6C28.451 28.5957 27.1376 29.902 27.1333 31.5178C27.1313 32.2739 27.4222 33.0015 27.9448 33.5478C27.3574 33.8736 26.8517 34.3287 26.4662 34.8787ZM33 39.6V42.5333H27.1333V37.4C27.1333 35.78 28.4466 34.4667 30.0667 34.4667C31.6867 34.4667 33 35.78 33 37.4V39.6ZM40.3333 42.5333H34.4667V39.6C34.4667 37.98 35.78 36.6667 37.4 36.6667C39.02 36.6667 40.3333 37.98 40.3333 39.6V42.5333ZM35.9333 33.7333C35.9333 32.9233 36.5899 32.2667 37.4 32.2667C38.2101 32.2667 38.8667 32.9233 38.8667 33.7333C38.8667 34.5434 38.2101 35.2 37.4 35.2C36.5904 35.199 35.9343 34.5429 35.9333 33.7333ZM42.5333 37.4H41.2047C40.8034 36.7073 40.2219 36.1363 39.5219 35.7478C40.6404 34.5759 40.5972 32.7191 39.4254 31.6005C38.2535 30.482 36.3967 30.5252 35.2781 31.6971C34.1962 32.8305 34.1962 34.6143 35.2781 35.7477C34.9422 35.9342 34.632 36.1638 34.3556 36.4305C34.0769 35.2048 33.2886 34.1561 32.1886 33.5477C33.2397 32.4586 33.2738 30.7433 32.2668 29.6134V12.4667H42.5334V37.4H42.5333Z" fill="#214E41"/>
<path d="M35.9332 16.8667H34.4666V28.6H35.9332V16.8667Z" fill="#214E41"/>
<path d="M40.3334 16.8667H38.8667V28.6H40.3334V16.8667Z" fill="#214E41"/>
<path d="M5.13341 16.8667H3.66675V28.6H5.13341V16.8667Z" fill="#214E41"/>
<path d="M9.53332 16.8667H8.06665V28.6H9.53332V16.8667Z" fill="#214E41"/>
<path d="M26.4009 2.93332C26.4006 2.93332 26.4003 2.93332 26.4 2.93332H17.6C17.1952 2.93304 16.867 3.26103 16.8667 3.66583C16.8667 3.6661 16.8667 3.66638 16.8667 3.66665V9.53332C16.8664 9.93812 17.1944 10.2664 17.5992 10.2667C17.5995 10.2667 17.5998 10.2667 17.6 10.2667H26.4C26.8048 10.2669 27.1331 9.93894 27.1334 9.53414C27.1334 9.53387 27.1334 9.53359 27.1334 9.53332V3.66665C27.1336 3.26185 26.8057 2.93359 26.4009 2.93332ZM25.6667 8.79999H18.3334V4.39999H25.6667V8.79999Z" fill="#214E41"/>
</svg>
