<svg width="42" height="42" viewBox="0 0 42 42" fill="none" xmlns="http://www.w3.org/2000/svg">
<path d="M17.7188 8.79309V8.69006C17.7188 7.56591 17.281 6.50934 16.4857 5.71397C15.7638 4.99144 14.803 4.59375 13.7812 4.59375C12.7969 4.59375 11.8689 4.96322 11.1562 5.63653C10.4436 4.96322 9.51562 4.59375 8.53125 4.59375C7.50947 4.59375 6.54872 4.99144 5.82684 5.71397C5.03147 6.50934 4.59375 7.56591 4.59375 8.69006V8.79309C4.59375 10.0649 5.13909 11.279 6.08934 12.1236L11.1562 16.6281L16.2225 12.1242C17.1734 11.2796 17.7188 10.0656 17.7188 8.79309ZM11.1562 14.8719L6.9615 11.1431C6.29081 10.5472 5.90625 9.69084 5.90625 8.79309V8.69006C5.90625 7.91634 6.20747 7.18922 6.75478 6.64191C7.22925 6.16744 7.86056 5.90625 8.53125 5.90625C9.20194 5.90625 9.83325 6.16744 10.3077 6.64191L11.1562 7.49044L12.0048 6.64191C12.9537 5.69363 14.6088 5.69363 15.5577 6.64191C16.105 7.18922 16.4062 7.91634 16.4062 8.69006V8.79309C16.4062 9.69019 16.0217 10.5472 15.351 11.1431L11.1562 14.8719Z" fill="#214E41"/>
<path d="M39.375 5.90625H21.6562V2.625C21.6562 1.53956 20.7729 0.65625 19.6875 0.65625H2.625C1.53956 0.65625 0.65625 1.53956 0.65625 2.625V17.0625C0.65625 18.1479 1.53956 19.0312 2.625 19.0312H8.22412L9.31809 20.3438H3.9375C2.85206 20.3438 1.96875 21.2271 1.96875 22.3125V35.4375C1.96875 36.5229 2.85206 37.4062 3.9375 37.4062H10.8491L13.6657 40.7859C13.9611 41.1403 14.3948 41.3438 14.8562 41.3438C15.7106 41.3438 16.4062 40.6481 16.4062 39.7937V37.4062H23.625C24.7104 37.4062 25.5938 36.5229 25.5938 35.4375V24.2812H26.9062V26.6687C26.9062 27.5231 27.6019 28.2188 28.4563 28.2188C28.9177 28.2188 29.3514 28.0153 29.6467 27.6609L32.4634 24.2812H39.375C40.4604 24.2812 41.3438 23.3979 41.3438 22.3125V7.875C41.3438 6.78956 40.4604 5.90625 39.375 5.90625ZM2.625 17.7188C2.26341 17.7188 1.96875 17.4247 1.96875 17.0625V2.625C1.96875 2.26275 2.26341 1.96875 2.625 1.96875H19.6875C20.0491 1.96875 20.3438 2.26275 20.3438 2.625V17.0625C20.3438 17.4247 20.0491 17.7188 19.6875 17.7188H12.4688V21.4187C12.4688 21.6215 12.1787 21.7265 12.0487 21.5703L8.83838 17.7188H2.625ZM17.7188 20.3438H13.7812V19.0312H17.7188V20.3438ZM24.2812 35.4375C24.2812 35.7998 23.9866 36.0938 23.625 36.0938H15.0938V39.7937C15.0938 39.9965 14.8037 40.1015 14.6737 39.9453L11.4634 36.0938H3.9375C3.57591 36.0938 3.28125 35.7998 3.28125 35.4375V22.3125C3.28125 21.9503 3.57591 21.6562 3.9375 21.6562H10.4114L11.0407 22.4109C11.3361 22.7653 11.7698 22.9688 12.2312 22.9688C13.0043 22.9688 13.6415 22.3978 13.757 21.6562H17.7188V22.3125C17.7188 23.3979 18.6021 24.2812 19.6875 24.2812H24.2812V35.4375ZM40.0312 22.3125C40.0312 22.6747 39.7366 22.9688 39.375 22.9688H31.8491L28.6388 26.8203C28.5088 26.9752 28.2188 26.8708 28.2188 26.6687V22.9688H19.6875C19.3259 22.9688 19.0312 22.6747 19.0312 22.3125V19.0312H19.6875C20.7729 19.0312 21.6562 18.1479 21.6562 17.0625V7.21875H39.375C39.7366 7.21875 40.0312 7.51275 40.0312 7.875V22.3125Z" fill="#214E41"/>
<path d="M16.4062 28.2188C16.4062 28.6079 16.4968 28.9741 16.6491 29.3062C16.3662 29.0555 16.0512 28.8415 15.7106 28.6716C16.1385 28.2043 16.4062 27.5881 16.4062 26.9063C16.4062 25.4586 15.2289 24.2812 13.7812 24.2812C12.3336 24.2812 11.1562 25.4586 11.1562 26.9063C11.1562 27.5881 11.424 28.2043 11.8519 28.6716C11.5113 28.8415 11.1963 29.0555 10.9134 29.3062C11.0657 28.9741 11.1562 28.6079 11.1562 28.2188C11.1562 26.7711 9.97894 25.5938 8.53125 25.5938C7.08356 25.5938 5.90625 26.7711 5.90625 28.2188C5.90625 28.9183 6.18516 29.5503 6.63272 30.0215C5.41866 30.6928 4.59375 31.9856 4.59375 33.4688V34.7813H5.90625V33.4688C5.90625 32.0211 7.08356 30.8438 8.53125 30.8438C8.94469 30.8438 9.34106 30.9422 9.702 31.1227C9.59831 31.4226 9.52219 31.7363 9.48544 32.0637L9.19144 34.7084L10.4954 34.8534L10.7894 32.2088C10.9594 30.6823 12.2456 29.5313 13.7812 29.5313C15.3169 29.5313 16.6031 30.6823 16.7731 32.2088L17.0671 34.8534L18.3711 34.7084L18.0771 32.0637C18.041 31.7363 17.9642 31.4226 17.8605 31.1227C18.2214 30.9422 18.6178 30.8438 19.0312 30.8438C20.4789 30.8438 21.6562 32.0211 21.6562 33.4688V34.7813H22.9688V33.4688C22.9688 31.9856 22.1438 30.6928 20.9298 30.0215C21.3773 29.5503 21.6562 28.9183 21.6562 28.2188C21.6562 26.7711 20.4789 25.5938 19.0312 25.5938C17.5836 25.5938 16.4062 26.7711 16.4062 28.2188ZM7.21875 28.2188C7.21875 27.4949 7.80741 26.9063 8.53125 26.9063C9.25509 26.9063 9.84375 27.4949 9.84375 28.2188C9.84375 28.9426 9.25509 29.5313 8.53125 29.5313C7.80741 29.5313 7.21875 28.9426 7.21875 28.2188ZM12.4688 26.9063C12.4688 26.1824 13.0574 25.5938 13.7812 25.5938C14.5051 25.5938 15.0938 26.1824 15.0938 26.9063C15.0938 27.6301 14.5051 28.2188 13.7812 28.2188C13.0574 28.2188 12.4688 27.6301 12.4688 26.9063ZM20.3438 28.2188C20.3438 28.9426 19.7551 29.5313 19.0312 29.5313C18.3074 29.5313 17.7188 28.9426 17.7188 28.2188C17.7188 27.4949 18.3074 26.9063 19.0312 26.9063C19.7551 26.9063 20.3438 27.4949 20.3438 28.2188Z" fill="#214E41"/>
<path d="M34.7812 12.4688H33.5869L33.745 11.5211C33.8691 10.775 33.6604 10.0163 33.1715 9.4395C32.6826 8.862 31.9686 8.53125 31.2126 8.53125C30.3076 8.53125 29.5221 9.14484 29.3022 10.0223C29.0647 10.9738 28.5725 11.8427 27.8788 12.537L27.6852 12.7306C27.4667 12.5685 27.1989 12.4688 26.9062 12.4688H24.2812C23.5574 12.4688 22.9688 13.0574 22.9688 13.7812V20.3438C22.9688 21.0676 23.5574 21.6562 24.2812 21.6562H26.9062C27.4792 21.6562 27.9615 21.2855 28.1407 20.7729C29.3048 21.3504 30.5839 21.6562 31.897 21.6562H34.7812C36.2289 21.6562 37.4062 20.4789 37.4062 19.0312V15.0938C37.4062 13.6461 36.2289 12.4688 34.7812 12.4688ZM24.2812 20.3438V13.7812H26.9062L26.9069 20.3438H24.2812ZM36.0938 19.0312C36.0938 19.7551 35.5051 20.3438 34.7812 20.3438H31.897C30.5944 20.3438 29.3311 19.9887 28.2188 19.3213V14.0529L28.8067 13.4649C29.6684 12.6033 30.2807 11.5224 30.576 10.3405C30.6488 10.0485 30.9107 9.84375 31.2126 9.84375C31.582 9.84375 31.9312 10.0052 32.17 10.288C32.4089 10.5702 32.5113 10.941 32.4503 11.3059L32.0381 13.7812H34.7812C35.5051 13.7812 36.0938 14.3699 36.0938 15.0938V19.0312Z" fill="#214E41"/>
</svg>
