<svg width="40" height="40" viewBox="0 0 40 40" fill="none" xmlns="http://www.w3.org/2000/svg">
<path d="M4.51611 0V40H35.4839V0H4.51611ZM34.1935 1.29032V33.5484H32.9032V2.58065H7.09676V36.129H5.80644V1.29032H34.1935ZM31.6129 33.5484H25.5393L22.9587 36.129H8.38708V3.87097H31.6129V33.5484ZM5.80644 38.7097V37.4194H23.4929L26.0736 34.8387H34.1935V38.7097H5.80644Z" fill="#214E41"/>
<path d="M30.3227 22.1535C30.3227 20.5941 29.2084 19.26 27.6736 18.98L23.2259 18.171V17.1528C23.482 16.904 23.7047 16.6148 23.871 16.2812L24.8208 14.3819C25.0432 13.9368 25.1614 13.4375 25.1614 12.9394V9.8302C25.1614 8.73172 24.5704 7.74067 23.6124 7.21679L22.949 6.55367C22.0518 5.65555 20.8588 5.16129 19.5896 5.16129C16.9699 5.16129 14.8388 7.29303 14.8388 9.9121V12.9388C14.8388 13.4369 14.9569 13.9362 15.1793 14.3813L16.1291 16.2812C16.2954 16.6142 16.5182 16.9033 16.7743 17.1528V18.171L12.3259 18.98C10.7917 19.26 9.67749 20.5941 9.67749 22.1535V32.2581H30.3227V22.1535ZM20.5996 27.5208L20.0001 28.12L19.4006 27.5208L19.9015 24.5161H20.0987L20.5996 27.5208ZM17.2581 19.3948L18.9473 20.6612L17.2304 22.0347L16.8039 19.4774L17.2581 19.3948ZM20.3 23.2258H19.7002L19.0415 22.2382L20.0001 21.4715L20.958 22.2382L20.3 23.2258ZM21.0535 20.6612L22.7426 19.3948L23.1969 19.4774L22.7704 22.0347L21.0535 20.6612ZM19.5896 6.45161C20.5142 6.45161 21.3833 6.81168 22.037 7.46503L22.8441 8.27211L22.9376 8.31873C23.5129 8.60698 23.871 9.18567 23.871 9.82957V10.3226H21.8253C20.8207 10.3226 19.8763 9.93164 19.1659 9.22127L18.7097 8.76512L18.2536 9.22127C17.6711 9.80311 16.9305 10.167 16.1291 10.2807V9.9121C16.1291 8.00371 17.6812 6.45161 19.5896 6.45161ZM16.3336 13.8045C16.1994 13.5374 16.1291 13.2381 16.1291 12.9394V11.5691C17.0735 11.4696 17.9647 11.1252 18.7097 10.5393C19.5956 11.2349 20.6815 11.6129 21.8253 11.6129H23.871V12.9394C23.871 13.2381 23.8008 13.538 23.6666 13.8051L22.7168 15.7044C22.3873 16.3637 21.7232 16.7742 20.9858 16.7742H19.0144C18.2763 16.7742 17.6128 16.3637 17.2833 15.7044L16.3336 13.8045ZM19.0144 18.0645H20.9858C21.3143 18.0645 21.6328 18.0122 21.9356 17.9199V18.3871L20.0001 19.8387L18.0646 18.3871V17.9199C18.3673 18.0122 18.6858 18.0645 19.0144 18.0645ZM29.0323 30.9677H26.4517V22.5806H25.1614V30.9677H14.8388V22.5806H13.5485V30.9677H10.9678V22.1535C10.9678 21.2182 11.6363 20.4174 12.5568 20.2492L15.5337 19.7083L16.3181 24.4169L18.0296 23.0478L18.6764 24.0174L18.0189 27.964L20.0001 29.9446L21.9812 27.9631L21.3238 24.0168L21.9705 23.0472L23.682 24.4163L24.4664 19.7077L27.4434 20.2482C28.3639 20.4168 29.0323 21.2182 29.0323 22.1535V30.9677Z" fill="#214E41"/>
<path d="M31.6128 36.129H32.9031V37.4194H31.6128V36.129Z" fill="#214E41"/>
<path d="M29.0322 36.129H30.3225V37.4194H29.0322V36.129Z" fill="#214E41"/>
<path d="M26.4517 36.129H27.742V37.4194H26.4517V36.129Z" fill="#214E41"/>
</svg>
