<svg width="38" height="38" viewBox="0 0 38 38" fill="none" xmlns="http://www.w3.org/2000/svg">
<path d="M35.15 38H2.85C1.2787 38 0 36.7213 0 35.15V2.85C0 1.2787 1.2787 0 2.85 0H35.15C36.7213 0 38 1.2787 38 2.85V35.15C38 36.7213 36.7213 38 35.15 38ZM2.85 1.26667C1.97727 1.26667 1.26667 1.97727 1.26667 2.85V35.15C1.26667 36.0227 1.97727 36.7333 2.85 36.7333H35.15C36.0234 36.7333 36.7333 36.0227 36.7333 35.15V2.85C36.7333 1.97727 36.0227 1.26667 35.15 1.26667H2.85Z" fill="#214E41"/>
<path d="M5.70011 6.33336H3.16678C2.81718 6.33336 2.53345 6.04962 2.53345 5.70002V3.16669C2.53345 2.81709 2.81718 2.53336 3.16678 2.53336H5.70011C6.04971 2.53336 6.33345 2.81709 6.33345 3.16669V5.70002C6.33345 6.04962 6.04971 6.33336 5.70011 6.33336ZM3.80011 5.06669H5.06678V3.80002H3.80011V5.06669Z" fill="#214E41"/>
<path d="M10.7665 6.33336H8.23319C7.88359 6.33336 7.59985 6.04962 7.59985 5.70002V3.16669C7.59985 2.81709 7.88359 2.53336 8.23319 2.53336H10.7665C11.1161 2.53336 11.3998 2.81709 11.3998 3.16669V5.70002C11.3998 6.04962 11.1161 6.33336 10.7665 6.33336ZM8.86652 5.06669H10.1332V3.80002H8.86652V5.06669Z" fill="#214E41"/>
<path d="M15.8334 6.33336H13.3001C12.9505 6.33336 12.6667 6.04962 12.6667 5.70002V3.16669C12.6667 2.81709 12.9505 2.53336 13.3001 2.53336H15.8334C16.183 2.53336 16.4667 2.81709 16.4667 3.16669V5.70002C16.4667 6.04962 16.183 6.33336 15.8334 6.33336ZM13.9334 5.06669H15.2001V3.80002H13.9334V5.06669Z" fill="#214E41"/>
<path d="M37.3667 8.86667H0.633333C0.283733 8.86667 0 8.58293 0 8.23333V2.85C0 1.2787 1.2787 0 2.85 0H35.15C36.7213 0 38 1.2787 38 2.85V8.23333C38 8.58293 37.7163 8.86667 37.3667 8.86667ZM1.26667 7.6H36.7333V2.85C36.7333 1.97727 36.0227 1.26667 35.15 1.26667H2.85C1.97727 1.26667 1.26667 1.97727 1.26667 2.85V7.6Z" fill="#214E41"/>
<path d="M17.1001 24.0667H3.16678C2.81718 24.0667 2.53345 23.7829 2.53345 23.4333V10.7667C2.53345 10.4171 2.81718 10.1333 3.16678 10.1333H17.1001C17.4497 10.1333 17.7334 10.4171 17.7334 10.7667V23.4333C17.7334 23.7829 17.4497 24.0667 17.1001 24.0667ZM3.80011 22.8H16.4668V11.4H3.80011V22.8Z" fill="#214E41"/>
<path d="M10.1334 24.0667C9.97122 24.0667 9.80909 24.0047 9.68559 23.8812L6.33336 20.5289L3.61446 23.2478C3.36683 23.4955 2.96656 23.4955 2.71893 23.2478C2.47129 23.0002 2.47129 22.5999 2.71893 22.3523L5.88559 19.1856C6.13323 18.938 6.53349 18.938 6.78112 19.1856L10.5811 22.9856C10.8288 23.2333 10.8288 23.6335 10.5811 23.8812C10.4576 24.0047 10.2955 24.0667 10.1334 24.0667Z" fill="#214E41"/>
<path d="M7.59999 17.7334C6.20285 17.7334 5.06665 16.5972 5.06665 15.2C5.06665 13.8029 6.20285 12.6667 7.59999 12.6667C8.99712 12.6667 10.1333 13.8029 10.1333 15.2C10.1333 16.5972 8.99712 17.7334 7.59999 17.7334ZM7.59999 13.9334C6.90142 13.9334 6.33332 14.5015 6.33332 15.2C6.33332 15.8986 6.90142 16.4667 7.59999 16.4667C8.29856 16.4667 8.86666 15.8986 8.86666 15.2C8.86666 14.5015 8.29856 13.9334 7.59999 13.9334Z" fill="#214E41"/>
<path d="M17.1 22.8C16.9379 22.8 16.7758 22.7379 16.6523 22.6144L12.6863 18.6485L9.19918 22.4497C8.96295 22.7081 8.56268 22.7252 8.30428 22.4884C8.04652 22.2521 8.02878 21.8512 8.26565 21.5935L12.1993 17.3052C12.3158 17.1779 12.4798 17.1038 12.6521 17.1C12.8269 17.0924 12.9916 17.1633 13.1138 17.2855L17.5472 21.7189C17.7948 21.9665 17.7948 22.3668 17.5472 22.6144C17.4243 22.7379 17.2622 22.8 17.1 22.8Z" fill="#214E41"/>
<path d="M34.8333 35.4667H20.8999C20.5503 35.4667 20.2666 35.183 20.2666 34.8334V22.1667C20.2666 21.8171 20.5503 21.5334 20.8999 21.5334H34.8333C35.1829 21.5334 35.4666 21.8171 35.4666 22.1667V34.8334C35.4666 35.183 35.1829 35.4667 34.8333 35.4667ZM21.5333 34.2H34.1999V22.8H21.5333V34.2Z" fill="#214E41"/>
<path d="M27.8668 35.4666C27.7046 35.4666 27.5425 35.4046 27.419 35.2811L24.0668 31.9288L21.3479 34.6477C21.1002 34.8954 20.7 34.8954 20.4523 34.6477C20.2047 34.4001 20.2047 33.9998 20.4523 33.7522L23.619 30.5855C23.8666 30.3379 24.2669 30.3379 24.5145 30.5855L28.3145 34.3855C28.5622 34.6332 28.5622 35.0334 28.3145 35.2811C28.191 35.4046 28.0289 35.4666 27.8668 35.4666Z" fill="#214E41"/>
<path d="M25.3334 29.1334C23.9363 29.1334 22.8 27.9972 22.8 26.6C22.8 25.2029 23.9363 24.0667 25.3334 24.0667C26.7305 24.0667 27.8667 25.2029 27.8667 26.6C27.8667 27.9972 26.7305 29.1334 25.3334 29.1334ZM25.3334 25.3334C24.6348 25.3334 24.0667 25.9015 24.0667 26.6C24.0667 27.2986 24.6348 27.8667 25.3334 27.8667C26.032 27.8667 26.6001 27.2986 26.6001 26.6C26.6001 25.9015 26.032 25.3334 25.3334 25.3334Z" fill="#214E41"/>
<path d="M34.8334 34.2C34.6713 34.2 34.5091 34.1379 34.3856 34.0144L30.4197 30.0485L26.9326 33.8497C26.6963 34.1081 26.2961 34.1252 26.0377 33.8884C25.7799 33.6521 25.7622 33.2512 25.999 32.9935L29.9327 28.7052C30.0492 28.5779 30.2132 28.5038 30.3855 28.5C30.5546 28.493 30.725 28.5633 30.8472 28.6856L35.2805 33.1189C35.5282 33.3665 35.5282 33.7668 35.2805 34.0144C35.1577 34.1379 34.9955 34.2 34.8334 34.2Z" fill="#214E41"/>
<path d="M31.0333 13.9334H20.8999C20.5503 13.9334 20.2666 13.6496 20.2666 13.3C20.2666 12.9504 20.5503 12.6667 20.8999 12.6667H31.0333C31.3829 12.6667 31.6666 12.9504 31.6666 13.3C31.6666 13.6496 31.3829 13.9334 31.0333 13.9334Z" fill="#214E41"/>
<path d="M34.8334 13.9334H33.5667C33.2171 13.9334 32.9333 13.6496 32.9333 13.3C32.9333 12.9504 33.2171 12.6667 33.5667 12.6667H34.8334C35.183 12.6667 35.4667 12.9504 35.4667 13.3C35.4667 13.6496 35.183 13.9334 34.8334 13.9334Z" fill="#214E41"/>
<path d="M31.0333 19H20.8999C20.5503 19 20.2666 18.7162 20.2666 18.3666C20.2666 18.017 20.5503 17.7333 20.8999 17.7333H31.0333C31.3829 17.7333 31.6666 18.017 31.6666 18.3666C31.6666 18.7162 31.3829 19 31.0333 19Z" fill="#214E41"/>
<path d="M34.8334 19H33.5667C33.2171 19 32.9333 18.7162 32.9333 18.3666C32.9333 18.017 33.2171 17.7333 33.5667 17.7333H34.8334C35.183 17.7333 35.4667 18.017 35.4667 18.3666C35.4667 18.7162 35.183 19 34.8334 19Z" fill="#214E41"/>
<path d="M34.8333 16.4666H24.7C24.3504 16.4666 24.0667 16.1829 24.0667 15.8333C24.0667 15.4837 24.3504 15.2 24.7 15.2H34.8333C35.1829 15.2 35.4667 15.4837 35.4667 15.8333C35.4667 16.1829 35.1829 16.4666 34.8333 16.4666Z" fill="#214E41"/>
<path d="M22.1666 16.4666H20.8999C20.5503 16.4666 20.2666 16.1829 20.2666 15.8333C20.2666 15.4837 20.5503 15.2 20.8999 15.2H22.1666C22.5162 15.2 22.7999 15.4837 22.7999 15.8333C22.7999 16.1829 22.5162 16.4666 22.1666 16.4666Z" fill="#214E41"/>
<path d="M13.3001 27.8666H3.16678C2.81718 27.8666 2.53345 27.5829 2.53345 27.2333C2.53345 26.8837 2.81718 26.6 3.16678 26.6H13.3001C13.6497 26.6 13.9334 26.8837 13.9334 27.2333C13.9334 27.5829 13.6497 27.8666 13.3001 27.8666Z" fill="#214E41"/>
<path d="M17.1 27.8666H15.8333C15.4837 27.8666 15.2 27.5829 15.2 27.2333C15.2 26.8837 15.4837 26.6 15.8333 26.6H17.1C17.4496 26.6 17.7333 26.8837 17.7333 27.2333C17.7333 27.5829 17.4496 27.8666 17.1 27.8666Z" fill="#214E41"/>
<path d="M13.3001 32.9333H3.16678C2.81718 32.9333 2.53345 32.6496 2.53345 32.3C2.53345 31.9504 2.81718 31.6666 3.16678 31.6666H13.3001C13.6497 31.6666 13.9334 31.9504 13.9334 32.3C13.9334 32.6496 13.6497 32.9333 13.3001 32.9333Z" fill="#214E41"/>
<path d="M17.1 32.9333H15.8333C15.4837 32.9333 15.2 32.6496 15.2 32.3C15.2 31.9504 15.4837 31.6666 15.8333 31.6666H17.1C17.4496 31.6666 17.7333 31.9504 17.7333 32.3C17.7333 32.6496 17.4496 32.9333 17.1 32.9333Z" fill="#214E41"/>
<path d="M17.0999 30.4H6.96659C6.61699 30.4 6.33325 30.1163 6.33325 29.7667C6.33325 29.4171 6.61699 29.1333 6.96659 29.1333H17.0999C17.4495 29.1333 17.7333 29.4171 17.7333 29.7667C17.7333 30.1163 17.4495 30.4 17.0999 30.4Z" fill="#214E41"/>
<path d="M4.43345 30.4H3.16678C2.81718 30.4 2.53345 30.1163 2.53345 29.7667C2.53345 29.4171 2.81718 29.1333 3.16678 29.1333H4.43345C4.78305 29.1333 5.06678 29.4171 5.06678 29.7667C5.06678 30.1163 4.78305 30.4 4.43345 30.4Z" fill="#214E41"/>
</svg>
