<svg width="44" height="44" viewBox="0 0 44 44" fill="none" xmlns="http://www.w3.org/2000/svg">
<g clip-path="url(#clip0)">
<path d="M30.1741 24.8083L24.2003 21.1377C24.1276 21.0929 24.0438 21.0626 23.9594 21.0493L22.0891 20.7193C21.7431 20.6582 21.4033 20.8962 21.3423 21.2422C21.2813 21.5882 21.5191 21.928 21.8651 21.989L23.63 22.3004L29.4992 25.9068C29.7858 26.0829 30.1788 25.9974 30.3689 25.7207C30.5729 25.4237 30.4808 24.9969 30.1741 24.8083Z" fill="#214E41"/>
<path d="M43.7862 25.015C43.543 24.7549 43.1351 24.7411 42.875 24.9841L40.2617 27.4265L28.2874 15.6116L43.756 1.11501C44.0157 0.871547 44.0289 0.463602 43.7855 0.203899C43.5421 -0.0558043 43.1341 -0.0690387 42.8744 0.174336L26.9167 15.1294C26.6535 15.3759 26.648 15.8053 26.9047 16.0586L27.9639 17.1035L27.6258 17.4021L20.5462 16.7924C20.437 16.7831 20.3235 16.802 20.2238 16.848L14.6144 19.4028C14.5981 19.3986 14.5817 19.3944 14.5648 19.3914L11.3382 18.822L11.5991 18.155C11.7281 17.8252 11.5669 17.4531 11.2382 17.3217L0.924278 13.1962C0.59359 13.0638 0.218559 13.2247 0.0863872 13.5553C-0.0458706 13.8858 0.114918 14.261 0.44552 14.3932L10.1653 18.2812L4.4374 32.9188L0.900043 31.666C0.564372 31.5472 0.196043 31.7228 0.0771919 32.0584C-0.0416597 32.394 0.134083 32.7624 0.469669 32.8813L4.59518 34.3424C4.919 34.4571 5.28561 34.2893 5.41065 33.9696L6.3679 31.5233L8.87616 32.9289L8.59953 33.3773C7.81569 34.6477 8.21143 36.319 9.48193 37.103C10.1538 37.5175 10.9878 37.6158 11.7386 37.3728C11.859 38.1552 12.3187 38.8533 12.9929 39.2693C13.6648 39.6838 14.4987 39.7822 15.2495 39.5391C15.37 40.3215 15.8296 41.0196 16.5038 41.4356C17.1777 41.8514 18.0074 41.9493 18.7606 41.7062C18.8813 42.4882 19.3408 43.1861 20.0148 43.6019C20.9944 44.2063 22.291 44.116 23.174 43.3759C23.3966 43.1893 23.5881 42.9667 23.7406 42.7195L24.1803 42.0069L24.5424 42.2293C25.5233 42.832 26.8196 42.7392 27.7012 41.9975C27.9234 41.8105 28.1146 41.5874 28.2666 41.34C28.5687 40.8482 28.6938 40.297 28.6608 39.7604C28.8655 39.8097 29.075 39.8361 29.2864 39.8361C30.2226 39.8361 31.1082 39.3424 31.5981 38.5451C31.8932 38.0647 32.0281 37.517 31.9939 36.9657C32.1981 37.0147 32.4071 37.041 32.6179 37.041C33.5541 37.041 34.4397 36.5473 34.9296 35.75C35.2249 35.2692 35.3597 34.7212 35.3252 34.1695C35.5317 34.2186 35.7413 34.2443 35.9499 34.2443C36.8603 34.2443 37.7506 33.786 38.2611 32.955C39.0426 31.6831 38.6437 30.0125 37.3717 29.231L36.93 28.9596L38.4115 27.4117L39.7972 28.779C40.0403 29.0187 40.4408 29.024 40.6901 28.7911L43.7556 25.9262C44.0156 25.6831 44.0293 25.2751 43.7862 25.015ZM12.1105 35.5435C11.6998 36.209 10.8244 36.4162 10.1589 36.0058C9.49336 35.5952 9.28608 34.7197 9.69661 34.0542L13.3072 28.2027C13.7101 27.5496 14.5748 27.336 15.2351 27.7261C15.9183 28.13 16.1069 29.0666 15.6967 29.7315L12.1105 35.5435ZM15.6213 37.7099C15.2108 38.3753 14.3353 38.5826 13.6698 38.1721C13.0124 37.7664 12.8013 36.879 13.2076 36.2206L16.0959 31.5393C16.4989 30.8862 17.3636 30.6726 18.0239 31.0627C18.7071 31.4666 18.8956 32.4032 18.4853 33.0681L15.6213 37.7099ZM19.1325 39.8762C18.9335 40.1985 18.6209 40.4242 18.2524 40.5115C17.8836 40.5989 17.5032 40.5373 17.1808 40.3384C16.5235 39.9327 16.3123 39.0452 16.7186 38.3869L18.885 34.8759C19.2879 34.2228 20.1527 34.0092 20.8129 34.3993C21.4961 34.8032 21.6846 35.7398 21.2745 36.4047L19.1325 39.8762ZM24.0633 39.7415L22.6434 42.0426C22.2377 42.7 21.3503 42.911 20.6918 42.5047C20.0345 42.0991 19.8234 41.2116 20.2296 40.5532L21.6738 38.2126C22.0768 37.5596 22.9416 37.3457 23.6017 37.7361C24.2849 38.1399 24.4735 39.0766 24.0633 39.7415ZM35.8061 28.269L32.6108 26.3056C32.3145 26.1235 31.9062 26.221 31.7242 26.5174C31.5421 26.8137 31.6396 27.222 31.9359 27.404L36.6966 30.3292C37.3628 30.7386 37.5718 31.6136 37.1625 32.2799C36.7531 32.9461 35.878 33.1551 35.2117 32.7458L30.1059 29.6084C29.8026 29.4219 29.4056 29.5168 29.2193 29.8201C29.033 30.1234 29.1278 30.5204 29.431 30.7067L33.3653 33.1241C34.0234 33.5286 34.2361 34.4157 33.8311 35.0748C33.4267 35.733 32.5396 35.9456 31.8804 35.5407L28.3151 33.3499C28.0117 33.1635 27.6147 33.2584 27.4284 33.5617C27.2421 33.8649 27.3369 34.262 27.6402 34.4483L30.0339 35.9191C30.692 36.3236 30.9048 37.2106 30.4998 37.8698C30.0953 38.5279 29.2082 38.7407 28.5491 38.3357C28.5491 38.3357 26.4439 37.0434 26.4243 37.034C26.1299 36.8918 25.77 36.993 25.5954 37.2772C25.4091 37.5805 25.5039 37.9776 25.8071 38.1639L26.7025 38.714C27.3687 39.1234 27.5776 39.9985 27.1683 40.6647C26.7639 41.3229 25.8767 41.5355 25.2176 41.1306L24.8577 40.9094L25.1608 40.4181C25.5483 39.7901 25.6685 39.0166 25.4906 38.2961C25.3151 37.5851 24.8774 36.9919 24.2582 36.6259C23.7751 36.3404 23.2346 36.2248 22.7083 36.2603C22.8071 35.8357 22.8077 35.3883 22.7018 34.9594C22.5263 34.2484 22.0885 33.6552 21.4694 33.2892C20.9862 33.0037 20.4458 32.888 19.9195 32.9235C20.1853 31.7815 19.6959 30.5529 18.6805 29.9525C18.1974 29.6671 17.6569 29.5514 17.1306 29.5868C17.3964 28.4449 16.9071 27.2162 15.8917 26.6158C14.6311 25.8707 12.9798 26.2788 12.2106 27.5252L9.55429 31.8304L6.84228 30.3112L10.8588 20.0466L13.0458 20.4326C12.4237 21.2051 12.2489 22.2928 12.6871 23.2554C13.1407 24.2513 14.1261 24.8405 15.1551 24.8405C15.5299 24.8405 15.9105 24.7623 16.2732 24.5971L20.0483 22.8776C20.368 22.7321 20.5134 22.3435 20.3677 22.0239C20.2221 21.7043 19.8336 21.5587 19.5139 21.7044L15.7388 23.4238C15.0273 23.7479 14.1845 23.4326 13.8604 22.721C13.5363 22.0093 13.8515 21.1667 14.5632 20.8426L20.6041 18.0913L27.79 18.7101C27.8085 18.7117 27.8269 18.7125 27.8453 18.7125C28.0017 18.7125 28.1536 18.6555 28.2719 18.5512L28.8836 18.0111L37.4933 26.5059L35.8061 28.269Z" fill="#214E41"/>
</g>
<defs>
<clipPath id="clip0">
<rect width="44" height="44" fill="white"/>
</clipPath>
</defs>
</svg>
