<svg width="40" height="40" viewBox="0 0 40 40" fill="none" xmlns="http://www.w3.org/2000/svg">
<g clip-path="url(#clip0)">
<path d="M37.981 1.48438H8.71552C7.60223 1.48438 6.69678 2.39014 6.69678 3.50342V6.5683H2.01904C0.905762 6.5683 0 7.47406 0 8.58734V34.567C0 36.7261 1.74957 38.4845 3.90594 38.5001H3.91388C3.9209 38.5004 3.92731 38.501 3.93433 38.501H24.6616C24.985 38.501 25.2475 38.2388 25.2475 37.915C25.2475 37.5916 24.985 37.3291 24.6616 37.3291H6.73309C7.43469 36.6183 7.86865 35.6424 7.86865 34.567V20.8649C7.86865 20.5414 7.6062 20.2789 7.28271 20.2789C6.95892 20.2789 6.69678 20.5414 6.69678 20.8649V34.567C6.69678 36.0849 5.4657 37.3206 3.94928 37.3288C3.9444 37.3288 3.93951 37.3282 3.93433 37.3282C2.41119 37.3279 1.17188 36.0892 1.17188 34.567V8.58734C1.17188 8.12042 1.55182 7.74017 2.01904 7.74017H6.69678V18.6774C6.69678 19.0012 6.95892 19.2633 7.28271 19.2633C7.6062 19.2633 7.86865 19.0012 7.86865 18.6774V3.50342C7.86865 3.03619 8.2486 2.65625 8.71552 2.65625H37.981C38.4482 2.65625 38.8281 3.03619 38.8281 3.50342V34.567C38.8281 36.0901 37.5888 37.3291 36.0657 37.3291H26.8491C26.5253 37.3291 26.2631 37.5916 26.2631 37.915C26.2631 38.2388 26.5253 38.501 26.8491 38.501H36.0657C38.2352 38.501 40 36.7361 40 34.567V3.50342C40 2.39014 39.0942 1.48438 37.981 1.48438V1.48438Z" fill="#214E41"/>
<path d="M12.8376 24.8642H20.8738C21.6382 24.8642 22.2602 24.2422 22.2602 23.4778V15.4416C22.2602 14.6771 21.6382 14.0552 20.8738 14.0552H12.8376C12.0731 14.0552 11.4512 14.6771 11.4512 15.4416V23.4778C11.4512 24.2422 12.0731 24.8642 12.8376 24.8642ZM12.623 15.4416C12.623 15.3232 12.7192 15.2271 12.8376 15.2271H20.8738C20.9919 15.2271 21.0883 15.3232 21.0883 15.4416V23.4778C21.0883 23.5959 20.9919 23.6923 20.8738 23.6923H12.8376C12.7192 23.6923 12.623 23.5959 12.623 23.4778V15.4416Z" fill="#214E41"/>
<path d="M24.3899 15.2271H35.2648C35.5883 15.2271 35.8508 14.9649 35.8508 14.6411C35.8508 14.3173 35.5883 14.0552 35.2648 14.0552H24.3899C24.0664 14.0552 23.804 14.3173 23.804 14.6411C23.804 14.9649 24.0664 15.2271 24.3899 15.2271Z" fill="#214E41"/>
<path d="M24.3899 20.0458H35.2648C35.5883 20.0458 35.8508 19.7833 35.8508 19.4598C35.8508 19.136 35.5883 18.8739 35.2648 18.8739H24.3899C24.0664 18.8739 23.804 19.136 23.804 19.4598C23.804 19.7833 24.0664 20.0458 24.3899 20.0458Z" fill="#214E41"/>
<path d="M24.3899 24.8642H35.2648C35.5883 24.8642 35.8508 24.6017 35.8508 24.2783C35.8508 23.9545 35.5883 23.6923 35.2648 23.6923H24.3899C24.0664 23.6923 23.804 23.9545 23.804 24.2783C23.804 24.6017 24.0664 24.8642 24.3899 24.8642Z" fill="#214E41"/>
<path d="M12.0371 29.6826H35.265C35.5884 29.6826 35.8509 29.4205 35.8509 29.0967C35.8509 28.7732 35.5884 28.5107 35.265 28.5107H12.0371C11.7136 28.5107 11.4512 28.7732 11.4512 29.0967C11.4512 29.4205 11.7136 29.6826 12.0371 29.6826Z" fill="#214E41"/>
<path d="M12.0371 34.5013H35.265C35.5884 34.5013 35.8509 34.2392 35.8509 33.9154C35.8509 33.5916 35.5884 33.3295 35.265 33.3295H12.0371C11.7136 33.3295 11.4512 33.5916 11.4512 33.9154C11.4512 34.2392 11.7136 34.5013 12.0371 34.5013Z" fill="#214E41"/>
<path d="M11.4661 11.0568V4.86542C11.4661 4.73816 11.5265 4.64111 11.6473 4.57458C11.7682 4.50775 11.9147 4.47418 12.0862 4.47418C12.3154 4.47418 12.4899 4.51569 12.6111 4.59839C12.7316 4.68109 12.8653 4.85931 13.0118 5.13245L14.8529 8.6911V4.85596C14.8529 4.7287 14.9133 4.63348 15.0342 4.5697C15.1547 4.50623 15.3012 4.47418 15.473 4.47418C15.6448 4.47418 15.791 4.50623 15.9119 4.5697C16.0327 4.63348 16.0931 4.7287 16.0931 4.85596V11.0568C16.0931 11.178 16.0309 11.2732 15.907 11.3431C15.7831 11.4133 15.6384 11.4481 15.473 11.4481C15.1358 11.4481 14.8972 11.3177 14.7574 11.0568L12.7063 7.22168V11.0568C12.7063 11.178 12.6443 11.2732 12.5204 11.3431C12.3965 11.4133 12.2516 11.4481 12.0862 11.4481C11.9147 11.4481 11.7682 11.4133 11.6476 11.3431C11.5265 11.2732 11.4661 11.178 11.4661 11.0568Z" fill="#214E41"/>
<path d="M17.2378 11.0568V4.86542C17.2378 4.74457 17.2918 4.64935 17.4001 4.57916C17.5082 4.50928 17.6351 4.47418 17.7816 4.47418H21.1779C21.3049 4.47418 21.4022 4.5285 21.4688 4.63654C21.5356 4.74457 21.5692 4.86877 21.5692 5.00854C21.5692 5.16113 21.5341 5.29175 21.4642 5.39978C21.394 5.50812 21.2985 5.56183 21.1779 5.56183H18.478V7.46979H19.9282C20.0488 7.46979 20.1443 7.51923 20.2145 7.6178C20.2844 7.71637 20.3195 7.83234 20.3195 7.966C20.3195 8.08685 20.2859 8.19641 20.2191 8.29529C20.1522 8.39386 20.0555 8.44299 19.9282 8.44299H18.478V10.3607H21.1779C21.2985 10.3607 21.394 10.4147 21.4642 10.5228C21.5341 10.6311 21.5692 10.7614 21.5692 10.914C21.5692 11.0538 21.5356 11.178 21.4688 11.286C21.4022 11.3943 21.3049 11.4481 21.1779 11.4481H17.7816C17.6351 11.4481 17.5082 11.4133 17.4001 11.3434C17.2918 11.2732 17.2378 11.178 17.2378 11.0568Z" fill="#214E41"/>
<path d="M22.1895 4.9704C22.1895 4.83673 22.2752 4.72076 22.447 4.62219C22.6185 4.52362 22.7968 4.47418 22.9811 4.47418C23.2103 4.47418 23.347 4.55688 23.3912 4.72229L24.8988 9.89319L25.7097 6.57318C25.7667 6.34399 25.9703 6.22955 26.32 6.22955C26.6636 6.22955 26.8638 6.34399 26.9212 6.57318L27.7321 9.89319L29.2393 4.72229C29.2839 4.55688 29.4206 4.47418 29.6498 4.47418C29.8341 4.47418 30.012 4.52362 30.1838 4.62219C30.3557 4.72076 30.4414 4.83673 30.4414 4.9704C30.4414 5.00854 30.435 5.04669 30.4225 5.08484L28.5334 11.0855C28.4379 11.3657 28.1675 11.5054 27.7226 11.5054C27.5319 11.5054 27.36 11.4688 27.2075 11.3956C27.0549 11.3226 26.9624 11.2192 26.9307 11.0855L26.3203 8.50983L25.7002 11.0855C25.6682 11.2192 25.576 11.3226 25.4234 11.3956C25.2708 11.4688 25.099 11.5054 24.9083 11.5054C24.7111 11.5054 24.5363 11.4688 24.3837 11.3956C24.2308 11.3226 24.1356 11.2192 24.0974 11.0855L22.2084 5.08484C22.1956 5.04669 22.1895 5.00854 22.1895 4.9704Z" fill="#214E41"/>
<path d="M30.7563 10.351C30.7563 10.2048 30.8119 10.0568 30.9233 9.90723C31.0344 9.758 31.1601 9.68323 31.3002 9.68323C31.3826 9.68323 31.4766 9.7229 31.5815 9.80225C31.6865 9.88129 31.7881 9.96918 31.8867 10.0647C31.9853 10.1605 32.1269 10.2481 32.3115 10.3275C32.4958 10.4068 32.6994 10.4462 32.9219 10.4462C33.2274 10.4462 33.4816 10.3763 33.6851 10.2362C33.8887 10.0964 33.9903 9.88983 33.9903 9.61639C33.9903 9.42535 33.9348 9.25537 33.8234 9.10583C33.7123 8.9566 33.5658 8.8324 33.3845 8.73383C33.2036 8.63525 33.0046 8.53973 32.7885 8.44757C32.5721 8.35541 32.3542 8.25195 32.1348 8.13751C31.9154 8.02307 31.7152 7.89429 31.5339 7.75116C31.3527 7.60803 31.2062 7.4173 31.0951 7.17865C30.9837 6.94031 30.9282 6.6684 30.9282 6.36322C30.9282 6.02112 30.9965 5.71899 31.1332 5.45776C31.27 5.19623 31.4528 4.99298 31.6816 4.84772C31.9105 4.70245 32.1553 4.59595 32.4162 4.5282C32.6768 4.46045 32.9536 4.42627 33.2463 4.42627C33.4114 4.42627 33.5862 4.43787 33.7709 4.46075C33.9552 4.48364 34.1508 4.52118 34.3577 4.57336C34.5643 4.62555 34.7328 4.70734 34.8631 4.81812C34.9934 4.9292 35.0587 5.05981 35.0587 5.21027C35.0587 5.35187 35.0142 5.49835 34.9254 5.64972C34.8362 5.80109 34.7154 5.87646 34.5628 5.87646C34.5054 5.87646 34.3495 5.81604 34.0953 5.69519C33.8408 5.57434 33.5579 5.51392 33.2463 5.51392C32.9026 5.51392 32.6371 5.57922 32.4498 5.70953C32.2621 5.84015 32.1681 6.01959 32.1681 6.24847C32.1681 6.43311 32.2444 6.59363 32.3973 6.73035C32.5499 6.86707 32.7391 6.97845 32.9649 7.06421C33.1904 7.14996 33.4355 7.2583 33.6995 7.38861C33.9631 7.51892 34.2082 7.66052 34.434 7.81311C34.6595 7.9657 34.8491 8.18665 35.0016 8.47595C35.1542 8.76556 35.2305 9.10431 35.2305 9.49219C35.2305 10.1443 35.0221 10.6479 34.6058 11.0022C34.189 11.3565 33.6406 11.5338 32.96 11.5338C32.3558 11.5338 31.8376 11.4096 31.4052 11.1615C30.9724 10.914 30.7563 10.6436 30.7563 10.351Z" fill="#214E41"/>
</g>
<defs>
<clipPath id="clip0">
<rect width="40" height="40" fill="white"/>
</clipPath>
</defs>
</svg>
