<svg width="38" height="38" viewBox="0 0 38 38" fill="none" xmlns="http://www.w3.org/2000/svg">
<path d="M4.04656 3.36594C3.63679 3.36594 3.30444 3.69821 3.30444 4.10805C3.30444 4.51788 3.63672 4.85016 4.04656 4.85016H4.05398C4.46374 4.85016 4.79238 4.51788 4.79238 4.10805C4.79238 3.69821 4.45639 3.36594 4.04656 3.36594Z" fill="#214E41"/>
<path d="M7.60491 3.36594C7.19514 3.36594 6.86279 3.69821 6.86279 4.10805C6.86279 4.51788 7.19507 4.85016 7.60491 4.85016H7.61225C8.02201 4.85016 8.35073 4.51788 8.35073 4.10805C8.35073 3.69821 8.01474 3.36594 7.60491 3.36594Z" fill="#214E41"/>
<path d="M11.1635 3.36594C10.7537 3.36594 10.4214 3.69821 10.4214 4.10805C10.4214 4.51788 10.7537 4.85016 11.1635 4.85016H11.1708C11.5806 4.85016 11.9093 4.51788 11.9093 4.10805C11.9093 3.69821 11.5733 3.36594 11.1635 3.36594Z" fill="#214E41"/>
<path d="M29.3656 3.36594H20.3598C19.95 3.36594 19.6177 3.69821 19.6177 4.10805C19.6177 4.51788 19.95 4.85016 20.3598 4.85016H29.3656C29.7753 4.85016 30.1077 4.51788 30.1077 4.10805C30.1077 3.69821 29.7753 3.36594 29.3656 3.36594Z" fill="#214E41"/>
<path d="M17.3608 29.4584C17.2226 29.3203 17.0312 29.2409 16.8361 29.2409C16.641 29.2409 16.4495 29.3203 16.3115 29.4584C16.1735 29.5964 16.094 29.7879 16.094 29.983C16.094 30.1781 16.1734 30.3696 16.3115 30.5076C16.4495 30.6456 16.6409 30.7251 16.8361 30.7251C17.0313 30.7251 17.2227 30.6457 17.3608 30.5076C17.4988 30.3696 17.5782 30.1782 17.5782 29.983C17.5782 29.7878 17.4988 29.5964 17.3608 29.4584Z" fill="#214E41"/>
<path d="M33.9926 9.52021V3.7126C33.9926 1.66661 32.3281 0.00210571 30.2821 0.00210571H3.71049C1.6645 0.00210571 0 1.66668 0 3.71267V27.1608C0 29.1262 1.59889 30.7251 3.56421 30.7251H6.34934V30.8456C6.34934 31.0995 6.16862 31.3197 5.91969 31.3692L3.12298 31.9265C1.56876 32.2363 0.409094 33.5028 0.237352 35.0783L0.00868359 37.1752C-0.0141758 37.3848 0.0532891 37.5942 0.194008 37.7512C0.334727 37.9081 0.535637 37.9978 0.746418 37.9978H16.8358C17.0466 37.9978 17.2475 37.9081 17.3883 37.7511C17.529 37.5941 17.5964 37.3847 17.5734 37.1751L17.3442 35.0774C17.1721 33.5024 16.0125 32.2362 14.4587 31.9266L11.6615 31.3692C11.4125 31.3197 11.2318 31.0994 11.2318 30.8456V30.1487C11.2318 30.1449 11.2313 30.1413 11.2312 30.1375L12.489 29.4185C12.5029 29.4106 12.5164 29.4022 12.5297 29.3935C13.2041 28.9481 13.647 28.155 13.7144 27.2719C13.7159 27.253 13.7166 27.2341 13.7166 27.2153V24.1719C14.16 23.883 14.4838 23.3579 14.4838 22.4386L14.485 20.771C14.485 20.7434 14.4835 20.7162 14.4805 20.6893C14.4045 19.2208 13.2088 18.08 11.7298 18.08H5.42339C5.14655 18.08 4.88961 17.9334 4.72276 17.8104C4.41023 17.58 4.0015 17.5454 3.65572 17.7201C3.31127 17.8942 3.0973 18.2422 3.0973 18.6285V21.0431C3.0973 21.8633 3.38564 22.6171 3.86568 23.2098V27.2153C3.86568 27.2341 3.86643 27.253 3.86784 27.2719C3.92803 28.0597 4.29229 28.7772 4.85539 29.2408H3.56421C2.4173 29.2409 1.48415 28.3079 1.48415 27.1608V11.5841H9.77171C10.1815 11.5841 10.5138 11.2518 10.5138 10.842C10.5138 10.4321 10.1816 10.0999 9.77171 10.0999H1.48423V8.02196H32.5085V9.49973H20.4617C18.0202 9.49973 16.0338 11.486 16.0338 13.9275V20.139C16.0338 22.5805 18.0202 24.5668 20.4617 24.5668H21.3894V26.7366C21.3894 27.0368 21.5703 27.3073 21.8475 27.4222C21.9393 27.4602 22.0358 27.4787 22.1314 27.4787C22.3246 27.4787 22.5143 27.4033 22.6562 27.2613L25.3507 24.5667H32.5086V27.1607C32.5086 28.3077 31.5754 29.2409 30.4284 29.2409H19.8557C19.4459 29.2409 19.1136 29.5732 19.1136 29.983C19.1136 30.3928 19.4458 30.7251 19.8557 30.7251H30.4284C32.3937 30.7251 33.9926 29.1261 33.9926 27.1608V24.5464C36.2376 24.3338 38 22.4387 38 20.1391V13.9276C38 11.628 36.2376 9.73285 33.9926 9.52021ZM11.7119 32.8927L14.1688 33.3822C15.0844 33.5646 15.7676 34.3106 15.869 35.2386L16.0083 36.5135H1.57396L1.71297 35.2391C1.81413 34.3108 2.49739 33.5646 3.4131 33.3821L5.87026 32.8926C6.67605 33.6104 7.70324 34.0034 8.79114 34.0034C9.87903 34.0034 10.9061 33.6104 11.7119 32.8927ZM7.3582 32.1428C7.62872 31.8212 7.79854 31.4162 7.82763 30.9787C8.13452 31.1291 8.46272 31.2056 8.79114 31.2056C9.11918 31.2057 9.44693 31.1294 9.75368 30.9792C9.78285 31.4167 9.95288 31.8216 10.2234 32.1433C9.79123 32.3881 9.30139 32.5191 8.79114 32.5191C8.28073 32.5191 7.79067 32.3879 7.3582 32.1428ZM12.2325 27.1844C12.1951 27.5888 12.0041 27.9526 11.7287 28.1437L9.23556 29.5689C9.22168 29.5768 9.20817 29.5852 9.19489 29.5939C8.93824 29.7634 8.64396 29.7633 8.38746 29.5939C8.37447 29.5854 8.36119 29.5772 8.34768 29.5694L5.8615 28.1438C5.58125 27.9499 5.38724 27.586 5.34984 27.1843V24.2776C5.72249 24.4158 6.12535 24.4916 6.5455 24.4916H12.2325V27.1844ZM4.58152 21.0433V19.409C4.85888 19.5115 5.14239 19.5643 5.42353 19.5643H11.7299C12.4223 19.5643 12.9801 20.1063 12.9997 20.7983C12.9999 20.8066 13.0004 20.8149 13.0009 20.8231L12.9997 22.4381C12.9997 22.4383 12.9997 22.4385 12.9997 22.4387C12.9997 22.8143 12.923 22.9093 12.9142 22.9189C12.8842 22.9517 12.7543 23.0073 12.4575 23.0073H6.54557C5.4625 23.0073 4.58152 22.1263 4.58152 21.0433ZM1.48423 6.53781V3.71267C1.48423 2.48509 2.48291 1.48641 3.71049 1.48641H30.2821C31.5097 1.48641 32.5084 2.48509 32.5084 3.71267V6.53788H1.48423V6.53781ZM36.5158 20.1391C36.5158 21.7621 35.1952 23.0826 33.5721 23.0826H25.0432C24.8464 23.0826 24.6577 23.1609 24.5185 23.3L22.8736 24.945V23.8248C22.8736 23.415 22.5413 23.0826 22.1314 23.0826H20.4617C18.8386 23.0826 17.5181 21.7621 17.5181 20.1391V13.9276C17.5181 12.3045 18.8386 10.984 20.4617 10.984H33.5721C35.1952 10.984 36.5158 12.3045 36.5158 13.9276V20.1391Z" fill="#214E41"/>
<path d="M21.0801 14.7788C19.8525 14.7788 18.8538 15.7775 18.8538 17.0051C18.8538 18.2327 19.8524 19.2313 21.0801 19.2313C22.3077 19.2313 23.3064 18.2327 23.3064 17.0051C23.3064 15.7775 22.3077 14.7788 21.0801 14.7788ZM21.0801 17.7472C20.6709 17.7472 20.338 17.4143 20.338 17.0051C20.338 16.5959 20.6709 16.263 21.0801 16.263C21.4893 16.263 21.8222 16.5958 21.8222 17.0051C21.8222 17.4143 21.4892 17.7472 21.0801 17.7472Z" fill="#214E41"/>
<path d="M27.0168 14.7788C25.7892 14.7788 24.7905 15.7775 24.7905 17.0051C24.7905 18.2327 25.7892 19.2313 27.0168 19.2313C28.2444 19.2313 29.2431 18.2327 29.2431 17.0051C29.2431 15.7775 28.2444 14.7788 27.0168 14.7788ZM27.0168 17.7472C26.6076 17.7472 26.2747 17.4143 26.2747 17.0051C26.2747 16.5959 26.6076 16.263 27.0168 16.263C27.426 16.263 27.7589 16.5958 27.7589 17.0051C27.7589 17.4143 27.426 17.7472 27.0168 17.7472Z" fill="#214E41"/>
<path d="M32.9538 14.7788C31.7262 14.7788 30.7275 15.7775 30.7275 17.0051C30.7275 18.2327 31.7262 19.2313 32.9538 19.2313C34.1814 19.2313 35.1801 18.2327 35.1801 17.0051C35.1801 15.7775 34.1814 14.7788 32.9538 14.7788ZM32.9538 17.7472C32.5446 17.7472 32.2117 17.4143 32.2117 17.0051C32.2117 16.5959 32.5446 16.263 32.9538 16.263C33.363 16.263 33.6959 16.5958 33.6959 17.0051C33.6959 17.4143 33.3629 17.7472 32.9538 17.7472Z" fill="#214E41"/>
<path d="M13.0792 10.3173C12.9412 10.1793 12.7498 10.0998 12.5546 10.0998C12.3594 10.0998 12.1681 10.1792 12.03 10.3173C11.8919 10.4553 11.8125 10.646 11.8125 10.8419C11.8125 11.0372 11.8918 11.2286 12.03 11.3666C12.168 11.5046 12.3594 11.584 12.5546 11.584C12.7506 11.584 12.9412 11.5047 13.0792 11.3666C13.218 11.2286 13.2967 11.0372 13.2967 10.8419C13.2967 10.6468 13.218 10.4553 13.0792 10.3173Z" fill="#214E41"/>
</svg>
