<svg width="44" height="44" viewBox="0 0 44 44" fill="none" xmlns="http://www.w3.org/2000/svg">
<path d="M15.125 10.3125C15.5047 10.3125 15.8125 10.0047 15.8125 9.625C15.8125 9.2453 15.5047 8.9375 15.125 8.9375C14.7453 8.9375 14.4375 9.2453 14.4375 9.625C14.4375 10.0047 14.7453 10.3125 15.125 10.3125Z" fill="#214E41"/>
<path d="M25.4375 23.375C25.4375 18.9324 23.0684 14.8651 19.2356 12.6555C19.1366 10.3689 18.2401 8.43013 17.6234 7.35831C18.9661 6.89013 19.9375 5.62512 19.9375 4.125C19.9375 2.22956 18.3954 0.6875 16.5 0.6875C15.7327 0.6875 15.0315 0.94875 14.4588 1.375H12.1461C7.72269 1.375 4.125 4.97269 4.125 9.39606C4.125 10.9251 4.57463 12.4094 5.37625 13.6792C2.42963 16.0187 0.6875 19.5938 0.6875 23.375C0.6875 30.1984 6.23906 35.75 13.0625 35.75C15.1649 35.75 17.1449 35.2199 18.8808 34.2904L27.9029 43.3125H28.1875C30.8406 43.3125 33 41.1538 33 38.5V38.2154L23.9779 29.1933C24.9074 27.4574 25.4375 25.4774 25.4375 23.375ZM10.3125 22.4249V31.1437C9.28675 30.7794 8.35587 30.2197 7.56181 29.5061L7.5625 22.2647C7.5625 20.4476 8.57794 18.832 10.1722 18.0194L13.0625 20.9096L14.5778 19.3944C16.1721 20.207 17.1875 21.8226 17.1875 23.6397V30.5085C15.9727 31.2139 14.5661 31.625 13.0625 31.625C12.5929 31.625 12.1357 31.5762 11.6875 31.5006V21.5751L9.93231 20.6979L9.317 21.9278L10.3125 22.4249ZM8.38269 16.5997L9.031 17.0857C7.27787 18.2009 6.1875 20.1266 6.1875 22.2647L6.18681 27.9242C5.32056 26.6193 4.8125 25.0559 4.8125 23.375C4.8125 20.636 6.14625 18.1431 8.38269 16.5997ZM15.125 18.1163V17.0156C15.5602 16.8685 15.9638 16.6334 16.2986 16.2992C16.4148 16.1831 16.5138 16.0559 16.6086 15.9253C19.4838 17.2879 21.3125 20.1506 21.3125 23.375C21.3125 25.8101 20.2455 27.995 18.5625 29.5068V23.6397C18.5625 21.2671 17.2281 19.1469 15.125 18.1163ZM15.8125 13.2543V14.1529C15.8125 14.5963 15.6399 15.0129 15.3264 15.3264C15.0129 15.6399 14.5956 15.8125 14.1529 15.8125H12.375V17.1875H13.75V18.2779L13.0625 18.9654L11 16.9029V13.6324C11 13.0817 10.7848 12.5634 10.3957 12.1736L9.82644 11.6043C9.6965 11.4744 9.625 11.3011 9.625 11.1176V11C9.625 10.6212 9.933 10.3125 10.3125 10.3125H11V8.25C11 7.87119 11.308 7.5625 11.6875 7.5625H15.125H16.1377C16.5907 8.261 17.7176 10.2163 17.8606 12.5723L15.8125 13.2543ZM12.1461 2.75H13.354C13.1684 3.17213 13.0625 3.6355 13.0625 4.125H14.4375C14.4375 2.98787 15.3629 2.0625 16.5 2.0625C17.6371 2.0625 18.5625 2.98787 18.5625 4.125C18.5625 5.26213 17.6371 6.1875 16.5 6.1875H15.125H11.6875C10.5504 6.1875 9.625 7.11287 9.625 8.25V9.05506C8.82475 9.339 8.25 10.1035 8.25 11V11.1176C8.25 11.6683 8.46519 12.1866 8.85431 12.5764L9.42356 13.1457C9.5535 13.2756 9.625 13.4489 9.625 13.6324V15.8132L8.15788 14.7132C6.49344 13.464 5.5 11.4764 5.5 9.39606C5.5 5.731 8.48169 2.75 12.1461 2.75ZM2.0625 23.375C2.0625 20.0221 3.60319 16.8513 6.21156 14.7702C6.52163 15.114 6.8585 15.4358 7.22906 15.7231C4.84 17.5388 3.4375 20.3307 3.4375 23.375C3.4375 28.6825 7.755 33 13.0625 33C18.37 33 22.6875 28.6825 22.6875 23.375C22.6875 19.5903 20.5267 16.2339 17.1353 14.6554C17.1579 14.52 17.182 14.3853 17.1861 14.2457L18.4896 13.8112C21.9326 15.7685 24.0625 19.4033 24.0625 23.375C24.0625 29.4401 19.1276 34.375 13.0625 34.375C6.99738 34.375 2.0625 29.4401 2.0625 23.375ZM31.614 38.7736C31.4813 40.4511 30.1386 41.7938 28.4611 41.9265L20.086 33.5514C21.3173 32.6989 22.3864 31.6298 23.2389 30.3985L31.614 38.7736Z" fill="#214E41"/>
<path d="M32.3125 36.4375H41.9375V26.8125H32.3125V36.4375ZM33.6875 28.1875H40.5625V35.0625H33.6875V28.1875Z" fill="#214E41"/>
<path d="M36.4375 32.0279L35.5485 31.1389L34.5764 32.111L36.4375 33.9721L40.361 30.0485L39.3889 29.0764L36.4375 32.0279Z" fill="#214E41"/>
<path d="M32.3125 25.4375H41.9375V15.8125H32.3125V25.4375ZM33.6875 17.1875H40.5625V24.0625H33.6875V17.1875Z" fill="#214E41"/>
<path d="M36.4375 21.0279L35.5485 20.1389L34.5764 21.111L36.4375 22.9721L40.361 19.0485L39.3889 18.0764L36.4375 21.0279Z" fill="#214E41"/>
<path d="M21.3125 0.6875V6.1875H43.3125V0.6875H21.3125ZM30.9375 2.0625H33.6875V4.8125H30.9375V2.0625ZM29.5625 4.8125H26.8125V2.0625H29.5625V4.8125ZM35.0625 2.0625H37.8125V4.8125H35.0625V2.0625ZM22.6875 2.0625H25.4375V4.8125H22.6875V2.0625ZM41.9375 4.8125H39.1875V2.0625H41.9375V4.8125Z" fill="#214E41"/>
<path d="M25.4375 7.5625H37.8125V8.9375H25.4375V7.5625Z" fill="#214E41"/>
<path d="M25.4375 10.3125H37.8125V11.6875H25.4375V10.3125Z" fill="#214E41"/>
<path d="M36.4375 13.0625H37.8125V14.4375H36.4375V13.0625Z" fill="#214E41"/>
<path d="M25.4375 13.0625H26.8125V14.4375H25.4375V13.0625Z" fill="#214E41"/>
<path d="M30.9375 13.0625H32.3125V14.4375H30.9375V13.0625Z" fill="#214E41"/>
<path d="M33.6875 13.0625H35.0625V14.4375H33.6875V13.0625Z" fill="#214E41"/>
<path d="M28.1875 13.0625H29.5625V14.4375H28.1875V13.0625Z" fill="#214E41"/>
</svg>
