<svg width="42" height="42" viewBox="0 0 42 42" fill="none" xmlns="http://www.w3.org/2000/svg">
<path d="M19.6693 14.6951C19.6259 15.3468 19.6 16.0433 19.6 16.8C19.6 20.3063 20.6465 22.4 22.4 22.4C24.6106 22.4 25.2 19.7603 25.2 18.2C25.2 17.8137 24.8864 17.5001 24.5 17.5001C24.1136 17.5001 23.8 17.8137 23.8 18.2C23.8 18.228 23.7398 21 22.4 21C21.5887 21 21 19.2339 21 16.8C21 8.63871 23.8643 7.70913 23.9546 7.68321C24.3235 7.59921 24.5609 7.23589 24.486 6.86282C24.4111 6.48408 24.0442 6.23774 23.6628 6.31403C23.5227 6.342 23.0153 6.47505 22.4049 6.99792C22.4057 6.8775 22.4154 6.75716 22.4476 6.63739C22.5443 6.27621 22.7759 5.9745 23.1 5.78763C23.4234 5.60077 23.8014 5.55105 24.1619 5.64761C24.5231 5.74489 24.8256 5.97663 25.0117 6.3C25.3981 6.96847 25.1685 7.82668 24.5 8.21239C24.1647 8.40632 24.0506 8.83468 24.2438 9.16929C24.3733 9.39332 24.6085 9.51858 24.8507 9.51858C24.9697 9.51858 25.09 9.48847 25.2 9.42482C26.537 8.652 26.9962 6.93632 26.2248 5.60003C25.851 4.95255 25.2469 4.48916 24.5245 4.29524C23.8008 4.10132 23.0468 4.20148 22.4 4.57521C21.7525 4.94903 21.2891 5.55311 21.0952 6.27547C20.9139 6.95166 21 7.65376 21.329 8.29287C20.7284 9.27011 20.167 10.7253 19.8548 12.8897C18.8069 11.6347 18.2 10.0359 18.2 8.39992C18.2 4.5401 21.3402 1.39995 25.2 1.39995C29.0597 1.39995 32.1999 4.54018 32.1999 8.39992C32.1999 12.2597 29.0597 15.3999 25.2 15.3999C24.4398 15.3999 23.6921 15.2788 22.9789 15.0408C22.6128 14.9189 22.2152 15.1164 22.0934 15.4825C21.9701 15.8493 22.1683 16.2455 22.5351 16.368C23.3919 16.6543 24.2886 16.7999 25.2 16.7999C29.8319 16.7999 33.6 13.0318 33.6 8.39992C33.6 3.76811 29.8319 0 25.2 0C20.5682 0 16.8 3.76811 16.8 8.4C16.8 10.787 17.8718 13.1068 19.6693 14.6951Z" fill="#214E41"/>
<path d="M41.7949 20.5051L34.5247 13.2349C34.2517 12.9619 33.8086 12.9619 33.535 13.2349C33.262 13.5087 33.262 13.9517 33.535 14.2247L40.6001 21.2898V23.8001H38.0898L37.8 23.5102V21.7001C37.8 21.3137 37.4864 21.0001 37.1 21.0001H36.4001V20.3001C36.4001 19.9137 36.0865 19.6001 35.7001 19.6001H33.8906L33.6001 19.3097V17.5001C33.6001 17.1138 33.2865 16.8002 32.9001 16.8002H31.0899L31.0219 16.7322C30.7489 16.4592 30.3058 16.4592 30.0321 16.7322C29.7591 17.006 29.7591 17.449 30.0321 17.722L30.3051 17.995C30.4361 18.1266 30.6146 18.2001 30.8 18.2001H32.2001V19.5994C32.2001 19.7849 32.2736 19.9627 32.4045 20.0936L33.1045 20.795C33.236 20.9266 33.4139 21.0001 33.6001 21.0001H35.0001V21.7001C35.0001 22.0864 35.3137 22.4 35.7001 22.4H36.4001V23.8001C36.4001 23.9855 36.4736 24.164 36.6051 24.295L37.3051 24.9949C37.436 25.1265 37.6145 25.2 37.8 25.2H41.3C41.6864 25.2 42 24.8864 42 24.5V21C42 20.8145 41.9265 20.636 41.7949 20.5051Z" fill="#214E41"/>
<path d="M4.19995 11.9001C4.19995 12.2865 4.51356 12.6001 4.89992 12.6001H5.5999V16.8001H4.89992C4.51356 16.8001 4.19995 17.1137 4.19995 17.5C4.19995 17.8864 4.51356 18.2 4.89992 18.2H5.5999V22.4H4.89992C4.51356 22.4 4.19995 22.7136 4.19995 23.1C4.19995 23.4863 4.51356 23.7999 4.89992 23.7999H5.5999V27.9999H4.89992C4.51356 27.9999 4.19995 28.3136 4.19995 28.6999C4.19995 29.0863 4.51356 29.3999 4.89992 29.3999H5.5999V33.5999H4.89992C4.51356 33.5999 4.19995 33.9135 4.19995 34.2999C4.19995 34.6862 4.51356 34.9998 4.89992 34.9998H5.5999V38.4999C5.5999 38.8862 5.9135 39.1998 6.29987 39.1998C6.68624 39.1998 6.99984 38.8862 6.99984 38.4999V34.9998H9.79981V38.4999C9.79981 38.8862 10.1134 39.1998 10.4998 39.1998C10.8862 39.1998 11.1998 38.8862 11.1998 38.4999V34.9998H13.9997V38.4999C13.9997 38.8862 14.3133 39.1998 14.6997 39.1998C15.0861 39.1998 15.3997 38.8862 15.3997 38.4999V34.9998H18.1997V38.4999C18.1997 38.8862 18.5133 39.1998 18.8996 39.1998C19.286 39.1998 19.5996 38.8862 19.5996 38.4999V34.9998H20.2996C20.6859 34.9998 20.9995 34.6862 20.9995 34.2999C20.9995 33.9135 20.6859 33.5999 20.2996 33.5999H19.5996V29.3999H20.2996C20.6859 29.3999 20.9995 29.0863 20.9995 28.6999C20.9995 28.3136 20.6859 27.9999 20.2996 27.9999H19.5996V23.7999C19.986 23.7999 20.2996 23.4863 20.2996 23.1C20.2996 22.7136 19.986 22.4 19.5996 22.4C19.5996 22.0136 19.286 21.7 18.8996 21.7C18.5133 21.7 18.1997 22.0136 18.1997 22.4H15.3997V18.2H17.4997C17.886 18.2 18.1997 17.8864 18.1997 17.5C18.1997 17.1137 17.886 16.8001 17.4997 16.8001H15.3997V12.6001H15.75C16.1363 12.6001 16.4499 12.2865 16.4499 11.9001C16.4499 11.5137 16.1363 11.2001 15.75 11.2001H4.89992C4.51356 11.2 4.19995 11.5136 4.19995 11.9001ZM15.3999 23.8H18.1999V28H15.3999V23.8ZM15.3999 29.4001H18.1999V33.6001H15.3999V29.4001ZM11.1999 12.6001H13.9999V16.8001H11.1999V12.6001ZM11.1999 18.2001H13.9999V22.4001H11.1999V18.2001ZM11.1999 23.8H13.9999V28H11.1999V23.8ZM11.1999 29.4001H13.9999V33.6001H11.1999V29.4001ZM6.99992 12.6001H9.7999V16.8001H6.99992V12.6001ZM6.99992 18.2001H9.7999V22.4001H6.99992V18.2001ZM6.99992 23.8H9.7999V28H6.99992V23.8ZM6.99992 29.4001H9.7999V33.6001H6.99992V29.4001Z" fill="#214E41"/>
<path d="M14.7 9.80003C15.0864 9.80003 15.4 9.48643 15.4 9.10006C15.4 8.71369 15.0864 8.40009 14.7 8.40009H10.5C10.1137 8.40009 9.80005 8.71369 9.80005 9.10006C9.80005 9.48643 10.1137 9.80003 10.5 9.80003H14.7Z" fill="#214E41"/>
<path d="M41.3 40.6H30.8V37.7293C32.3953 37.4038 33.6 35.9905 33.6 34.3C33.6 34.209 33.5601 25.2001 30.1 25.2001C26.6398 25.2001 26.5999 34.209 26.5999 34.3C26.5999 35.9905 27.8047 37.4038 29.3999 37.7293V40.6H23.7999V24.5001C23.7999 24.1137 23.4863 23.8001 23.0999 23.8001C22.7136 23.8001 22.3999 24.1137 22.3999 24.5001V40.6001H2.79997V9.80008H7.69994C8.08631 9.80008 8.39992 9.48647 8.39992 9.1001V7.0001H14.6999C15.0863 7.0001 15.3999 6.6865 15.3999 6.30013C15.3999 5.91376 15.0863 5.60016 14.6999 5.60016H7.70003C7.31366 5.60016 7.00005 5.91376 7.00005 6.30013V8.40013H2.1C1.71363 8.40013 1.40003 8.71374 1.40003 9.1001V40.6001H0.699973C0.313605 40.6001 0 40.9137 0 41.3001C0 41.6864 0.313605 42 0.699973 42H41.2999C41.6863 42 41.9999 41.6864 41.9999 41.3001C41.9999 40.9137 41.6864 40.6 41.3 40.6ZM28 34.3C28 30.8126 28.9366 26.6 30.1 26.6C31.2633 26.6 32.2 30.8126 32.2 34.3C32.2 35.4578 31.2578 36.4 30.1 36.4C28.9422 36.4 28 35.4578 28 34.3Z" fill="#214E41"/>
</svg>
