<svg width="42" height="42" viewBox="0 0 42 42" fill="none" xmlns="http://www.w3.org/2000/svg">
<g clip-path="url(#clip0)">
<path d="M22.9688 36.75C22.9272 36.75 22.8856 36.751 22.8439 36.7529C22.1074 35.9333 20.9362 35.4375 19.6875 35.4375C17.5163 35.4375 15.75 36.9095 15.75 38.7187C15.75 40.7121 17.0379 42 19.0312 42H22.9688C23.6649 42 24.3326 41.7234 24.8249 41.2311C25.3172 40.7389 25.5938 40.0712 25.5938 39.375C25.5938 38.6788 25.3172 38.0111 24.8249 37.5188C24.3326 37.0265 23.6649 36.75 22.9688 36.75ZM22.9688 40.6875H19.0312C17.3183 40.6875 17.0625 39.454 17.0625 38.7187C17.0625 37.6332 18.2401 36.75 19.6875 36.75C20.3045 36.7425 20.9101 36.9168 21.4288 37.2512C20.9975 37.5629 20.6713 37.9985 20.4936 38.5L21.7311 38.9374C21.8078 38.7219 21.9393 38.5301 22.1127 38.381C22.2862 38.2318 22.4955 38.1305 22.7201 38.0871C22.7495 38.0816 22.7791 38.0769 22.8088 38.0731C22.8208 38.0716 22.8328 38.0699 22.8449 38.0688C22.8859 38.0649 22.9275 38.0623 22.9688 38.0623C23.3168 38.0623 23.6507 38.2006 23.8968 38.4467C24.143 38.6929 24.2812 39.0267 24.2812 39.3748C24.2812 39.7229 24.143 40.0568 23.8968 40.3029C23.6507 40.549 23.3168 40.6873 22.9688 40.6873V40.6875Z" fill="#214E41"/>
<path d="M11.8125 32.1562C11.8125 31.9822 11.7434 31.8153 11.6203 31.6922C11.4972 31.5691 11.3303 31.5 11.1562 31.5H7.21875C7.0447 31.5 6.87778 31.5691 6.75471 31.6922C6.63164 31.8153 6.5625 31.9822 6.5625 32.1562V40.6875H4.59375V29.0991L12.4688 25.6538L20.3438 29.0991V34.125H21.6562V29.6733L22.7058 30.1327C22.8056 30.1764 22.9149 30.1945 23.0235 30.1854C23.1321 30.1763 23.2368 30.1403 23.3281 30.0806C23.4193 30.0209 23.4942 29.9394 23.5461 29.8435C23.5979 29.7476 23.625 29.6403 23.625 29.5312V26.25C23.625 26.1224 23.5878 25.9976 23.5179 25.8908C23.4481 25.784 23.3486 25.6999 23.2317 25.6488L12.7317 21.055C12.6488 21.0187 12.5593 21 12.4688 21C12.3782 21 12.2887 21.0187 12.2058 21.055L1.70576 25.6488C1.58886 25.6999 1.4894 25.784 1.41956 25.8908C1.34971 25.9976 1.31251 26.1224 1.3125 26.25V29.5312C1.31251 29.6402 1.33967 29.7475 1.39153 29.8434C1.44339 29.9393 1.51832 30.0207 1.60955 30.0804C1.70078 30.1401 1.80543 30.1761 1.91406 30.1852C2.02269 30.1942 2.13187 30.1761 2.23174 30.1324L3.28125 29.6733V40.6875H1.96875V42H15.0938V40.6875H11.8125V32.1562ZM2.625 28.5278V26.6792L12.4688 22.3725L22.3125 26.6792V28.5278L21.6562 28.2407V28.2187H21.606L12.7317 24.3363C12.6488 24.3 12.5593 24.2812 12.4688 24.2812C12.3782 24.2812 12.2887 24.3 12.2058 24.3363L3.33154 28.2187H3.28125V28.2407L2.625 28.5278ZM7.875 32.8125H10.5V40.6875H7.875V32.8125Z" fill="#214E41"/>
<path d="M13.125 33.4687V36.75H14.4375V34.125H17.7188V32.8125H13.7812C13.6072 32.8125 13.4403 32.8816 13.3172 33.0047C13.1941 33.1278 13.125 33.2947 13.125 33.4687Z" fill="#214E41"/>
<path d="M27.5625 20.3437V20.4395C27.563 20.8382 27.6905 21.2264 27.9265 21.5477C28.1625 21.8691 28.4947 22.1069 28.875 22.2268V22.9687H30.1875V22.2268C30.5437 22.115 30.8584 21.8994 31.0912 21.6076C31.3239 21.3158 31.4642 20.9611 31.494 20.589C31.5238 20.2169 31.4417 19.8444 31.2583 19.5192C31.0749 19.1941 30.7986 18.9312 30.4647 18.7642L29.185 18.1244C29.0721 18.0679 28.9815 17.975 28.9279 17.8606C28.8744 17.7463 28.8611 17.6172 28.8901 17.4943C28.9191 17.3714 28.9887 17.2619 29.0877 17.1835C29.1867 17.1052 29.3093 17.0625 29.4355 17.0625H29.627C29.7756 17.0626 29.9181 17.1217 30.0232 17.2268C30.1282 17.3319 30.1873 17.4744 30.1875 17.623V17.7187H31.5V17.623C31.4995 17.2243 31.372 16.8361 31.136 16.5148C30.9 16.1934 30.5678 15.9555 30.1875 15.8357V15.0937H28.875V15.8357C28.5188 15.9474 28.2041 16.163 27.9713 16.4549C27.7386 16.7467 27.5983 17.1014 27.5685 17.4735C27.5387 17.8456 27.6208 18.2181 27.8042 18.5432C27.9876 18.8684 28.2639 19.1313 28.5978 19.2983L29.8775 19.9381C29.9904 19.9946 30.081 20.0875 30.1346 20.2018C30.1881 20.3162 30.2014 20.4453 30.1724 20.5682C30.1434 20.6911 30.0738 20.8006 29.9748 20.8789C29.8758 20.9573 29.7532 21 29.627 21H29.4355C29.2869 20.9998 29.1444 20.9407 29.0393 20.8357C28.9343 20.7306 28.8752 20.5881 28.875 20.4395V20.3437H27.5625Z" fill="#214E41"/>
<path d="M26.25 18.375H24.9375V19.6875H26.25V18.375Z" fill="#214E41"/>
<path d="M34.125 18.375H32.8125V19.6875H34.125V18.375Z" fill="#214E41"/>
<path d="M39.6029 17.906L33.4688 8.98365V6.78127L35.3063 4.33124C35.3914 4.21765 35.4375 4.07949 35.4375 3.93749C35.4375 3.47996 35.3205 3.03003 35.0977 2.63041C34.8749 2.23079 34.5537 1.89476 34.1645 1.65422C33.7753 1.41368 33.331 1.27662 32.874 1.25605C32.4169 1.23548 31.9621 1.33208 31.5529 1.53669L29.5313 2.54756L27.5096 1.53669C27.1004 1.33208 26.6456 1.23548 26.1885 1.25605C25.7315 1.27662 25.2872 1.41368 24.898 1.65422C24.5088 1.89476 24.1876 2.23079 23.9648 2.63041C23.742 3.03003 23.625 3.47996 23.625 3.93749C23.625 4.07949 23.6711 4.21765 23.7563 4.33124L25.5938 6.78127V8.98365L19.4596 17.906C18.7517 18.9328 18.3733 20.151 18.375 21.3982C18.375 21.7407 18.4033 22.0827 18.4595 22.4206L19.7541 22.2044C19.7097 21.9379 19.6875 21.6683 19.6875 21.3982C19.6862 20.4165 19.984 19.4578 20.5412 18.6495L26.5953 9.84374H32.4673L38.5212 18.6495C39.022 19.3781 39.3143 20.2295 39.3664 21.112C39.4185 21.9945 39.2285 22.8745 38.817 23.6569C38.4054 24.4393 37.7879 25.0943 37.0312 25.5514C36.2744 26.0084 35.4072 26.2499 34.5232 26.25H24.9375V27.5625H34.5232C35.6464 27.5625 36.7482 27.2556 37.7097 26.675C38.6712 26.0943 39.4558 25.2621 39.9787 24.268C40.5016 23.274 40.743 22.1559 40.6767 21.0347C40.6105 19.9134 40.2392 18.8316 39.6029 17.906ZM25.5881 2.77068C25.7867 2.647 26.0138 2.57651 26.2475 2.566C26.4812 2.55548 26.7137 2.60529 26.9226 2.71063L29.2377 3.86818C29.3289 3.91375 29.4294 3.93747 29.5313 3.93747C29.6331 3.93747 29.7336 3.91375 29.8248 3.86818L32.1398 2.71063C32.3338 2.6137 32.548 2.56412 32.7649 2.56596C32.9817 2.56781 33.1951 2.62102 33.3874 2.72125C33.5797 2.82147 33.7455 2.96585 33.8712 3.14254C33.9969 3.31924 34.079 3.52321 34.1106 3.73775L32.4844 5.90624H26.5781L24.9518 3.73775C24.9803 3.53971 25.0521 3.35038 25.1621 3.18323C25.272 3.01608 25.4175 2.87523 25.5881 2.77068ZM32.1563 8.53124H26.9063V7.21874H32.1563V8.53124Z" fill="#214E41"/>
<path d="M4.59375 21C4.59375 21.227 4.59867 21.4572 4.60835 21.6842L5.9197 21.6283C5.91076 21.4197 5.90625 21.2084 5.90625 21C5.90625 13.6084 11.49 7.49764 18.6608 6.66092L17.2547 8.06719L18.1828 8.99529L20.8078 6.37029C20.8687 6.30935 20.9171 6.237 20.9501 6.15738C20.983 6.07776 21 5.99242 21 5.90624C21 5.82005 20.983 5.73472 20.9501 5.65509C20.9171 5.57547 20.8687 5.50313 20.8078 5.44219L18.1828 2.81718L17.2547 3.74529L18.8323 5.32283C10.8542 6.08605 4.59375 12.8252 4.59375 21Z" fill="#214E41"/>
<path d="M32.3203 29.5312H29.6953V30.8437H30.9033C29.0635 32.8139 26.7114 34.2328 24.1106 34.9414L24.4522 36.2087C27.1951 35.4617 29.6863 33.9898 31.664 31.9476V32.8125H32.9765V30.1875C32.9765 30.0134 32.9074 29.8465 32.7843 29.7235C32.6613 29.6004 32.4943 29.5312 32.3203 29.5312Z" fill="#214E41"/>
<path d="M6.96442 10.4098C8.53009 8.43885 10.5086 6.83489 12.7607 5.71069L12.1764 4.53535C9.7356 5.74848 7.59461 7.4885 5.90808 9.62976C4.22155 11.771 3.03157 14.2601 2.42407 16.9172L3.70376 17.2078C4.27156 14.7275 5.3855 12.4051 6.96442 10.4098Z" fill="#214E41"/>
<path d="M3.46723 18.4714L2.16892 18.2786C2.10223 18.7278 2.05162 19.1857 2.01831 19.6396L3.32728 19.7354C3.35813 19.3138 3.4053 18.8886 3.46723 18.4714Z" fill="#214E41"/>
<path d="M9.84375 28.875H8.53125V30.1875H9.84375V28.875Z" fill="#214E41"/>
</g>
<defs>
<clipPath id="clip0">
<rect width="42" height="42" fill="white"/>
</clipPath>
</defs>
</svg>
