<svg width="44" height="41" viewBox="0 0 44 41" fill="none" xmlns="http://www.w3.org/2000/svg">
<path d="M5.5 22.4219C5.68234 22.4219 5.8572 22.3544 5.98614 22.2342C6.11507 22.1141 6.1875 21.9512 6.1875 21.7812V5.125H33.6875V21.1406C33.6875 21.3105 33.7599 21.4735 33.8889 21.5936C34.0178 21.7138 34.1927 21.7812 34.375 21.7812C34.5573 21.7812 34.7322 21.7138 34.8611 21.5936C34.9901 21.4735 35.0625 21.3105 35.0625 21.1406V4.48438C35.0625 4.31447 34.9901 4.15153 34.8611 4.03138C34.7322 3.91124 34.5573 3.84375 34.375 3.84375H9.625V2.5625H37.8125V21.1406C37.8125 21.3105 37.8849 21.4735 38.0139 21.5936C38.1428 21.7138 38.3177 21.7812 38.5 21.7812C38.6823 21.7812 38.8572 21.7138 38.9861 21.5936C39.1151 21.4735 39.1875 21.3105 39.1875 21.1406V1.92188C39.1875 1.75197 39.1151 1.58903 38.9861 1.46888C38.8572 1.34874 38.6823 1.28125 38.5 1.28125H8.9375C8.75516 1.28125 8.5803 1.34874 8.45136 1.46888C8.32243 1.58903 8.25 1.75197 8.25 1.92188V3.84375H5.5C5.31766 3.84375 5.1428 3.91124 5.01386 4.03138C4.88493 4.15153 4.8125 4.31447 4.8125 4.48438V21.7812C4.8125 21.9512 4.88493 22.1141 5.01386 22.2342C5.1428 22.3544 5.31766 22.4219 5.5 22.4219Z" fill="#214E41"/>
<path d="M34.375 38.4375H6.1875V24.3438C6.1875 24.1738 6.11507 24.0109 5.98614 23.8908C5.8572 23.7706 5.68234 23.7031 5.5 23.7031C5.31766 23.7031 5.1428 23.7706 5.01386 23.8908C4.88493 24.0109 4.8125 24.1738 4.8125 24.3438V39.0781C4.8125 39.248 4.88493 39.411 5.01386 39.5311C5.1428 39.6513 5.31766 39.7188 5.5 39.7188H34.375C34.5573 39.7188 34.7322 39.6513 34.8611 39.5311C34.9901 39.411 35.0625 39.248 35.0625 39.0781C35.0625 38.9082 34.9901 38.7453 34.8611 38.6251C34.7322 38.505 34.5573 38.4375 34.375 38.4375Z" fill="#214E41"/>
<path d="M41.9375 35.875H33V24.3438H41.9375C42.1198 24.3438 42.2947 24.2763 42.4236 24.1561C42.5526 24.036 42.625 23.873 42.625 23.7031C42.625 23.5332 42.5526 23.3703 42.4236 23.2501C42.2947 23.13 42.1198 23.0625 41.9375 23.0625H32.3125C32.1302 23.0625 31.9553 23.13 31.8264 23.2501C31.6974 23.3703 31.625 23.5332 31.625 23.7031V24.3438H30.3806L27.9476 22.6358L26.0329 19.5461C25.7738 19.1175 25.3464 18.7991 24.8406 18.6579C24.3349 18.5167 23.7901 18.5636 23.3207 18.7889C22.9913 18.9484 22.6999 19.1684 22.4642 19.4357C22.2285 19.7029 22.0533 20.0119 21.9491 20.3439C21.845 20.676 21.8141 21.0242 21.8583 21.3677C21.9025 21.7112 22.0208 22.0427 22.2062 22.3424L23.4486 24.3438H19.9375C19.5395 24.344 19.15 24.4516 18.8161 24.6535C18.4823 24.8554 18.2182 25.143 18.0558 25.4816C17.8935 25.8203 17.8397 26.1954 17.9011 26.5619C17.9624 26.9283 18.1363 27.2704 18.4016 27.5469C18.0625 27.8988 17.875 28.3551 17.875 28.8281C17.875 29.3011 18.0625 29.7574 18.4016 30.1094C18.0625 30.4613 17.875 30.9176 17.875 31.3906C17.875 31.8636 18.0625 32.3199 18.4016 32.6719C18.1363 32.9483 17.9624 33.2904 17.9011 33.6569C17.8397 34.0233 17.8935 34.3985 18.0558 34.7371C18.2182 35.0757 18.4823 35.3634 18.8161 35.5653C19.15 35.7672 19.5395 35.8747 19.9375 35.875H29.5625C29.7448 35.875 29.9197 35.8075 30.0486 35.6874C30.1776 35.5672 30.25 35.4043 30.25 35.2344C30.25 35.0645 30.1776 34.9015 30.0486 34.7814C29.9197 34.6612 29.7448 34.5937 29.5625 34.5937H19.9375C19.7552 34.5937 19.5803 34.5263 19.4514 34.4061C19.3224 34.286 19.25 34.123 19.25 33.9531C19.25 33.7832 19.3224 33.6203 19.4514 33.5001C19.5803 33.38 19.7552 33.3125 19.9375 33.3125C20.1198 33.3125 20.2947 33.245 20.4236 33.1249C20.5526 33.0047 20.625 32.8418 20.625 32.6719C20.625 32.502 20.5526 32.339 20.4236 32.2189C20.2947 32.0987 20.1198 32.0312 19.9375 32.0312C19.7552 32.0312 19.5803 31.9638 19.4514 31.8436C19.3224 31.7235 19.25 31.5605 19.25 31.3906C19.25 31.2207 19.3224 31.0578 19.4514 30.9376C19.5803 30.8175 19.7552 30.75 19.9375 30.75C20.1198 30.75 20.2947 30.6825 20.4236 30.5624C20.5526 30.4422 20.625 30.2793 20.625 30.1094C20.625 29.9395 20.5526 29.7765 20.4236 29.6564C20.2947 29.5362 20.1198 29.4688 19.9375 29.4688C19.7552 29.4688 19.5803 29.4013 19.4514 29.2811C19.3224 29.161 19.25 28.998 19.25 28.8281C19.25 28.6582 19.3224 28.4953 19.4514 28.3751C19.5803 28.255 19.7552 28.1875 19.9375 28.1875C20.1198 28.1875 20.2947 28.12 20.4236 27.9999C20.5526 27.8797 20.625 27.7168 20.625 27.5469C20.625 27.377 20.5526 27.214 20.4236 27.0939C20.2947 26.9737 20.1198 26.9063 19.9375 26.9063C19.7552 26.9063 19.5803 26.8388 19.4514 26.7186C19.3224 26.5985 19.25 26.4355 19.25 26.2656C19.25 26.0957 19.3224 25.9328 19.4514 25.8126C19.5803 25.6925 19.7552 25.625 19.9375 25.625H24.6393C24.76 25.625 24.8785 25.5954 24.983 25.5392C25.0876 25.4829 25.1743 25.4021 25.2347 25.3047C25.295 25.2073 25.3268 25.0968 25.3268 24.9844C25.3268 24.8719 25.295 24.7615 25.2347 24.6641L23.3997 21.7018C23.3069 21.552 23.2477 21.3863 23.2255 21.2145C23.2033 21.0428 23.2186 20.8687 23.2706 20.7026C23.3226 20.5366 23.4101 20.382 23.5279 20.2483C23.6456 20.1146 23.7913 20.0046 23.9559 19.9247C24.1117 19.8551 24.2901 19.8434 24.4547 19.8921C24.6194 19.9408 24.758 20.0462 24.8421 20.1867L26.8269 23.3899C26.8731 23.4646 26.9348 23.5299 27.0084 23.5821L29.7371 25.4975C29.8561 25.5807 30.0009 25.6256 30.1496 25.6256H31.625V36.5156C31.625 36.6855 31.6974 36.8485 31.8264 36.9686C31.9553 37.0888 32.1302 37.1562 32.3125 37.1562H41.9375C42.1198 37.1562 42.2947 37.0888 42.4236 36.9686C42.5526 36.8485 42.625 36.6855 42.625 36.5156C42.625 36.3457 42.5526 36.1828 42.4236 36.0626C42.2947 35.9425 42.1198 35.875 41.9375 35.875Z" fill="#214E41"/>
<path d="M36.4375 27.5469C36.8172 27.5469 37.125 27.2601 37.125 26.9062C37.125 26.5524 36.8172 26.2656 36.4375 26.2656C36.0578 26.2656 35.75 26.5524 35.75 26.9062C35.75 27.2601 36.0578 27.5469 36.4375 27.5469Z" fill="#214E41"/>
<path d="M39.1875 27.5469C39.5672 27.5469 39.875 27.2601 39.875 26.9062C39.875 26.5524 39.5672 26.2656 39.1875 26.2656C38.8078 26.2656 38.5 26.5524 38.5 26.9062C38.5 27.2601 38.8078 27.5469 39.1875 27.5469Z" fill="#214E41"/>
<path d="M23.4829 10.7285C23.4433 10.6148 23.3703 10.5137 23.2723 10.4366C23.1742 10.3595 23.055 10.3095 22.928 10.2923L21.2877 10.07L20.5562 8.68557C20.493 8.58568 20.4029 8.50288 20.2949 8.44535C20.1869 8.38783 20.0646 8.35757 19.9402 8.35757C19.8157 8.35757 19.6935 8.38783 19.5854 8.44535C19.4774 8.50288 19.3873 8.58568 19.3242 8.68557L18.5899 10.07L16.9495 10.2923C16.8226 10.3094 16.7033 10.3594 16.6052 10.4365C16.5071 10.5135 16.4341 10.6146 16.3945 10.7284C16.3548 10.8421 16.3501 10.9639 16.3809 11.0799C16.4117 11.196 16.4767 11.3017 16.5687 11.3852L17.756 12.4633L17.4755 13.9855C17.4538 14.1033 17.468 14.2244 17.5163 14.3351C17.5646 14.4458 17.6453 14.5417 17.7491 14.612C17.8528 14.6822 17.9756 14.724 18.1036 14.7326C18.2315 14.7412 18.3595 14.7163 18.473 14.6607L19.9374 13.9419L21.4045 14.6607C21.5181 14.7163 21.6461 14.7412 21.774 14.7326C21.9019 14.724 22.0247 14.6822 22.1285 14.612C22.2323 14.5417 22.3129 14.4458 22.3613 14.3351C22.4096 14.2244 22.4238 14.1033 22.4021 13.9855L22.1216 12.4633L23.3062 11.3852C23.3985 11.302 23.464 11.1964 23.4952 11.0804C23.5264 10.9643 23.5222 10.8424 23.4829 10.7285ZM20.8999 11.7804C20.8201 11.853 20.7604 11.9426 20.726 12.0415C20.6916 12.1404 20.6836 12.2456 20.7026 12.348L20.8085 12.9246L20.2585 12.653C20.1597 12.6045 20.0497 12.5791 19.9381 12.5791C19.8265 12.5791 19.7165 12.6045 19.6177 12.653L19.0677 12.9246L19.1736 12.348C19.1926 12.2456 19.1846 12.1404 19.1502 12.0415C19.1158 11.9426 19.0561 11.853 18.9763 11.7804L18.5274 11.3736L19.1461 11.2897C19.2564 11.2748 19.3612 11.2351 19.4514 11.174C19.5415 11.113 19.6145 11.0324 19.6638 10.9393L19.9388 10.4159L20.2138 10.9393C20.2631 11.0324 20.336 11.113 20.4262 11.174C20.5164 11.2351 20.6212 11.2748 20.7315 11.2897L21.3502 11.3736L20.8999 11.7804Z" fill="#214E41"/>
<path d="M31.0453 13.9317C31.0058 13.818 30.9328 13.7168 30.8348 13.6398C30.7367 13.5627 30.6175 13.5127 30.4905 13.4954L28.8502 13.2731L28.1187 11.8887C28.0555 11.7888 27.9654 11.706 27.8574 11.6485C27.7494 11.591 27.6271 11.5607 27.5027 11.5607C27.3782 11.5607 27.256 11.591 27.1479 11.6485C27.0399 11.706 26.9498 11.7888 26.8867 11.8887L26.1524 13.2731L24.512 13.4954C24.3851 13.5126 24.2658 13.5626 24.1677 13.6396C24.0696 13.7167 23.9966 13.8178 23.957 13.9315C23.9173 14.0452 23.9126 14.167 23.9434 14.2831C23.9742 14.3992 24.0392 14.5049 24.1312 14.5883L25.3185 15.6665L25.038 17.1886C25.0163 17.3064 25.0305 17.4275 25.0788 17.5383C25.1271 17.649 25.2078 17.7449 25.3116 17.8151C25.4153 17.8854 25.5381 17.9272 25.6661 17.9358C25.794 17.9444 25.922 17.9195 26.0355 17.8638L27.4999 17.1451L28.967 17.8638C29.0806 17.9195 29.2085 17.9444 29.3365 17.9358C29.4644 17.9272 29.5872 17.8854 29.691 17.8151C29.7948 17.7449 29.8754 17.649 29.9238 17.5383C29.9721 17.4275 29.9863 17.3064 29.9646 17.1886L29.6841 15.6665L30.8687 14.5883C30.961 14.5052 31.0265 14.3996 31.0577 14.2835C31.0889 14.1675 31.0846 14.0456 31.0453 13.9317ZM28.4624 14.9836C28.3826 15.0562 28.3229 15.1458 28.2885 15.2447C28.2541 15.3436 28.2461 15.4488 28.2651 15.5512L28.371 16.1277L27.821 15.8561C27.7222 15.8076 27.6122 15.7823 27.5006 15.7823C27.389 15.7823 27.279 15.8076 27.1802 15.8561L26.6302 16.1277L26.7361 15.5512C26.7551 15.4488 26.7471 15.3436 26.7127 15.2447C26.6783 15.1458 26.6186 15.0562 26.5388 14.9836L26.0898 14.5768L26.7086 14.4929C26.8189 14.4779 26.9237 14.4382 27.0139 14.3772C27.104 14.3162 27.1769 14.2356 27.2263 14.1424L27.5013 13.6191L27.7763 14.1424C27.8256 14.2356 27.8985 14.3162 27.9887 14.3772C28.0789 14.4382 28.1837 14.4779 28.294 14.4929L28.9127 14.5768L28.4624 14.9836Z" fill="#214E41"/>
<path d="M15.9203 13.9317C15.8808 13.818 15.8078 13.7168 15.7098 13.6398C15.6117 13.5627 15.4925 13.5127 15.3655 13.4954L13.7252 13.2731L12.9937 11.8887C12.9305 11.7888 12.8404 11.706 12.7324 11.6485C12.6244 11.591 12.5021 11.5607 12.3777 11.5607C12.2532 11.5607 12.131 11.591 12.0229 11.6485C11.9149 11.706 11.8248 11.7888 11.7617 11.8887L11.0274 13.2731L9.38704 13.4954C9.26006 13.5126 9.14077 13.5626 9.04267 13.6396C8.94458 13.7167 8.87158 13.8178 8.83195 13.9315C8.79232 14.0452 8.78764 14.167 8.81842 14.2831C8.84921 14.3992 8.91424 14.5049 9.00616 14.5883L10.1935 15.6665L9.91298 17.1886C9.89131 17.3064 9.90545 17.4275 9.9538 17.5383C10.0021 17.649 10.0828 17.7449 10.1866 17.8151C10.2903 17.8854 10.4131 17.9272 10.5411 17.9358C10.669 17.9444 10.797 17.9195 10.9105 17.8638L12.3749 17.1451L13.842 17.8638C13.9556 17.9195 14.0836 17.9444 14.2115 17.9358C14.3394 17.9272 14.4622 17.8854 14.566 17.8151C14.6698 17.7449 14.7504 17.649 14.7988 17.5383C14.8471 17.4275 14.8613 17.3064 14.8396 17.1886L14.5591 15.6665L15.7437 14.5883C15.836 14.5052 15.9015 14.3996 15.9327 14.2835C15.9639 14.1675 15.9596 14.0456 15.9203 13.9317ZM13.3374 14.9836C13.2576 15.0562 13.1979 15.1458 13.1635 15.2447C13.1291 15.3436 13.1211 15.4488 13.1401 15.5512L13.246 16.1277L12.696 15.8561C12.5972 15.8076 12.4872 15.7823 12.3756 15.7823C12.264 15.7823 12.154 15.8076 12.0552 15.8561L11.5052 16.1277L11.6111 15.5512C11.6301 15.4488 11.6221 15.3436 11.5877 15.2447C11.5533 15.1458 11.4936 15.0562 11.4138 14.9836L10.9649 14.5768L11.5836 14.4929C11.6939 14.4779 11.7987 14.4382 11.8889 14.3772C11.979 14.3162 12.0519 14.2356 12.1013 14.1424L12.3763 13.6191L12.6513 14.1424C12.7006 14.2356 12.7735 14.3162 12.8637 14.3772C12.9539 14.4382 13.0587 14.4779 13.169 14.4929L13.7877 14.5768L13.3374 14.9836Z" fill="#214E41"/>
<path d="M28.1875 7.04688C28.1875 6.87697 28.1151 6.71403 27.9861 6.59388C27.8572 6.47374 27.6823 6.40625 27.5 6.40625H12.375C12.1927 6.40625 12.0178 6.47374 11.8889 6.59388C11.7599 6.71403 11.6875 6.87697 11.6875 7.04688C11.6875 7.21678 11.7599 7.37972 11.8889 7.49987C12.0178 7.62001 12.1927 7.6875 12.375 7.6875H27.5C27.6823 7.6875 27.8572 7.62001 27.9861 7.49987C28.1151 7.37972 28.1875 7.21678 28.1875 7.04688Z" fill="#214E41"/>
<path d="M14.4375 26.9062C14.4375 26.7363 14.3651 26.5734 14.2361 26.4533C14.1072 26.3331 13.9323 26.2656 13.75 26.2656H10.3125C10.1302 26.2656 9.9553 26.3331 9.82636 26.4533C9.69743 26.5734 9.625 26.7363 9.625 26.9062V30.1094C9.625 30.2793 9.69743 30.4422 9.82636 30.5624C9.9553 30.6825 10.1302 30.75 10.3125 30.75H13.75C13.9323 30.75 14.1072 30.6825 14.2361 30.5624C14.3651 30.4422 14.4375 30.2793 14.4375 30.1094V26.9062ZM13.0625 29.4688H11V27.5469H13.0625V29.4688Z" fill="#214E41"/>
<path d="M10.3125 37.1562H13.75C13.9323 37.1562 14.1072 37.0888 14.2361 36.9686C14.3651 36.8485 14.4375 36.6855 14.4375 36.5156V33.3125C14.4375 33.1426 14.3651 32.9796 14.2361 32.8595C14.1072 32.7394 13.9323 32.6719 13.75 32.6719H10.3125C10.1302 32.6719 9.9553 32.7394 9.82636 32.8595C9.69743 32.9796 9.625 33.1426 9.625 33.3125V36.5156C9.625 36.6855 9.69743 36.8485 9.82636 36.9686C9.9553 37.0888 10.1302 37.1562 10.3125 37.1562ZM11 33.9531H13.0625V35.875H11V33.9531Z" fill="#214E41"/>
<path d="M16.3412 20.09C16.2834 20.0252 16.2124 19.9717 16.1324 19.9325C16.0523 19.8933 15.9648 19.8693 15.8748 19.8616C15.7847 19.854 15.6939 19.863 15.6076 19.8881C15.5213 19.9133 15.4412 19.954 15.3718 20.008L11.7281 22.8364L10.7965 21.969C10.6668 21.8523 10.4932 21.7877 10.3129 21.7892C10.1327 21.7906 9.96022 21.858 9.83275 21.9768C9.70528 22.0955 9.63298 22.2562 9.63141 22.4242C9.62985 22.5922 9.69914 22.754 9.82438 22.8748L10.7154 23.7031H10.3125C10.1302 23.7031 9.9553 23.7706 9.82636 23.8908C9.69743 24.0109 9.625 24.1739 9.625 24.3438C9.625 24.5137 9.69743 24.6766 9.82636 24.7967C9.9553 24.9169 10.1302 24.9844 10.3125 24.9844H13.75C13.9323 24.9844 14.1072 24.9169 14.2361 24.7967C14.3651 24.6766 14.4375 24.5137 14.4375 24.3438C14.4375 24.1739 14.3651 24.0109 14.2361 23.8908C14.1072 23.7706 13.9323 23.7031 13.75 23.7031H12.7614L16.2532 20.992C16.3932 20.8832 16.4811 20.7271 16.4976 20.558C16.5141 20.3888 16.4578 20.2205 16.3412 20.09Z" fill="#214E41"/>
</svg>
