<svg width="40" height="40" viewBox="0 0 40 40" fill="none" xmlns="http://www.w3.org/2000/svg">
<path d="M34.375 6.25C34.5408 6.25 34.6997 6.18415 34.8169 6.06694C34.9342 5.94973 35 5.79076 35 5.625V4.375C34.9991 3.54648 34.6695 2.75217 34.0837 2.16632C33.4978 1.58047 32.7035 1.25093 31.875 1.25H9.375C8.54648 1.25093 7.75217 1.58047 7.16632 2.16632C6.58047 2.75217 6.25093 3.54648 6.25 4.375V32.5H7.5V4.375C7.50058 3.8779 7.69831 3.40132 8.04981 3.04981C8.40132 2.69831 8.8779 2.50058 9.375 2.5H29.3765C28.9692 3.04018 28.7492 3.69848 28.75 4.375V35.625C28.75 36.1223 28.5525 36.5992 28.2008 36.9508C27.8492 37.3025 27.3723 37.5 26.875 37.5C26.3777 37.5 25.9008 37.3025 25.5492 36.9508C25.1975 36.5992 25 36.1223 25 35.625V34.375C25 34.2092 24.9342 34.0503 24.8169 33.9331C24.6997 33.8158 24.5408 33.75 24.375 33.75H1.875C1.70924 33.75 1.55027 33.8158 1.43306 33.9331C1.31585 34.0503 1.25 34.2092 1.25 34.375V35.625C1.25093 36.4535 1.58047 37.2478 2.16632 37.8337C2.75217 38.4195 3.54648 38.7491 4.375 38.75H26.875C27.7035 38.7491 28.4978 38.4195 29.0837 37.8337C29.6695 37.2478 29.9991 36.4535 30 35.625V6.25H34.375ZM4.375 37.5C3.87789 37.4994 3.4013 37.3017 3.04979 36.9502C2.69828 36.5987 2.50056 36.1221 2.5 35.625V35H23.75V35.625C23.7492 36.3015 23.9692 36.9598 24.3765 37.5H4.375ZM31.875 2.5C32.3721 2.50058 32.8487 2.69831 33.2002 3.04981C33.5517 3.40132 33.7494 3.8779 33.75 4.375V5H30V4.375C30.0006 3.8779 30.1983 3.40132 30.5498 3.04981C30.9013 2.69831 31.3779 2.50058 31.875 2.5Z" fill="#214E41"/>
<path d="M14.3749 8.12504C14.3716 8.37474 14.427 8.62173 14.5366 8.84612C14.6462 9.0705 14.807 9.26601 15.006 9.41691C14.9753 9.66417 15.0015 9.91517 15.0825 10.1508C15.1635 10.3864 15.2971 10.6005 15.4733 10.7766C15.6495 10.9528 15.8635 11.0865 16.0991 11.1675C16.3348 11.2484 16.5858 11.2746 16.833 11.2439C16.9862 11.4405 17.1821 11.5995 17.406 11.7088C17.6299 11.8182 17.8757 11.875 18.1249 11.875C18.374 11.875 18.6199 11.8182 18.8438 11.7088C19.0676 11.5995 19.2636 11.4405 19.4168 11.2439C19.664 11.2746 19.915 11.2485 20.1507 11.1675C20.3863 11.0865 20.6003 10.9529 20.7765 10.7767C20.9527 10.6005 21.0864 10.3864 21.1673 10.1508C21.2483 9.91518 21.2745 9.66418 21.2438 9.41691C21.4403 9.26377 21.5993 9.0678 21.7087 8.84393C21.818 8.62006 21.8749 8.37419 21.8749 8.12504C21.8749 7.87589 21.818 7.63002 21.7087 7.40615C21.5993 7.18228 21.4403 6.98631 21.2438 6.83316C21.2745 6.5859 21.2483 6.3349 21.1673 6.09927C21.0864 5.86364 20.9527 5.64958 20.7765 5.4734C20.6003 5.29722 20.3863 5.16356 20.1507 5.08259C19.915 5.00161 19.664 4.97546 19.4168 5.00613C19.2636 4.8096 19.0676 4.65061 18.8438 4.54124C18.6199 4.43188 18.374 4.37504 18.1249 4.37504C17.8757 4.37504 17.6299 4.43188 17.406 4.54124C17.1821 4.65061 16.9862 4.8096 16.833 5.00613C16.5858 4.97546 16.3348 5.00161 16.0991 5.08259C15.8635 5.16356 15.6494 5.29722 15.4733 5.4734C15.2971 5.64958 15.1634 5.86364 15.0824 6.09927C15.0015 6.3349 14.9753 6.5859 15.006 6.83316C14.807 6.98406 14.6462 7.17958 14.5366 7.40396C14.427 7.62835 14.3716 7.87533 14.3749 8.12504ZM15.9148 7.76223C16.0124 7.74017 16.1033 7.695 16.1798 7.63053C16.2563 7.56605 16.3162 7.48416 16.3545 7.39172C16.3927 7.29928 16.4083 7.199 16.3997 7.09932C16.3912 6.99964 16.3589 6.90346 16.3054 6.81887C16.2604 6.74749 16.2409 6.66292 16.2503 6.57904C16.2597 6.49516 16.2973 6.41696 16.357 6.35728C16.4167 6.29761 16.4949 6.26 16.5787 6.25065C16.6626 6.2413 16.7472 6.26075 16.8186 6.30582C16.9032 6.35924 16.9993 6.39158 17.099 6.40011C17.1987 6.40864 17.299 6.39311 17.3914 6.35484C17.4839 6.31656 17.5657 6.25665 17.6302 6.18015C17.6947 6.10364 17.7399 6.01278 17.7619 5.91519C17.7805 5.83286 17.8266 5.7593 17.8925 5.7066C17.9584 5.6539 18.0403 5.62519 18.1247 5.62519C18.2091 5.62519 18.291 5.6539 18.357 5.7066C18.4229 5.7593 18.4689 5.83286 18.4875 5.91519C18.5096 6.01278 18.5548 6.10364 18.6192 6.18015C18.6837 6.25665 18.7656 6.31656 18.8581 6.35484C18.9505 6.39311 19.0508 6.40864 19.1504 6.40011C19.2501 6.39158 19.3463 6.35924 19.4309 6.30582C19.5023 6.26075 19.5868 6.2413 19.6707 6.25065C19.7546 6.26 19.8328 6.29761 19.8925 6.35728C19.9522 6.41696 19.9898 6.49516 19.9992 6.57904C20.0085 6.66292 19.9891 6.74749 19.944 6.81887C19.8906 6.90346 19.8583 6.99964 19.8497 7.09932C19.8412 7.199 19.8567 7.29928 19.895 7.39172C19.9333 7.48416 19.9932 7.56605 20.0697 7.63053C20.1462 7.695 20.2371 7.74017 20.3347 7.76223C20.417 7.78082 20.4905 7.82687 20.5432 7.8928C20.5959 7.95874 20.6247 8.04063 20.6247 8.12504C20.6247 8.20944 20.5959 8.29134 20.5432 8.35727C20.4905 8.42321 20.417 8.46925 20.3347 8.48785C20.2371 8.50991 20.1462 8.55508 20.0697 8.61955C19.9932 8.68402 19.9333 8.76592 19.895 8.85836C19.8567 8.9508 19.8412 9.05107 19.8497 9.15076C19.8583 9.25044 19.8906 9.34662 19.944 9.43121C19.9891 9.50259 20.0086 9.58718 19.9992 9.67108C19.9899 9.75499 19.9522 9.83321 19.8925 9.8929C19.8328 9.95258 19.7546 9.99018 19.6707 9.99952C19.5868 10.0089 19.5022 9.98937 19.4308 9.94426C19.3462 9.89085 19.2501 9.85853 19.1504 9.85001C19.0507 9.84149 18.9505 9.85701 18.858 9.89529C18.7656 9.93356 18.6837 9.99347 18.6192 10.07C18.5548 10.1465 18.5096 10.2373 18.4875 10.3349C18.4689 10.4172 18.4229 10.4908 18.357 10.5435C18.291 10.5962 18.2091 10.6249 18.1247 10.6249C18.0403 10.6249 17.9584 10.5962 17.8925 10.5435C17.8266 10.4908 17.7805 10.4172 17.7619 10.3349C17.7399 10.2373 17.6947 10.1465 17.6302 10.07C17.5658 9.99347 17.4839 9.93356 17.3914 9.89529C17.299 9.85701 17.1988 9.84149 17.0991 9.85001C16.9994 9.85853 16.9032 9.89085 16.8186 9.94426C16.7473 9.98937 16.6627 10.0089 16.5788 9.99952C16.4949 9.99018 16.4166 9.95258 16.3569 9.8929C16.2972 9.83321 16.2596 9.75499 16.2503 9.67108C16.2409 9.58718 16.2604 9.50259 16.3054 9.43121C16.3589 9.34662 16.3912 9.25044 16.3997 9.15076C16.4083 9.05107 16.3927 8.9508 16.3545 8.85836C16.3162 8.76592 16.2563 8.68402 16.1798 8.61955C16.1033 8.55508 16.0124 8.50991 15.9148 8.48785C15.8325 8.46925 15.7589 8.42321 15.7062 8.35727C15.6535 8.29134 15.6248 8.20944 15.6248 8.12504C15.6248 8.04063 15.6535 7.95874 15.7062 7.8928C15.7589 7.82687 15.8325 7.78082 15.9148 7.76223Z" fill="#214E41"/>
<path d="M15 15.625H21.25V16.875H15V15.625Z" fill="#214E41"/>
<path d="M16.875 13.125H23.125V14.375H16.875V13.125Z" fill="#214E41"/>
<path d="M13.125 13.125H15.625V14.375H13.125V13.125Z" fill="#214E41"/>
<path d="M11.875 18.75H26.875V20H11.875V18.75Z" fill="#214E41"/>
<path d="M9.375 18.75H10.625V20H9.375V18.75Z" fill="#214E41"/>
<path d="M11.875 21.25H21.875V22.5H11.875V21.25Z" fill="#214E41"/>
<path d="M23.125 21.25H26.875V22.5H23.125V21.25Z" fill="#214E41"/>
<path d="M11.875 23.75H26.875V25H11.875V23.75Z" fill="#214E41"/>
<path d="M9.375 23.75H10.625V25H9.375V23.75Z" fill="#214E41"/>
<path d="M11.875 26.25H15.625V27.5H11.875V26.25Z" fill="#214E41"/>
<path d="M16.875 26.25H26.875V27.5H16.875V26.25Z" fill="#214E41"/>
<path d="M11.875 28.75H21.875V30H11.875V28.75Z" fill="#214E41"/>
<path d="M9.375 28.75H10.625V30H9.375V28.75Z" fill="#214E41"/>
<path d="M11.875 31.25H26.875V32.5H11.875V31.25Z" fill="#214E41"/>
<path d="M23.125 28.75H26.875V30H23.125V28.75Z" fill="#214E41"/>
<path d="M36.875 11.25H36.25C36.25 10.587 35.9866 9.95107 35.5178 9.48223C35.0489 9.01339 34.413 8.75 33.75 8.75C33.087 8.75 32.4511 9.01339 31.9822 9.48223C31.5134 9.95107 31.25 10.587 31.25 11.25V31.25C31.25 31.347 31.2728 31.4427 31.3165 31.5293H31.316L33.191 35.2793C33.2429 35.3831 33.3227 35.4704 33.4214 35.5314C33.5202 35.5924 33.6339 35.6247 33.75 35.6247C33.8661 35.6247 33.9798 35.5924 34.0786 35.5314C34.1773 35.4704 34.2571 35.3831 34.309 35.2793L36.184 31.5293H36.1835C36.2272 31.4427 36.25 31.347 36.25 31.25V12.5H36.875C37.0407 12.5002 37.1996 12.5661 37.3167 12.6833C37.4339 12.8004 37.4998 12.9593 37.5 13.125V20H38.75V13.125C38.7494 12.6279 38.5517 12.1513 38.2002 11.7998C37.8487 11.4483 37.3721 11.2506 36.875 11.25ZM33.75 10C34.0814 10.0004 34.3991 10.1322 34.6335 10.3666C34.8678 10.6009 34.9996 10.9186 35 11.25H32.5C32.5004 10.9186 32.6322 10.6009 32.8665 10.3666C33.1009 10.1322 33.4186 10.0004 33.75 10ZM35 30.625H32.5V21.25H35V30.625ZM35 20H32.5V18.75H35V20ZM33.75 33.6024L32.8863 31.875H34.6137L33.75 33.6024ZM35 17.5H32.5V12.5H35V17.5Z" fill="#214E41"/>
</svg>
