<svg width="26" height="26" viewBox="0 0 26 26" fill="none" xmlns="http://www.w3.org/2000/svg">
<path d="M22.1924 3.80763C19.737 1.35225 16.4724 0 12.9999 0C9.52748 0 6.263 1.35225 3.80758 3.80763C1.35225 6.263 0 9.52758 0 13C0 16.4724 1.35225 19.737 3.80763 22.1924C6.263 24.6477 9.52758 26 13 26C15.1541 26 17.2884 25.462 19.1719 24.4442C19.5519 24.2389 19.6935 23.7644 19.4881 23.3843C19.2829 23.0044 19.1801 23.179 18.8 23.3843C17.1441 24.2791 15.6765 24.8529 13 24.8529C6.1177 25.2353 1.14631 19.3058 1.14631 13.0001C1.14631 6.69429 6.69429 1.14706 13 1.14706C19.3058 1.14706 24.8529 6.31194 24.8529 12.6176C24.8529 15.6765 24.4135 16.1632 24.0881 16.8235C23.7996 17.409 22.6418 18.7353 21.7278 18.7353C20.5446 18.7353 19.5821 17.3759 19.5821 16.1928V7.94645C19.5821 7.51456 19.2319 7.16437 18.8 7.16437C18.3681 7.16437 18.0179 7.51451 18.0179 7.94645V8.74555C16.8096 7.32261 15.0086 6.41789 12.9999 6.41789C9.37061 6.41789 6.41784 9.37061 6.41784 13C6.41784 16.6293 9.37051 19.5821 12.9999 19.5821C15.0739 19.5821 16.9265 18.6177 18.1338 17.1141C18.5445 18.7155 20.0001 19.9026 21.7278 19.9026C23.2365 19.9026 24.5919 18.7542 25.1509 17.6198C25.627 16.6537 25.9999 14.6245 25.9999 13.0001C25.9999 9.52758 24.6477 6.263 22.1924 3.80763ZM13 18.3529C9.94118 18.3529 7.64631 15.7669 7.64631 13C7.64631 10.2331 9.85073 7.64706 12.6176 7.64706C15.3846 7.64706 18.1338 9.17647 18.0179 13C17.902 16.8235 15.7669 18.3529 13 18.3529Z" fill="#214E41"/>
</svg>
