<svg width="27" height="27" viewBox="0 0 27 27" fill="none" xmlns="http://www.w3.org/2000/svg">
<g clip-path="url(#clip0)">
<path d="M18.6594 25.3336C18.4435 25.3075 18.2309 25.2585 18.0254 25.1872C14.1066 23.8827 10.6357 21.4982 8.01224 18.3081C5.45269 15.1192 3.87209 11.2569 3.46169 7.18847C3.41644 6.68212 3.50226 6.17264 3.7109 5.70906C3.91953 5.24547 4.24396 4.84338 4.65297 4.54147L7.5139 2.37134C7.65976 2.26271 7.8269 2.18605 8.0044 2.14637C8.18189 2.1067 8.36576 2.1049 8.544 2.1411C8.72835 2.18257 8.90137 2.26393 9.0509 2.37945C9.20043 2.49496 9.32284 2.64184 9.40952 2.80974L12.0616 7.9353C12.1604 8.13369 12.1928 8.35853 12.1542 8.57673C12.1156 8.79494 12.0079 8.99498 11.8471 9.14743L10.0076 10.8844C10.4822 12.3812 11.2401 13.7729 12.2402 14.9836C13.2283 16.2325 14.4467 17.2804 15.8295 18.0704L18.0142 16.7194C18.1976 16.6065 18.411 16.5522 18.6261 16.5636C18.8411 16.575 19.0476 16.6516 19.2181 16.7831L23.6982 20.4895C23.8529 20.6085 23.9787 20.7609 24.0661 20.9354C24.1536 21.11 24.2004 21.302 24.2031 21.4971C24.2057 21.6923 24.1642 21.8855 24.0816 22.0624C23.999 22.2392 23.8775 22.3951 23.7261 22.5182L20.9286 24.7024C20.6107 24.952 20.2465 25.1363 19.8571 25.2446C19.4676 25.3529 19.0606 25.3832 18.6594 25.3336ZM8.29129 3.40082L5.43036 5.57095C5.20041 5.73958 5.01832 5.96516 4.90198 6.2255C4.78565 6.48584 4.73908 6.77198 4.76686 7.05578C5.14448 10.8726 6.61941 14.4983 9.01339 17.4948C11.4823 20.4962 14.7487 22.7392 18.4364 23.9657C18.7155 24.0592 19.0134 24.0821 19.3034 24.0321C19.5935 23.9822 19.8666 23.8611 20.0983 23.6797L22.8958 21.4956L18.5698 17.9181L16.2229 19.3738C16.1331 19.4291 16.0311 19.4616 15.9259 19.4685C15.8206 19.4754 15.7153 19.4564 15.6191 19.4133C13.915 18.5469 12.4235 17.3147 11.2511 15.8048C10.0252 14.3559 9.14222 12.6489 8.66812 10.8111C8.65184 10.7013 8.66409 10.5892 8.70369 10.4855C8.74329 10.3818 8.80891 10.2901 8.89423 10.2191L10.8732 8.34878L8.29129 3.40082Z" fill="#214E41"/>
</g>
<defs>
<clipPath id="clip0">
<rect width="23.2846" height="23.2846" fill="white" transform="translate(3.53094 0.468994) rotate(6.7236)"/>
</clipPath>
</defs>
</svg>
