<svg width="34" height="33" viewBox="0 0 34 33" fill="none" xmlns="http://www.w3.org/2000/svg">
<path d="M17 3.60938C14.6748 3.60997 12.3905 4.20288 10.3754 5.32885C8.36031 6.45482 6.68498 8.07441 5.51686 10.0257C4.34875 11.9771 3.72878 14.1918 3.7189 16.4486C3.70902 18.7054 4.30959 20.9251 5.46058 22.886L4.26461 26.9486C4.18655 27.2139 4.183 27.4945 4.2543 27.7616C4.32561 28.0286 4.46919 28.2723 4.67016 28.4673C4.87113 28.6623 5.12219 28.8017 5.39731 28.8709C5.67243 28.9401 5.96161 28.9366 6.23488 28.8608L10.4207 27.7002C12.1879 28.6781 14.163 29.2489 16.1935 29.3687C18.2239 29.4885 20.2557 29.154 22.1319 28.391C24.0081 27.628 25.6787 26.457 27.0148 24.9681C28.3509 23.4793 29.3168 21.7125 29.838 19.804C30.3592 17.8955 30.4218 15.8963 30.021 13.9606C29.6201 12.0249 28.7665 10.2044 27.526 8.6396C26.2856 7.07477 24.6913 5.80741 22.8663 4.93526C21.0413 4.06311 19.0342 3.60949 17 3.60938ZM17 28.3594C14.8055 28.3608 12.6513 27.7878 10.7642 26.7007C10.702 26.6648 10.6328 26.6416 10.561 26.6325C10.4892 26.6235 10.4162 26.6288 10.3466 26.6481L5.94296 27.8693C5.85187 27.8945 5.75549 27.8956 5.6638 27.8726C5.57211 27.8495 5.48844 27.803 5.42147 27.738C5.35449 27.673 5.30665 27.5918 5.28289 27.5028C5.25913 27.4138 5.26032 27.3202 5.28633 27.2318L6.54433 22.9578C6.56423 22.8902 6.56968 22.8194 6.56036 22.7497C6.55105 22.6801 6.52715 22.6129 6.49015 22.5525C5.11392 20.3021 4.54318 17.6731 4.86684 15.075C5.1905 12.4769 6.39038 10.0557 8.27957 8.18844C10.1688 6.32121 12.6412 5.11285 15.3117 4.7516C17.9822 4.39034 20.7008 4.89647 23.044 6.19114C25.3873 7.48581 27.2235 9.49633 28.2668 11.9095C29.3101 14.3227 29.5018 17.003 28.812 19.5329C28.1222 22.0628 26.5898 24.3003 24.4533 25.8968C22.3168 27.4932 19.6963 28.3591 17 28.3594ZM23.7086 18.8903L20.9913 17.3833C20.7454 17.2471 20.4667 17.1768 20.1836 17.1798C19.9006 17.1827 19.6235 17.2587 19.3807 17.3999L17.5469 18.4678C16.4369 17.9219 15.5351 17.0466 14.9727 15.9692L16.073 14.1894C16.2185 13.9537 16.2967 13.6847 16.2997 13.41C16.3027 13.1353 16.2303 12.8647 16.09 12.6261L14.5374 9.98869C14.4106 9.77397 14.2277 9.59551 14.0072 9.4713C13.7866 9.3471 13.5362 9.28154 13.2812 9.28125C12.1569 9.28151 11.0785 9.71408 10.282 10.4843C9.48546 11.2544 9.03574 12.2995 9.03125 13.3908C9.02917 14.814 9.3162 16.2237 9.87591 17.5392C10.4356 18.8547 11.257 20.0502 12.2932 21.0573C13.3293 22.0645 14.5599 22.8634 15.9144 23.4086C17.269 23.9537 18.721 24.2343 20.1874 24.2344H20.2033C21.3276 24.23 22.4044 23.7936 23.198 23.0205C23.9915 22.2474 24.4372 21.2007 24.4375 20.1094C24.4372 19.8619 24.3697 19.6189 24.2417 19.4049C24.1137 19.1908 23.9299 19.0133 23.7086 18.8903ZM20.2018 23.2031H20.1875C18.8608 23.2031 17.5471 22.9493 16.3215 22.4561C15.0959 21.9629 13.9826 21.24 13.0451 20.3288C12.1076 19.4176 11.3644 18.336 10.858 17.1458C10.3516 15.9556 10.0919 14.6802 10.0937 13.3925C10.0974 12.5743 10.4349 11.7909 11.0322 11.2136C11.6296 10.6364 12.4383 10.3124 13.2812 10.3125C13.349 10.3126 13.4155 10.33 13.474 10.363C13.5326 10.3959 13.5812 10.4433 13.6149 10.5003L15.1674 13.1379C15.2142 13.2174 15.2384 13.3076 15.2374 13.3991C15.2364 13.4907 15.2103 13.5803 15.1619 13.6589L13.9148 15.676C13.8707 15.7473 13.845 15.828 13.84 15.911C13.8349 15.994 13.8506 16.077 13.8858 16.1529C14.5792 17.6507 15.8146 18.8496 17.3578 19.5226C17.4359 19.5567 17.5214 19.572 17.607 19.5671C17.6925 19.5622 17.7756 19.5373 17.8491 19.4945L19.9272 18.2841C20.0081 18.237 20.1005 18.2117 20.1949 18.2107C20.2892 18.2097 20.3822 18.2331 20.4641 18.2785L23.1815 19.7857C23.2402 19.8184 23.2891 19.8655 23.323 19.9223C23.357 19.9791 23.3749 20.0437 23.375 20.1094C23.3751 20.9275 23.0413 21.7124 22.4466 22.2922C21.8519 22.872 21.0448 23.1995 20.2018 23.2031Z" fill="#214E41"/>
</svg>
