<svg width="26" height="26" viewBox="0 0 26 26" fill="none" xmlns="http://www.w3.org/2000/svg">
<path d="M24.9146 7.79198C24.2191 6.20293 23.2268 4.78786 21.9656 3.58632C21.8027 3.43119 21.5451 3.43738 21.39 3.60029C21.2349 3.76309 21.2411 4.02076 21.4039 4.17579C23.8427 6.49909 25.1858 9.63295 25.1858 13C25.1858 19.7193 19.7193 25.1858 12.9999 25.1858C6.28062 25.1858 0.814176 19.7193 0.814176 13C0.814176 6.28073 6.28073 0.814176 13 0.814176C15.4546 0.814176 17.8207 1.54065 19.8424 2.91495C20.0283 3.04134 20.2815 2.99305 20.4079 2.80719C20.5343 2.62123 20.486 2.36803 20.3001 2.24164C18.1428 0.775176 15.6185 0 13 0C9.52758 0 6.263 1.3522 3.80763 3.80763C1.35225 6.263 0 9.52758 0 13C0 16.4724 1.35225 19.737 3.80763 22.1924C6.263 24.6478 9.52758 26 13 26C16.4724 26 19.737 24.6478 22.1924 22.1924C24.6477 19.737 26 16.4724 26 13C26 11.1895 25.6348 9.43729 24.9146 7.79198Z" fill="#214E41"/>
<path d="M18.9075 5.51241L11.0783 9.15703C10.8745 9.25189 10.7861 9.49412 10.8811 9.69796C10.976 9.90179 11.2181 9.9902 11.4219 9.89524L16.2515 7.64695L13.9035 9.54775L8.51526 13.9097L5.56812 12.6202L9.69796 10.6977C9.90179 10.6028 9.9901 10.3607 9.89519 10.1568C9.80033 9.95298 9.55805 9.86457 9.35437 9.95953L4.90898 12.029C4.67264 12.139 4.52345 12.3796 4.52944 12.6401C4.53528 12.895 4.68935 13.1245 4.92289 13.2266L8.21362 14.6663L9.1774 20.4489C9.23671 20.8065 9.72086 20.9083 9.91946 20.6051L12.6533 16.4323L17.8234 18.845C18.2376 19.0385 18.7306 18.7429 18.7573 18.2882L19.4857 5.90521C19.4864 5.89373 19.4864 5.88195 19.4861 5.87042C19.478 5.58224 19.1685 5.39176 18.9075 5.51241ZM9.64936 18.3285L9.01947 14.549L15.4366 9.35412L10.5252 14.8609C10.481 14.9104 10.4482 14.9728 10.433 15.0376L9.64936 18.3285ZM10.5142 18.2117L11.1094 15.7119L11.9079 16.0845L10.5142 18.2117ZM12.3587 15.3964L11.4971 14.9944L15.7357 10.242L15.1227 11.1778L12.3587 15.3964ZM17.9581 18.0095L13.1042 15.7443L18.5833 7.38147L17.9581 18.0095Z" fill="#214E41"/>
</svg>
