<svg width="21" height="21" viewBox="0 0 21 21" fill="none" xmlns="http://www.w3.org/2000/svg">
<path d="M19.6876 19.3594H17.3907V3.93749C17.3907 3.86163 17.3644 3.78812 17.3163 3.72945C17.2682 3.67079 17.2013 3.6306 17.1269 3.61572L4.00191 0.990721C3.95431 0.981199 3.90518 0.98236 3.85808 0.99412C3.81098 1.00588 3.76707 1.02794 3.72953 1.05872C3.69198 1.0895 3.66174 1.12823 3.64097 1.17211C3.6202 1.216 3.60943 1.26394 3.60944 1.31249V19.3594H1.31256C1.22554 19.3594 1.14208 19.3939 1.08054 19.4555C1.01901 19.517 0.984436 19.6005 0.984436 19.6875C0.984436 19.7745 1.01901 19.858 1.08054 19.9195C1.14208 19.981 1.22554 20.0156 1.31256 20.0156H19.6876C19.7746 20.0156 19.858 19.981 19.9196 19.9195C19.9811 19.858 20.0157 19.7745 20.0157 19.6875C20.0157 19.6005 19.9811 19.517 19.9196 19.4555C19.858 19.3939 19.7746 19.3594 19.6876 19.3594ZM16.7344 14.4375H4.26569V8.20311H16.7344V14.4375ZM16.7344 4.20651V7.54686H4.26569V1.71272L16.7344 4.20651ZM4.26569 15.0937H16.7344V19.3594H4.26569V15.0937Z" fill="#214E41"/>
<path d="M11.3203 10.664C11.3203 10.5017 11.2722 10.3431 11.1821 10.2082C11.0919 10.0733 10.9638 9.96819 10.8139 9.9061C10.664 9.84401 10.4991 9.82777 10.34 9.85942C10.1808 9.89107 10.0347 9.9692 9.91995 10.0839C9.80523 10.1986 9.7271 10.3448 9.69545 10.5039C9.6638 10.6631 9.68004 10.828 9.74213 10.9779C9.80422 11.1278 9.90936 11.2559 10.0443 11.346C10.1792 11.4362 10.3378 11.4843 10.5 11.4843C10.7175 11.484 10.926 11.3975 11.0798 11.2437C11.2336 11.09 11.3201 10.8815 11.3203 10.664ZM10.3359 10.664C10.3359 10.6315 10.3456 10.5998 10.3636 10.5728C10.3816 10.5458 10.4072 10.5248 10.4372 10.5124C10.4672 10.5 10.5002 10.4967 10.532 10.5031C10.5638 10.5094 10.5931 10.525 10.616 10.548C10.639 10.5709 10.6546 10.6001 10.6609 10.632C10.6672 10.6638 10.664 10.6968 10.6516 10.7268C10.6392 10.7567 10.6181 10.7824 10.5912 10.8004C10.5642 10.8184 10.5325 10.828 10.5 10.828C10.4565 10.828 10.4148 10.8107 10.384 10.78C10.3532 10.7492 10.3359 10.7075 10.3359 10.664Z" fill="#214E41"/>
<path d="M9.98113 13.5359C10.0441 13.6126 10.1233 13.6744 10.213 13.7168C10.3028 13.7592 10.4007 13.7812 10.5 13.7812C10.5992 13.7812 10.6972 13.7592 10.7869 13.7168C10.8766 13.6744 10.9558 13.6126 11.0188 13.5359C11.3067 13.1776 12.4688 11.5486 12.4688 10.711C12.4688 9.68999 11.5857 8.85939 10.5001 8.85939C9.41446 8.85939 8.53131 9.68999 8.53131 10.711C8.53131 11.5486 9.69345 13.1776 9.98113 13.5359ZM10.5001 9.51564C11.2238 9.51564 11.8126 10.0519 11.8126 10.711C11.8126 11.1847 11.0269 12.4777 10.5092 13.1233C10.5039 13.1251 10.4983 13.1257 10.4928 13.1251C9.97322 12.4777 9.18756 11.1847 9.18756 10.711C9.18756 10.0519 9.77634 9.51564 10.5001 9.51564Z" fill="#214E41"/>
</svg>
