<svg width="41" height="41" viewBox="0 0 41 41" fill="none" xmlns="http://www.w3.org/2000/svg">
<path d="M20.4999 -0.0435181C9.17239 -0.0435181 -0.0449219 9.17123 -0.0449219 20.5C-0.0449219 31.8289 9.17239 41.0436 20.4999 41.0436C31.8275 41.0436 41.0448 31.8289 41.0448 20.5C41.0448 9.17123 31.8275 -0.0435181 20.4999 -0.0435181ZM20.4999 39.6752C9.92705 39.6752 1.32602 31.0729 1.32602 20.5C1.32602 9.92717 9.92705 1.32486 20.4999 1.32486C31.0728 1.32486 39.6738 9.92717 39.6738 20.5C39.6738 31.0729 31.0728 39.6752 20.4999 39.6752Z" fill="#214E41"/>
<path d="M24.9843 8.9688H21.5659C17.2122 8.92524 16.6561 11.6197 16.6561 14.5358V16.6563H14.7343C14.6474 16.6447 14.559 16.6533 14.476 16.6814C14.393 16.7095 14.3176 16.7563 14.2556 16.8183C14.1936 16.8802 14.1468 16.9557 14.1187 17.0387C14.0906 17.1217 14.082 17.2101 14.0936 17.2969V21.1407C14.082 21.2275 14.0906 21.3159 14.1187 21.3989C14.1468 21.4819 14.1936 21.5574 14.2556 21.6193C14.3176 21.6813 14.393 21.7281 14.476 21.7562C14.559 21.7843 14.6474 21.7929 14.7343 21.7813H16.6561V31.3907C16.6455 31.4777 16.6548 31.566 16.6835 31.6489C16.7122 31.7317 16.7594 31.8069 16.8216 31.8687C16.8838 31.9305 16.9592 31.9773 17.0423 32.0055C17.1253 32.0337 17.2137 32.0425 17.3006 32.0313H21.2148C21.5928 32.0749 21.899 31.7686 21.7786 31.3907L21.7811 21.7813H24.9843C25.0711 21.7929 25.1595 21.7843 25.2425 21.7562C25.3255 21.7281 25.4009 21.6813 25.4629 21.6193C25.5249 21.5574 25.5717 21.4819 25.5998 21.3989C25.6279 21.3159 25.6365 21.2275 25.6249 21.1407V17.2969C25.6365 17.2101 25.6279 17.1217 25.5998 17.0387C25.5717 16.9557 25.5249 16.8802 25.4629 16.8183C25.4009 16.7563 25.3255 16.7095 25.2425 16.6814C25.1595 16.6533 25.0711 16.6447 24.9843 16.6563H21.7773L21.7811 14.7344C21.9054 13.9157 21.9054 14.049 22.6652 14.0938H24.9574C25.1355 14.0541 25.3251 14.0759 25.4583 13.9465C25.5916 13.8171 25.6685 13.6402 25.6236 13.4532V9.60943C25.6354 9.52263 25.6271 9.43428 25.5991 9.35125C25.5712 9.26823 25.5245 9.19277 25.4626 9.13077C25.4007 9.06877 25.3254 9.02189 25.2424 8.9938C25.1594 8.9657 25.0711 8.95715 24.9843 8.9688ZM24.2988 12.7408L22.6921 12.6793C20.7023 12.6793 20.5358 13.7594 20.5358 14.8651L20.5306 17.2944C20.5305 17.3843 20.548 17.4734 20.5824 17.5566C20.6167 17.6397 20.667 17.7153 20.7306 17.779C20.7941 17.8427 20.8696 17.8932 20.9527 17.9276C21.0358 17.9621 21.1249 17.9798 21.2148 17.9798H24.3436V20.4552H21.2174C21.0358 20.4552 20.8617 20.5272 20.7331 20.6555C20.6046 20.7838 20.5323 20.9578 20.5319 21.1394L20.5306 30.75H17.9374V21.1407C17.9374 20.7627 17.6799 20.4565 17.3006 20.4565H15.3749V17.9811H17.3006C17.3905 17.9812 17.4796 17.9637 17.5627 17.9294C17.6458 17.8951 17.7213 17.8447 17.7849 17.7812C17.913 17.6518 17.9361 17.4776 17.9361 17.2956V14.5346C17.9361 11.662 18.5165 10.2936 21.5646 10.2936H24.2975V12.7408H24.2988Z" fill="#214E41"/>
</svg>
