<svg width="42" height="42" viewBox="0 0 42 42" fill="none" xmlns="http://www.w3.org/2000/svg">
<path d="M39.286 27.9887C38.946 27.9887 38.6707 28.2643 38.6707 28.6039V38.4124H25.9892V26.7688C25.9892 25.977 25.3451 25.3329 24.5537 25.3329H17.4464C16.6549 25.3329 16.0109 25.9773 16.0109 26.7688V38.4124H3.32935V28.6039C3.32935 28.2643 3.05409 27.9887 2.71411 27.9887C2.37413 27.9887 2.09888 28.2643 2.09888 28.6039V38.6995C2.09888 39.2196 2.52217 39.6429 3.04224 39.6429H38.9578C39.4779 39.6429 39.9012 39.2196 39.9012 38.6995V28.6039C39.9012 28.2643 39.6259 27.9887 39.286 27.9887ZM17.2413 38.4124V26.7688C17.2413 26.6557 17.3333 26.5634 17.4464 26.5634H24.5537C24.6668 26.5634 24.7587 26.6557 24.7587 26.7688V38.4124H17.2413Z" fill="#214E41"/>
<path d="M36.3632 35.9816C37.0855 35.9816 37.6732 35.3939 37.6732 34.6717V27.9579C37.6732 27.2357 37.0855 26.6483 36.3632 26.6483H28.7494C28.0271 26.6483 27.4395 27.2357 27.4395 27.9579V34.6717C27.4395 35.3939 28.0271 35.9816 28.7494 35.9816H36.3632ZM28.6699 34.6717V27.9579C28.6699 27.9144 28.7055 27.8788 28.7494 27.8788H36.3632C36.4071 27.8788 36.4427 27.9144 36.4427 27.9579V34.6717C36.4427 34.7156 36.4071 34.7511 36.3632 34.7511H28.7494C28.7055 34.7511 28.6699 34.7156 28.6699 34.6717Z" fill="#214E41"/>
<path d="M13.2507 35.9816C13.9729 35.9816 14.5606 35.3939 14.5606 34.6717V27.9579C14.5606 27.2357 13.9729 26.6483 13.2507 26.6483H5.63684C4.91458 26.6483 4.3269 27.2357 4.3269 27.9579V34.6717C4.3269 35.3939 4.91458 35.9816 5.63684 35.9816H13.2507ZM5.55737 34.6717V27.9579C5.55737 27.9144 5.59294 27.8788 5.63684 27.8788H13.2507C13.2946 27.8788 13.3302 27.9144 13.3302 27.9579V34.6717C13.3302 34.7156 13.2946 34.7511 13.2507 34.7511H5.63684C5.59294 34.7511 5.55737 34.7156 5.55737 34.6717Z" fill="#214E41"/>
<path d="M40.1921 11.4491C40.1921 10.7919 40.7269 10.2574 41.3848 10.2574C41.7247 10.2574 42 9.98186 42 9.6422V8.1368C42 7.79713 41.7247 7.52156 41.3848 7.52156H31.2286C30.8886 7.52156 30.6134 7.79713 30.6134 8.1368C30.6134 8.47678 30.8886 8.75203 31.2286 8.75203H40.7695V9.10611C39.9271 9.32721 39.2622 9.99179 39.0408 10.8339H29.3621V5.37241C29.3621 3.72185 28.0191 2.37891 26.3686 2.37891H15.6318C13.9809 2.37891 12.6383 3.72185 12.6383 5.37241V7.52156H0.615234C0.275253 7.52156 0 7.79713 0 8.1368V9.6422C0 9.98186 0.275253 10.2574 0.615234 10.2574C1.27309 10.2574 1.80789 10.7919 1.80789 11.4491C1.80789 11.6712 1.92549 11.8657 2.10173 11.974V16.1762H0.994629C0.474243 16.1762 0.0509491 16.5995 0.0509491 17.1195V20.4697C0.0509491 20.9897 0.474243 21.413 0.994629 21.413H2.10173V26.1475C2.10173 26.4871 2.37698 26.7627 2.71696 26.7627C3.05695 26.7627 3.3322 26.4871 3.3322 26.1475V21.413H38.7188V26.1484C38.7188 26.4881 38.994 26.7637 39.334 26.7637C39.6736 26.7637 39.9492 26.4881 39.9492 26.1484V21.413H41.0563C41.5767 21.413 42 20.9897 42 20.4697V17.1195C42 16.5995 41.5767 16.1762 41.0563 16.1762H39.9492V11.9391C40.0966 11.8266 40.1921 11.6491 40.1921 11.4491ZM13.8684 5.37241C13.8684 4.40021 14.6596 3.60938 15.6314 3.60938H26.3682C27.3404 3.60938 28.1313 4.40021 28.1313 5.37241V12.0852C28.1313 13.0574 27.3404 13.8482 26.3682 13.8482H15.6318C14.6596 13.8482 13.8687 13.0574 13.8687 12.0852V5.37241H13.8684ZM40.7695 20.1826H1.28142V17.4066H40.7695V20.1826ZM3.3322 16.1762V12.0644H10.7929C11.1329 12.0644 11.4081 11.7891 11.4081 11.4491C11.4081 11.1095 11.1329 10.8339 10.7929 10.8339H2.95921C2.73779 9.99179 2.07289 9.32721 1.23047 9.10611V8.75203H12.6379V12.0855C12.6379 13.7361 13.9809 15.079 15.6314 15.079H26.3682C28.0191 15.079 29.3617 13.7361 29.3617 12.0855V12.0647H38.7184V16.1762H3.3322Z" fill="#214E41"/>
<path d="M18.6211 31.8727H18.1289C17.7889 31.8727 17.5137 32.1483 17.5137 32.4879C17.5137 32.8276 17.7889 33.1031 18.1289 33.1031H18.6211C18.9611 33.1031 19.2363 32.8276 19.2363 32.4879C19.2363 32.1483 18.9611 31.8727 18.6211 31.8727Z" fill="#214E41"/>
<path d="M16.5929 6.06488H17.3469L18.1205 9.7627C18.2704 10.4792 18.9106 10.9996 19.6428 10.9996H23.2961C23.9392 10.9996 24.524 10.5952 24.7512 9.99373L25.9576 6.79996C26.0724 6.49587 26.0307 6.15492 25.8461 5.888C25.6616 5.62076 25.3572 5.46118 25.0325 5.46118H19.8655C19.5259 5.46118 19.2503 5.73644 19.2503 6.07642C19.2503 6.41608 19.5259 6.69165 19.8655 6.69165H24.6833L23.6002 9.5589C23.5528 9.68451 23.4307 9.7691 23.2964 9.7691H19.6428C19.49 9.7691 19.3564 9.66016 19.325 9.51083L18.5482 5.7986C18.4313 5.23976 17.9324 4.83441 17.3613 4.83441H16.5933C16.2533 4.83441 15.978 5.10966 15.978 5.44965C15.978 5.78931 16.2533 6.06488 16.5929 6.06488Z" fill="#214E41"/>
<path d="M19.749 11.5158H19.585C19.245 11.5158 18.9697 11.791 18.9697 12.131C18.9697 12.4707 19.245 12.7462 19.585 12.7462H19.749C20.089 12.7462 20.3643 12.4707 20.3643 12.131C20.3643 11.791 20.089 11.5158 19.749 11.5158Z" fill="#214E41"/>
<path d="M22.415 11.5158H22.251C21.911 11.5158 21.6357 11.791 21.6357 12.131C21.6357 12.4707 21.911 12.7462 22.251 12.7462H22.415C22.755 12.7462 23.0303 12.4707 23.0303 12.131C23.0303 11.791 22.755 11.5158 22.415 11.5158Z" fill="#214E41"/>
</svg>
