<svg width="40" height="42" viewBox="0 0 40 42" fill="none" xmlns="http://www.w3.org/2000/svg">
<g clip-path="url(#clip0_233:671)">
<path d="M33.659 22.6603V38.3949C33.659 39.0778 33.13 39.6334 32.4795 39.6334H31.5708C31.247 39.6334 30.9847 39.9089 30.9847 40.2488C30.9847 40.5887 31.247 40.8641 31.5708 40.8641H32.4795C33.7762 40.8641 34.8311 39.7564 34.8311 38.3949V23.9413L36.0239 25.2451C36.5626 25.8338 37.4567 25.8439 38.0071 25.2659L39.5962 23.5973C40.1269 23.0402 40.1357 22.1246 39.6158 21.5563L21.5801 1.843C20.7179 0.900564 19.2828 0.899744 18.4199 1.843L0.384229 21.5563C-0.135613 22.1245 -0.126861 23.0401 0.403763 23.5973L1.99298 25.2659C2.5429 25.8432 3.43686 25.8345 3.97624 25.2451L5.16891 23.9415V26.9305C5.16891 27.2704 5.4313 27.5458 5.75494 27.5458C6.07858 27.5458 6.34096 27.2704 6.34096 26.9305V22.6604L19.5545 8.21768C19.7975 7.9521 20.2016 7.95136 20.4455 8.21768C30.9764 19.7281 28.8916 17.4494 33.659 22.6603ZM38.7674 22.7269L37.1782 24.3957C37.0743 24.4855 36.9712 24.4845 36.869 24.3924L21.2908 7.36525C21.2907 7.36516 21.2907 7.36516 21.2907 7.36508C21.2899 7.36418 21.289 7.36344 21.2882 7.36254C20.5832 6.59478 19.4137 6.59511 18.7093 7.36516L5.3323 21.9863C5.33198 21.9867 5.33175 21.9871 5.33144 21.9874L3.13104 24.3924C3.02884 24.4845 2.92569 24.4855 2.82177 24.3956L1.23256 22.7269C1.14981 22.6401 1.14848 22.4973 1.22951 22.4088L19.2651 2.69551C19.6667 2.25666 20.3336 2.25674 20.7349 2.69559L38.7705 22.4087C38.8516 22.4973 38.8503 22.6401 38.7674 22.7269Z" fill="#214E41"/>
<path d="M28.8244 39.6333H25.3478V32.6663C25.3478 29.5702 22.9488 27.0513 20 27.0513C17.0513 27.0513 14.6523 29.5702 14.6523 32.6663V39.6333H7.52054C6.87013 39.6333 6.34099 39.0778 6.34099 38.3948V29.8019C6.34099 29.462 6.07861 29.1866 5.75497 29.1866C5.43133 29.1866 5.16895 29.462 5.16895 29.8019V38.3948C5.16895 39.7563 6.22387 40.864 7.52054 40.864H28.8244C29.1481 40.864 29.4104 40.5886 29.4104 40.2487C29.4104 39.9087 29.1481 39.6333 28.8244 39.6333ZM15.8243 32.6664C15.8243 30.2488 17.6976 28.282 20 28.282C22.3025 28.282 24.1757 30.2489 24.1757 32.6664V39.6334H15.8243V32.6664Z" fill="#214E41"/>
</g>
<defs>
<clipPath id="clip0_233:671">
<rect width="40" height="42" fill="white"/>
</clipPath>
</defs>
</svg>
