<svg width="46" height="38" viewBox="0 0 46 38" fill="none" xmlns="http://www.w3.org/2000/svg">
<g clip-path="url(#clip0_233:678)">
<path d="M44.9159 12.1611L23.4044 0.102642C23.1604 -0.0342918 22.8399 -0.0342175 22.5957 0.102642L1.0842 12.1611C0.886635 12.2718 0.768311 12.4562 0.768311 12.6535V37.4051C0.768311 37.7336 1.09076 38.0001 1.48859 38.0001H44.5115C44.9094 38.0001 45.2318 37.7337 45.2318 37.4051V12.6535C45.2318 12.4562 45.1136 12.2718 44.9159 12.1611ZM17.6702 36.8101H9.89149V30.3842H11.524V33.5971C11.524 33.9257 11.8465 34.1921 12.2443 34.1921H15.3174C15.7152 34.1921 16.0377 33.9258 16.0377 33.5971V30.3842H17.6703V36.8101H17.6702ZM8.35499 15.2318V13.8831H37.6452V15.2318H8.35499ZM12.9646 33.0021V30.3842H14.5972V33.0021H12.9646ZM17.6702 29.1942H15.3173H12.2442H9.89141V22.7683H11.524V25.9812C11.524 26.3098 11.8464 26.5762 12.2442 26.5762H15.3173C15.7151 26.5762 16.0376 26.3099 16.0376 25.9812V22.7683H17.6702V29.1942ZM12.9646 25.3862V22.7683H14.5972V25.3862H12.9646ZM26.8894 36.8101H19.1107V30.3842H20.7433V33.5971C20.7433 33.9257 21.0657 34.1921 21.4636 34.1921H24.5367C24.9345 34.1921 25.2569 33.9258 25.2569 33.5971V30.3842H26.8895V36.8101H26.8894ZM22.1837 33.0021V30.3842H23.8163V33.0021H22.1837ZM43.7913 36.8101H37.5492V24.0772C37.5492 23.7487 37.2268 23.4822 36.8289 23.4822C36.4311 23.4822 36.1086 23.7486 36.1086 24.0772V36.81H28.33V29.7892C28.33 29.4606 28.0076 29.1942 27.6097 29.1942H19.1107V22.1733C19.1107 21.8447 18.7883 21.5783 18.3904 21.5783H9.89149V16.4217H36.1086V21.5387C36.1086 21.8672 36.431 22.1337 36.8289 22.1337C37.2267 22.1337 37.5492 21.8673 37.5492 21.5387V16.4217H38.3655C38.7633 16.4217 39.0858 16.1553 39.0858 15.8267V13.2881C39.0858 12.9596 38.7634 12.6931 38.3655 12.6931H7.63471C7.23697 12.6931 6.91443 12.9595 6.91443 13.2881V15.8268C6.91443 16.1553 7.23688 16.4218 7.63471 16.4218H8.45103V36.8101H2.20887V12.9688L23.0001 1.31404L43.7913 12.9688V36.8101H43.7913Z" fill="#214E41"/>
<path d="M26.0732 5.07724H19.9271C19.5293 5.07724 19.2068 5.34361 19.2068 5.67225C19.2068 6.00089 19.5292 6.26726 19.9271 6.26726H26.0732C26.471 6.26726 26.7935 6.00089 26.7935 5.67225C26.7935 5.34361 26.471 5.07724 26.0732 5.07724Z" fill="#214E41"/>
<path d="M26.0732 7.61588H19.9271C19.5293 7.61588 19.2068 7.88225 19.2068 8.21089C19.2068 8.53953 19.5292 8.8059 19.9271 8.8059H26.0732C26.471 8.8059 26.7935 8.53953 26.7935 8.21089C26.7935 7.88225 26.471 7.61588 26.0732 7.61588Z" fill="#214E41"/>
<path d="M26.0732 10.1544H19.9271C19.5293 10.1544 19.2068 10.4208 19.2068 10.7495C19.2068 11.0781 19.5292 11.3445 19.9271 11.3445H26.0732C26.471 11.3445 26.7935 11.0781 26.7935 10.7495C26.7935 10.4208 26.471 10.1544 26.0732 10.1544Z" fill="#214E41"/>
<path d="M15.3173 27.2903H12.2442C11.8465 27.2903 11.5239 27.5566 11.5239 27.8853C11.5239 28.2138 11.8464 28.4803 12.2442 28.4803H15.3173C15.715 28.4803 16.0376 28.2139 16.0376 27.8853C16.0375 27.5566 15.715 27.2903 15.3173 27.2903Z" fill="#214E41"/>
<path d="M15.3173 34.906H12.2442C11.8465 34.906 11.5239 35.1724 11.5239 35.501C11.5239 35.8296 11.8464 36.0961 12.2442 36.0961H15.3173C15.715 36.0961 16.0376 35.8297 16.0376 35.501C16.0375 35.1725 15.715 34.906 15.3173 34.906Z" fill="#214E41"/>
<path d="M24.5365 34.906H21.4634C21.0657 34.906 20.7432 35.1724 20.7432 35.501C20.7432 35.8296 21.0656 36.0961 21.4634 36.0961H24.5365C24.9344 36.0961 25.2568 35.8297 25.2568 35.501C25.2568 35.1725 24.9345 34.906 24.5365 34.906Z" fill="#214E41"/>
</g>
<defs>
<clipPath id="clip0_233:678">
<rect width="46" height="38" fill="white"/>
</clipPath>
</defs>
</svg>
