<svg width="48" height="48" viewBox="0 0 48 48" fill="none" xmlns="http://www.w3.org/2000/svg">
<path d="M33.1376 41.5667C32.9656 41.5667 32.8006 41.4984 32.679 41.3767C32.5573 41.2551 32.489 41.0901 32.489 40.9181V6.46055L24.268 3.01169L17.3644 5.72758V40.9181C17.3644 41.0901 17.2961 41.2551 17.1745 41.3767C17.0528 41.4984 16.8878 41.5667 16.7158 41.5667C16.5438 41.5667 16.3788 41.4984 16.2571 41.3767C16.1355 41.2551 16.0671 41.0901 16.0671 40.9181V5.2852C16.0671 5.15488 16.1063 5.02756 16.1796 4.91985C16.253 4.81213 16.3571 4.72901 16.4784 4.68131L24.0384 1.70725C24.1956 1.64527 24.3709 1.64714 24.5268 1.71244L33.3887 5.43115C33.5065 5.48059 33.607 5.56373 33.6778 5.67012C33.7485 5.77652 33.7863 5.90143 33.7863 6.0292V40.9181C33.7863 41.0901 33.7179 41.2551 33.5963 41.3767C33.4746 41.4984 33.3097 41.5667 33.1376 41.5667Z" fill="#214E41"/>
<path d="M24.2756 41.5667C24.1036 41.5667 23.9386 41.4984 23.8169 41.3767C23.6953 41.2551 23.627 41.0901 23.627 40.9181V2.31115C23.627 2.13912 23.6953 1.97414 23.8169 1.85249C23.9386 1.73085 24.1036 1.66251 24.2756 1.66251C24.4476 1.66251 24.6126 1.73085 24.7343 1.85249C24.8559 1.97414 24.9243 2.13912 24.9243 2.31115V40.9181C24.9243 41.0901 24.8559 41.2551 24.7343 41.3767C24.6126 41.4984 24.4476 41.5667 24.2756 41.5667Z" fill="#214E41"/>
<path d="M43.6101 41.5667C43.4381 41.5667 43.2731 41.4984 43.1514 41.3767C43.0298 41.2551 42.9615 41.0901 42.9615 40.9181V20.531L36.619 16.8409H33.1377C32.9656 16.8409 32.8006 16.7725 32.679 16.6509C32.5574 16.5292 32.489 16.3643 32.489 16.1922C32.489 16.0202 32.5574 15.8552 32.679 15.7336C32.8006 15.6119 32.9656 15.5436 33.1377 15.5436H36.7941C36.9081 15.544 37.0199 15.5744 37.1184 15.6318L43.9351 19.5976C44.0335 19.6545 44.1153 19.7361 44.1722 19.8345C44.2291 19.9328 44.2592 20.0444 44.2594 20.1581V40.9148C44.2598 41.0003 44.2433 41.0851 44.2109 41.1642C44.1785 41.2433 44.1307 41.3152 44.0703 41.3758C44.01 41.4364 43.9383 41.4845 43.8593 41.5172C43.7803 41.55 43.6956 41.5668 43.6101 41.5667Z" fill="#214E41"/>
<path d="M36.7939 41.5667C36.6219 41.5667 36.4569 41.4984 36.3352 41.3767C36.2136 41.2551 36.1453 41.0901 36.1453 40.9181V16.1922C36.1453 16.0202 36.2136 15.8552 36.3352 15.7336C36.4569 15.6119 36.6219 15.5436 36.7939 15.5436C36.9659 15.5436 37.1309 15.6119 37.2526 15.7336C37.3742 15.8552 37.4426 16.0202 37.4426 16.1922V40.9181C37.4426 41.0901 37.3742 41.2551 37.2526 41.3767C37.1309 41.4984 36.9659 41.5667 36.7939 41.5667Z" fill="#214E41"/>
<path d="M3.39181 41.5667C3.21978 41.5667 3.05479 41.4984 2.93315 41.3767C2.8115 41.2551 2.74316 41.0901 2.74316 40.918V20.7159C2.74316 20.5438 2.8115 20.3789 2.93315 20.2572C3.05479 20.1356 3.21978 20.0672 3.39181 20.0672H16.7157C16.8877 20.0672 17.0527 20.1356 17.1744 20.2572C17.296 20.3789 17.3644 20.5438 17.3644 20.7159C17.3644 20.8879 17.296 21.0529 17.1744 21.1745C17.0527 21.2962 16.8877 21.3645 16.7157 21.3645H4.04046V40.918C4.04046 41.0901 3.97212 41.2551 3.85048 41.3767C3.72883 41.4984 3.56384 41.5667 3.39181 41.5667Z" fill="#214E41"/>
<path d="M6.96257 23.856H5.5842C5.41216 23.856 5.24718 23.7877 5.12553 23.666C5.00389 23.5444 4.93555 23.3794 4.93555 23.2074C4.93555 23.0353 5.00389 22.8703 5.12553 22.7487C5.24718 22.6271 5.41216 22.5587 5.5842 22.5587H6.96257C7.13461 22.5587 7.29959 22.6271 7.42124 22.7487C7.54288 22.8703 7.61122 23.0353 7.61122 23.2074C7.61122 23.3794 7.54288 23.5444 7.42124 23.666C7.29959 23.7877 7.13461 23.856 6.96257 23.856Z" fill="#214E41"/>
<path d="M10.7435 23.856H9.36447C9.19244 23.856 9.02745 23.7877 8.90581 23.666C8.78416 23.5444 8.71582 23.3794 8.71582 23.2074C8.71582 23.0353 8.78416 22.8703 8.90581 22.7487C9.02745 22.6271 9.19244 22.5587 9.36447 22.5587H10.7435C10.9155 22.5587 11.0805 22.6271 11.2022 22.7487C11.3238 22.8703 11.3921 23.0353 11.3921 23.2074C11.3921 23.3794 11.3238 23.5444 11.2022 23.666C11.0805 23.7877 10.9155 23.856 10.7435 23.856Z" fill="#214E41"/>
<path d="M14.5231 23.856H13.1447C12.9727 23.856 12.8077 23.7877 12.6861 23.666C12.5644 23.5444 12.4961 23.3794 12.4961 23.2074C12.4961 23.0353 12.5644 22.8703 12.6861 22.7487C12.8077 22.6271 12.9727 22.5587 13.1447 22.5587H14.5231C14.6952 22.5587 14.8601 22.6271 14.9818 22.7487C15.1034 22.8703 15.1718 23.0353 15.1718 23.2074C15.1718 23.3794 15.1034 23.5444 14.9818 23.666C14.8601 23.7877 14.6952 23.856 14.5231 23.856Z" fill="#214E41"/>
<path d="M6.96257 26.9001H5.5842C5.41216 26.9001 5.24718 26.8317 5.12553 26.7101C5.00389 26.5885 4.93555 26.4235 4.93555 26.2514C4.93555 26.0794 5.00389 25.9144 5.12553 25.7928C5.24718 25.6711 5.41216 25.6028 5.5842 25.6028H6.96257C7.13461 25.6028 7.29959 25.6711 7.42124 25.7928C7.54288 25.9144 7.61122 26.0794 7.61122 26.2514C7.61122 26.4235 7.54288 26.5885 7.42124 26.7101C7.29959 26.8317 7.13461 26.9001 6.96257 26.9001Z" fill="#214E41"/>
<path d="M10.7435 26.9001H9.36447C9.19244 26.9001 9.02745 26.8317 8.90581 26.7101C8.78416 26.5885 8.71582 26.4235 8.71582 26.2514C8.71582 26.0794 8.78416 25.9144 8.90581 25.7928C9.02745 25.6711 9.19244 25.6028 9.36447 25.6028H10.7435C10.9155 25.6028 11.0805 25.6711 11.2022 25.7928C11.3238 25.9144 11.3921 26.0794 11.3921 26.2514C11.3921 26.4235 11.3238 26.5885 11.2022 26.7101C11.0805 26.8317 10.9155 26.9001 10.7435 26.9001Z" fill="#214E41"/>
<path d="M14.5231 26.9001H13.1447C12.9727 26.9001 12.8077 26.8317 12.6861 26.7101C12.5644 26.5885 12.4961 26.4235 12.4961 26.2514C12.4961 26.0794 12.5644 25.9144 12.6861 25.7928C12.8077 25.6711 12.9727 25.6028 13.1447 25.6028H14.5231C14.6952 25.6028 14.8601 25.6711 14.9818 25.7928C15.1034 25.9144 15.1718 26.0794 15.1718 26.2514C15.1718 26.4235 15.1034 26.5885 14.9818 26.7101C14.8601 26.8317 14.6952 26.9001 14.5231 26.9001Z" fill="#214E41"/>
<path d="M6.96257 29.9436H5.5842C5.41216 29.9436 5.24718 29.8752 5.12553 29.7536C5.00389 29.6319 4.93555 29.467 4.93555 29.2949C4.93555 29.1229 5.00389 28.9579 5.12553 28.8363C5.24718 28.7146 5.41216 28.6463 5.5842 28.6463H6.96257C7.13461 28.6463 7.29959 28.7146 7.42124 28.8363C7.54288 28.9579 7.61122 29.1229 7.61122 29.2949C7.61122 29.467 7.54288 29.6319 7.42124 29.7536C7.29959 29.8752 7.13461 29.9436 6.96257 29.9436Z" fill="#214E41"/>
<path d="M10.7435 29.9436H9.36447C9.19244 29.9436 9.02745 29.8752 8.90581 29.7536C8.78416 29.6319 8.71582 29.467 8.71582 29.2949C8.71582 29.1229 8.78416 28.9579 8.90581 28.8363C9.02745 28.7146 9.19244 28.6463 9.36447 28.6463H10.7435C10.9155 28.6463 11.0805 28.7146 11.2022 28.8363C11.3238 28.9579 11.3921 29.1229 11.3921 29.2949C11.3921 29.467 11.3238 29.6319 11.2022 29.7536C11.0805 29.8752 10.9155 29.9436 10.7435 29.9436Z" fill="#214E41"/>
<path d="M14.5231 29.9436H13.1447C12.9727 29.9436 12.8077 29.8752 12.6861 29.7536C12.5644 29.6319 12.4961 29.467 12.4961 29.2949C12.4961 29.1229 12.5644 28.9579 12.6861 28.8363C12.8077 28.7146 12.9727 28.6463 13.1447 28.6463H14.5231C14.6952 28.6463 14.8601 28.7146 14.9818 28.8363C15.1034 28.9579 15.1718 29.1229 15.1718 29.2949C15.1718 29.467 15.1034 29.6319 14.9818 29.7536C14.8601 29.8752 14.6952 29.9436 14.5231 29.9436Z" fill="#214E41"/>
<path d="M6.96257 32.9877H5.5842C5.41216 32.9877 5.24718 32.9193 5.12553 32.7977C5.00389 32.676 4.93555 32.5111 4.93555 32.339C4.93555 32.167 5.00389 32.002 5.12553 31.8804C5.24718 31.7587 5.41216 31.6904 5.5842 31.6904H6.96257C7.13461 31.6904 7.29959 31.7587 7.42124 31.8804C7.54288 32.002 7.61122 32.167 7.61122 32.339C7.61122 32.5111 7.54288 32.676 7.42124 32.7977C7.29959 32.9193 7.13461 32.9877 6.96257 32.9877Z" fill="#214E41"/>
<path d="M10.7435 32.9877H9.36447C9.19244 32.9877 9.02745 32.9193 8.90581 32.7977C8.78416 32.676 8.71582 32.5111 8.71582 32.339C8.71582 32.167 8.78416 32.002 8.90581 31.8804C9.02745 31.7587 9.19244 31.6904 9.36447 31.6904H10.7435C10.9155 31.6904 11.0805 31.7587 11.2022 31.8804C11.3238 32.002 11.3921 32.167 11.3921 32.339C11.3921 32.5111 11.3238 32.676 11.2022 32.7977C11.0805 32.9193 10.9155 32.9877 10.7435 32.9877Z" fill="#214E41"/>
<path d="M14.5231 32.9877H13.1447C12.9727 32.9877 12.8077 32.9193 12.6861 32.7977C12.5644 32.676 12.4961 32.5111 12.4961 32.339C12.4961 32.167 12.5644 32.002 12.6861 31.8804C12.8077 31.7587 12.9727 31.6904 13.1447 31.6904H14.5231C14.6952 31.6904 14.8601 31.7587 14.9818 31.8804C15.1034 32.002 15.1718 32.167 15.1718 32.339C15.1718 32.5111 15.1034 32.676 14.9818 32.7977C14.8601 32.9193 14.6952 32.9877 14.5231 32.9877Z" fill="#214E41"/>
<path d="M6.96257 36.0318H5.5842C5.41216 36.0318 5.24718 35.9634 5.12553 35.8418C5.00389 35.7202 4.93555 35.5552 4.93555 35.3831C4.93555 35.2111 5.00389 35.0461 5.12553 34.9245C5.24718 34.8028 5.41216 34.7345 5.5842 34.7345H6.96257C7.13461 34.7345 7.29959 34.8028 7.42124 34.9245C7.54288 35.0461 7.61122 35.2111 7.61122 35.3831C7.61122 35.5552 7.54288 35.7202 7.42124 35.8418C7.29959 35.9634 7.13461 36.0318 6.96257 36.0318Z" fill="#214E41"/>
<path d="M10.7435 36.0318H9.36447C9.19244 36.0318 9.02745 35.9634 8.90581 35.8418C8.78416 35.7202 8.71582 35.5552 8.71582 35.3831C8.71582 35.2111 8.78416 35.0461 8.90581 34.9245C9.02745 34.8028 9.19244 34.7345 9.36447 34.7345H10.7435C10.9155 34.7345 11.0805 34.8028 11.2022 34.9245C11.3238 35.0461 11.3921 35.2111 11.3921 35.3831C11.3921 35.5552 11.3238 35.7202 11.2022 35.8418C11.0805 35.9634 10.9155 36.0318 10.7435 36.0318Z" fill="#214E41"/>
<path d="M14.5231 36.0318H13.1447C12.9727 36.0318 12.8077 35.9634 12.6861 35.8418C12.5644 35.7202 12.4961 35.5552 12.4961 35.3831C12.4961 35.2111 12.5644 35.0461 12.6861 34.9245C12.8077 34.8028 12.9727 34.7345 13.1447 34.7345H14.5231C14.6952 34.7345 14.8601 34.8028 14.9818 34.9245C15.1034 35.0461 15.1718 35.2111 15.1718 35.3831C15.1718 35.5552 15.1034 35.7202 14.9818 35.8418C14.8601 35.9634 14.6952 36.0318 14.5231 36.0318Z" fill="#214E41"/>
<path d="M6.96257 39.0759H5.5842C5.41216 39.0759 5.24718 39.0076 5.12553 38.8859C5.00389 38.7643 4.93555 38.5993 4.93555 38.4272C4.93555 38.2552 5.00389 38.0902 5.12553 37.9686C5.24718 37.8469 5.41216 37.7786 5.5842 37.7786H6.96257C7.13461 37.7786 7.29959 37.8469 7.42124 37.9686C7.54288 38.0902 7.61122 38.2552 7.61122 38.4272C7.61122 38.5993 7.54288 38.7643 7.42124 38.8859C7.29959 39.0076 7.13461 39.0759 6.96257 39.0759Z" fill="#214E41"/>
<path d="M10.7435 39.0759H9.36447C9.19244 39.0759 9.02745 39.0076 8.90581 38.8859C8.78416 38.7643 8.71582 38.5993 8.71582 38.4272C8.71582 38.2552 8.78416 38.0902 8.90581 37.9686C9.02745 37.8469 9.19244 37.7786 9.36447 37.7786H10.7435C10.9155 37.7786 11.0805 37.8469 11.2022 37.9686C11.3238 38.0902 11.3921 38.2552 11.3921 38.4272C11.3921 38.5993 11.3238 38.7643 11.2022 38.8859C11.0805 39.0076 10.9155 39.0759 10.7435 39.0759Z" fill="#214E41"/>
<path d="M14.5231 39.0759H13.1447C12.9727 39.0759 12.8077 39.0076 12.6861 38.8859C12.5644 38.7643 12.4961 38.5993 12.4961 38.4272C12.4961 38.2552 12.5644 38.0902 12.6861 37.9686C12.8077 37.8469 12.9727 37.7786 13.1447 37.7786H14.5231C14.6952 37.7786 14.8601 37.8469 14.9818 37.9686C15.1034 38.0902 15.1718 38.2552 15.1718 38.4272C15.1718 38.5993 15.1034 38.7643 14.9818 38.8859C14.8601 39.0076 14.6952 39.0759 14.5231 39.0759Z" fill="#214E41"/>
<path d="M21.9892 8.66076C21.8172 8.66076 21.6522 8.59242 21.5306 8.47078C21.4089 8.34913 21.3406 8.18415 21.3406 8.01212V6.78811C21.3406 6.61608 21.4089 6.4511 21.5306 6.32945C21.6522 6.20781 21.8172 6.13947 21.9892 6.13947C22.1613 6.13947 22.3262 6.20781 22.4479 6.32945C22.5695 6.4511 22.6379 6.61608 22.6379 6.78811V8.01212C22.6379 8.18415 22.5695 8.34913 22.4479 8.47078C22.3262 8.59242 22.1613 8.66076 21.9892 8.66076Z" fill="#214E41"/>
<path d="M19.0315 9.4151C18.8594 9.4151 18.6944 9.34676 18.5728 9.22511C18.4512 9.10347 18.3828 8.93848 18.3828 8.76645V7.54245C18.3828 7.37042 18.4512 7.20543 18.5728 7.08378C18.6944 6.96214 18.8594 6.8938 19.0315 6.8938C19.2035 6.8938 19.3685 6.96214 19.4901 7.08378C19.6118 7.20543 19.6801 7.37042 19.6801 7.54245V8.76645C19.6801 8.93848 19.6118 9.10347 19.4901 9.22511C19.3685 9.34676 19.2035 9.4151 19.0315 9.4151Z" fill="#214E41"/>
<path d="M21.9892 13.5399C21.8172 13.5399 21.6522 13.4715 21.5306 13.3499C21.4089 13.2283 21.3406 13.0633 21.3406 12.8912V11.6672C21.3406 11.4952 21.4089 11.3302 21.5306 11.2086C21.6522 11.0869 21.8172 11.0186 21.9892 11.0186C22.1613 11.0186 22.3262 11.0869 22.4479 11.2086C22.5695 11.3302 22.6379 11.4952 22.6379 11.6672V12.8912C22.6379 13.0633 22.5695 13.2283 22.4479 13.3499C22.3262 13.4715 22.1613 13.5399 21.9892 13.5399Z" fill="#214E41"/>
<path d="M19.0315 14.2943C18.8594 14.2943 18.6944 14.2259 18.5728 14.1043C18.4512 13.9826 18.3828 13.8177 18.3828 13.6456V12.4216C18.3828 12.2496 18.4512 12.0846 18.5728 11.963C18.6944 11.8413 18.8594 11.773 19.0315 11.773C19.2035 11.773 19.3685 11.8413 19.4901 11.963C19.6118 12.0846 19.6801 12.2496 19.6801 12.4216V13.6456C19.6801 13.8177 19.6118 13.9826 19.4901 14.1043C19.3685 14.2259 19.2035 14.2943 19.0315 14.2943Z" fill="#214E41"/>
<path d="M21.9892 18.4216C21.8172 18.4216 21.6522 18.3533 21.5306 18.2316C21.4089 18.11 21.3406 17.945 21.3406 17.7729V16.5464C21.3406 16.3743 21.4089 16.2093 21.5306 16.0877C21.6522 15.966 21.8172 15.8977 21.9892 15.8977C22.1613 15.8977 22.3262 15.966 22.4479 16.0877C22.5695 16.2093 22.6379 16.3743 22.6379 16.5464V17.7729C22.6379 17.945 22.5695 18.11 22.4479 18.2316C22.3262 18.3533 22.1613 18.4216 21.9892 18.4216Z" fill="#214E41"/>
<path d="M19.0315 19.1734C18.8594 19.1734 18.6944 19.1051 18.5728 18.9834C18.4512 18.8618 18.3828 18.6968 18.3828 18.5247V17.3007C18.3828 17.1287 18.4512 16.9637 18.5728 16.8421C18.6944 16.7204 18.8594 16.6521 19.0315 16.6521C19.2035 16.6521 19.3685 16.7204 19.4901 16.8421C19.6118 16.9637 19.6801 17.1287 19.6801 17.3007V18.5247C19.6801 18.6968 19.6118 18.8618 19.4901 18.9834C19.3685 19.1051 19.2035 19.1734 19.0315 19.1734Z" fill="#214E41"/>
<path d="M21.9892 23.2975C21.8172 23.2975 21.6522 23.2292 21.5306 23.1075C21.4089 22.9859 21.3406 22.8209 21.3406 22.6489V21.4249C21.3406 21.2528 21.4089 21.0878 21.5306 20.9662C21.6522 20.8446 21.8172 20.7762 21.9892 20.7762C22.1613 20.7762 22.3262 20.8446 22.4479 20.9662C22.5695 21.0878 22.6379 21.2528 22.6379 21.4249V22.6489C22.6379 22.8209 22.5695 22.9859 22.4479 23.1075C22.3262 23.2292 22.1613 23.2975 21.9892 23.2975Z" fill="#214E41"/>
<path d="M19.0315 24.0519C18.8594 24.0519 18.6944 23.9836 18.5728 23.8619C18.4512 23.7403 18.3828 23.5753 18.3828 23.4032V22.1793C18.3828 22.0072 18.4512 21.8422 18.5728 21.7206C18.6944 21.5989 18.8594 21.5306 19.0315 21.5306C19.2035 21.5306 19.3685 21.5989 19.4901 21.7206C19.6118 21.8422 19.6801 22.0072 19.6801 22.1793V23.4032C19.6801 23.5753 19.6118 23.7403 19.4901 23.8619C19.3685 23.9836 19.2035 24.0519 19.0315 24.0519Z" fill="#214E41"/>
<path d="M21.9892 28.1766C21.8172 28.1766 21.6522 28.1083 21.5306 27.9866C21.4089 27.865 21.3406 27.7 21.3406 27.528V26.304C21.3406 26.1319 21.4089 25.967 21.5306 25.8453C21.6522 25.7237 21.8172 25.6553 21.9892 25.6553C22.1613 25.6553 22.3262 25.7237 22.4479 25.8453C22.5695 25.967 22.6379 26.1319 22.6379 26.304V27.528C22.6379 27.7 22.5695 27.865 22.4479 27.9866C22.3262 28.1083 22.1613 28.1766 21.9892 28.1766Z" fill="#214E41"/>
<path d="M19.0315 28.9297C18.8594 28.9297 18.6944 28.8614 18.5728 28.7397C18.4512 28.6181 18.3828 28.4531 18.3828 28.2811V27.0584C18.3828 26.8863 18.4512 26.7214 18.5728 26.5997C18.6944 26.4781 18.8594 26.4097 19.0315 26.4097C19.2035 26.4097 19.3685 26.4781 19.4901 26.5997C19.6118 26.7214 19.6801 26.8863 19.6801 27.0584V28.2811C19.6801 28.4531 19.6118 28.6181 19.4901 28.7397C19.3685 28.8614 19.2035 28.9297 19.0315 28.9297Z" fill="#214E41"/>
<path d="M21.9892 33.0558C21.8172 33.0558 21.6522 32.9874 21.5306 32.8658C21.4089 32.7441 21.3406 32.5792 21.3406 32.4071V31.1831C21.3406 31.0111 21.4089 30.8461 21.5306 30.7245C21.6522 30.6028 21.8172 30.5345 21.9892 30.5345C22.1613 30.5345 22.3262 30.6028 22.4479 30.7245C22.5695 30.8461 22.6379 31.0111 22.6379 31.1831V32.4071C22.6379 32.5792 22.5695 32.7441 22.4479 32.8658C22.3262 32.9874 22.1613 33.0558 21.9892 33.0558Z" fill="#214E41"/>
<path d="M19.0315 33.8102C18.8594 33.8102 18.6944 33.7418 18.5728 33.6202C18.4512 33.4985 18.3828 33.3335 18.3828 33.1615V31.9375C18.3828 31.7655 18.4512 31.6005 18.5728 31.4789C18.6944 31.3572 18.8594 31.2889 19.0315 31.2889C19.2035 31.2889 19.3685 31.3572 19.4901 31.4789C19.6118 31.6005 19.6801 31.7655 19.6801 31.9375V33.1615C19.6801 33.3335 19.6118 33.4985 19.4901 33.6202C19.3685 33.7418 19.2035 33.8102 19.0315 33.8102Z" fill="#214E41"/>
<path d="M21.9892 37.9343C21.8172 37.9343 21.6522 37.8659 21.5306 37.7443C21.4089 37.6226 21.3406 37.4576 21.3406 37.2856V36.0649C21.3406 35.8928 21.4089 35.7278 21.5306 35.6062C21.6522 35.4846 21.8172 35.4162 21.9892 35.4162C22.1613 35.4162 22.3262 35.4846 22.4479 35.6062C22.5695 35.7278 22.6379 35.8928 22.6379 36.0649V37.2889C22.637 37.4603 22.5683 37.6245 22.4467 37.7454C22.3252 37.8664 22.1607 37.9343 21.9892 37.9343Z" fill="#214E41"/>
<path d="M19.0315 38.6893C18.8594 38.6893 18.6944 38.621 18.5728 38.4993C18.4512 38.3777 18.3828 38.2127 18.3828 38.0407V36.816C18.3828 36.644 18.4512 36.479 18.5728 36.3573C18.6944 36.2357 18.8594 36.1674 19.0315 36.1674C19.2035 36.1674 19.3685 36.2357 19.4901 36.3573C19.6118 36.479 19.6801 36.644 19.6801 36.816V38.04C19.6802 38.1252 19.6635 38.2097 19.6309 38.2884C19.5984 38.3672 19.5506 38.4388 19.4904 38.4991C19.4301 38.5594 19.3586 38.6072 19.2798 38.6399C19.2011 38.6725 19.1167 38.6893 19.0315 38.6893Z" fill="#214E41"/>
<path d="M26.4648 8.04322C26.2928 8.04322 26.1278 7.97488 26.0061 7.85324C25.8845 7.73159 25.8162 7.56661 25.8162 7.39457V6.17187C25.8162 5.99984 25.8845 5.83485 26.0061 5.71321C26.1278 5.59156 26.2928 5.52322 26.4648 5.52322C26.6368 5.52322 26.8018 5.59156 26.9235 5.71321C27.0451 5.83485 27.1135 5.99984 27.1135 6.17187V7.39457C27.1135 7.56661 27.0451 7.73159 26.9235 7.85324C26.8018 7.97488 26.6368 8.04322 26.4648 8.04322Z" fill="#214E41"/>
<path d="M28.6552 8.87026C28.4832 8.87026 28.3182 8.80192 28.1966 8.68027C28.0749 8.55863 28.0066 8.39364 28.0066 8.22161V6.99826C28.0066 6.82623 28.0749 6.66124 28.1966 6.53959C28.3182 6.41795 28.4832 6.34961 28.6552 6.34961C28.8273 6.34961 28.9923 6.41795 29.1139 6.53959C29.2356 6.66124 29.3039 6.82623 29.3039 6.99826V8.22226C29.3037 8.39418 29.2353 8.559 29.1137 8.6805C28.9921 8.80201 28.8272 8.87026 28.6552 8.87026Z" fill="#214E41"/>
<path d="M30.8445 9.69664C30.6724 9.69664 30.5074 9.6283 30.3858 9.50666C30.2641 9.38501 30.1958 9.22003 30.1958 9.048V7.82464C30.1958 7.65261 30.2641 7.48763 30.3858 7.36598C30.5074 7.24433 30.6724 7.17599 30.8445 7.17599C31.0165 7.17599 31.1815 7.24433 31.3031 7.36598C31.4248 7.48763 31.4931 7.65261 31.4931 7.82464V9.04864C31.4929 9.22056 31.4245 9.38538 31.3029 9.50689C31.1813 9.62839 31.0164 9.69664 30.8445 9.69664Z" fill="#214E41"/>
<path d="M26.4648 12.9081C26.2928 12.9081 26.1278 12.8398 26.0061 12.7181C25.8845 12.5965 25.8162 12.4315 25.8162 12.2594V11.0335C25.8162 10.8615 25.8845 10.6965 26.0061 10.5748C26.1278 10.4532 26.2928 10.3849 26.4648 10.3849C26.6368 10.3849 26.8018 10.4532 26.9235 10.5748C27.0451 10.6965 27.1135 10.8615 27.1135 11.0335V12.2594C27.1135 12.4315 27.0451 12.5965 26.9235 12.7181C26.8018 12.8398 26.6368 12.9081 26.4648 12.9081Z" fill="#214E41"/>
<path d="M28.6552 13.7319C28.4832 13.7319 28.3182 13.6636 28.1966 13.5419C28.0749 13.4203 28.0066 13.2553 28.0066 13.0832V11.8599C28.0066 11.6879 28.0749 11.5229 28.1966 11.4012C28.3182 11.2796 28.4832 11.2112 28.6552 11.2112C28.8273 11.2112 28.9923 11.2796 29.1139 11.4012C29.2356 11.5229 29.3039 11.6879 29.3039 11.8599V13.0832C29.3039 13.2553 29.2356 13.4203 29.1139 13.5419C28.9923 13.6636 28.8273 13.7319 28.6552 13.7319Z" fill="#214E41"/>
<path d="M30.8445 14.5582C30.6724 14.5582 30.5074 14.4899 30.3858 14.3683C30.2641 14.2466 30.1958 14.0816 30.1958 13.9096V12.6862C30.1958 12.5142 30.2641 12.3492 30.3858 12.2276C30.5074 12.1059 30.6724 12.0376 30.8445 12.0376C31.0165 12.0376 31.1815 12.1059 31.3031 12.2276C31.4248 12.3492 31.4931 12.5142 31.4931 12.6862V13.9102C31.4929 14.0822 31.4245 14.247 31.3029 14.3685C31.1813 14.49 31.0164 14.5582 30.8445 14.5582Z" fill="#214E41"/>
<path d="M26.4648 17.7678C26.2928 17.7678 26.1278 17.6994 26.0061 17.5778C25.8845 17.4561 25.8162 17.2911 25.8162 17.1191V15.8919C25.8162 15.7198 25.8845 15.5549 26.0061 15.4332C26.1278 15.3116 26.2928 15.2432 26.4648 15.2432C26.6368 15.2432 26.8018 15.3116 26.9235 15.4332C27.0451 15.5549 27.1135 15.7198 27.1135 15.8919V17.1159C27.1139 17.2013 27.0974 17.286 27.065 17.3651C27.0326 17.4442 26.9849 17.5161 26.9246 17.5766C26.8644 17.6372 26.7927 17.6853 26.7138 17.7181C26.6349 17.7509 26.5503 17.7678 26.4648 17.7678Z" fill="#214E41"/>
<path d="M28.6552 18.5942C28.4832 18.5942 28.3182 18.5258 28.1966 18.4042C28.0749 18.2825 28.0066 18.1176 28.0066 17.9455V16.7215C28.0066 16.5495 28.0749 16.3845 28.1966 16.2629C28.3182 16.1412 28.4832 16.0729 28.6552 16.0729C28.8273 16.0729 28.9923 16.1412 29.1139 16.2629C29.2356 16.3845 29.3039 16.5495 29.3039 16.7215V17.9455C29.3039 18.1176 29.2356 18.2825 29.1139 18.4042C28.9923 18.5258 28.8273 18.5942 28.6552 18.5942Z" fill="#214E41"/>
<path d="M30.8445 19.4199C30.6724 19.4199 30.5074 19.3515 30.3858 19.2299C30.2641 19.1083 30.1958 18.9433 30.1958 18.7712V17.5479C30.1958 17.3758 30.2641 17.2109 30.3858 17.0892C30.5074 16.9676 30.6724 16.8992 30.8445 16.8992C31.0165 16.8992 31.1815 16.9676 31.3031 17.0892C31.4248 17.2109 31.4931 17.3758 31.4931 17.5479V18.7719C31.4929 18.9438 31.4245 19.1086 31.3029 19.2301C31.1813 19.3516 31.0164 19.4199 30.8445 19.4199Z" fill="#214E41"/>
<path d="M26.4648 22.6294C26.2928 22.6294 26.1278 22.5611 26.0061 22.4394C25.8845 22.3178 25.8162 22.1528 25.8162 21.9808V20.7568C25.8162 20.5847 25.8845 20.4198 26.0061 20.2981C26.1278 20.1765 26.2928 20.1081 26.4648 20.1081C26.6368 20.1081 26.8018 20.1765 26.9235 20.2981C27.0451 20.4198 27.1135 20.5847 27.1135 20.7568V21.9808C27.1135 22.1528 27.0451 22.3178 26.9235 22.4394C26.8018 22.5611 26.6368 22.6294 26.4648 22.6294Z" fill="#214E41"/>
<path d="M28.6552 23.4558C28.4832 23.4558 28.3182 23.3875 28.1966 23.2658C28.0749 23.1442 28.0066 22.9792 28.0066 22.8072V21.5832C28.0066 21.4111 28.0749 21.2461 28.1966 21.1245C28.3182 21.0029 28.4832 20.9345 28.6552 20.9345C28.8273 20.9345 28.9923 21.0029 29.1139 21.1245C29.2356 21.2461 29.3039 21.4111 29.3039 21.5832V22.8072C29.3039 22.9792 29.2356 23.1442 29.1139 23.2658C28.9923 23.3875 28.8273 23.4558 28.6552 23.4558Z" fill="#214E41"/>
<path d="M30.8445 24.2822C30.6724 24.2822 30.5074 24.2138 30.3858 24.0922C30.2641 23.9705 30.1958 23.8055 30.1958 23.6335V22.4095C30.1958 22.2375 30.2641 22.0725 30.3858 21.9508C30.5074 21.8292 30.6724 21.7609 30.8445 21.7609C31.0165 21.7609 31.1815 21.8292 31.3031 21.9508C31.4248 22.0725 31.4931 22.2375 31.4931 22.4095V23.6335C31.4931 23.8055 31.4248 23.9705 31.3031 24.0922C31.1815 24.2138 31.0165 24.2822 30.8445 24.2822Z" fill="#214E41"/>
<path d="M26.4648 27.491C26.2928 27.491 26.1278 27.4227 26.0061 27.301C25.8845 27.1794 25.8162 27.0144 25.8162 26.8424V25.6216C25.8162 25.4496 25.8845 25.2846 26.0061 25.1629C26.1278 25.0413 26.2928 24.973 26.4648 24.973C26.6368 24.973 26.8018 25.0413 26.9235 25.1629C27.0451 25.2846 27.1135 25.4496 27.1135 25.6216V26.8456C27.1126 27.0171 27.0439 27.1812 26.9223 27.3022C26.8008 27.4231 26.6363 27.491 26.4648 27.491Z" fill="#214E41"/>
<path d="M28.6552 28.3174C28.4832 28.3174 28.3182 28.2491 28.1966 28.1274C28.0749 28.0058 28.0066 27.8408 28.0066 27.6688V26.4448C28.0066 26.2727 28.0749 26.1077 28.1966 25.9861C28.3182 25.8645 28.4832 25.7961 28.6552 25.7961C28.8273 25.7961 28.9923 25.8645 29.1139 25.9861C29.2356 26.1077 29.3039 26.2727 29.3039 26.4448V27.6688C29.3039 27.8408 29.2356 28.0058 29.1139 28.1274C28.9923 28.2491 28.8273 28.3174 28.6552 28.3174Z" fill="#214E41"/>
<path d="M30.8445 29.1438C30.6724 29.1438 30.5074 29.0754 30.3858 28.9538C30.2641 28.8322 30.1958 28.6672 30.1958 28.4951V27.2711C30.1958 27.0991 30.2641 26.9341 30.3858 26.8125C30.5074 26.6908 30.6724 26.6225 30.8445 26.6225C31.0165 26.6225 31.1815 26.6908 31.3031 26.8125C31.4248 26.9341 31.4931 27.0991 31.4931 27.2711V28.4951C31.4931 28.6672 31.4248 28.8322 31.3031 28.9538C31.1815 29.0754 31.0165 29.1438 30.8445 29.1438Z" fill="#214E41"/>
<path d="M26.4648 32.3526C26.2928 32.3526 26.1278 32.2843 26.0061 32.1627C25.8845 32.041 25.8162 31.876 25.8162 31.704V30.48C25.8162 30.308 25.8845 30.143 26.0061 30.0213C26.1278 29.8997 26.2928 29.8314 26.4648 29.8314C26.6368 29.8314 26.8018 29.8997 26.9235 30.0213C27.0451 30.143 27.1135 30.308 27.1135 30.48V31.704C27.1135 31.876 27.0451 32.041 26.9235 32.1627C26.8018 32.2843 26.6368 32.3526 26.4648 32.3526Z" fill="#214E41"/>
<path d="M28.6552 33.179C28.4832 33.179 28.3182 33.1107 28.1966 32.989C28.0749 32.8674 28.0066 32.7024 28.0066 32.5304V31.3064C28.0066 31.1343 28.0749 30.9693 28.1966 30.8477C28.3182 30.7261 28.4832 30.6577 28.6552 30.6577C28.8273 30.6577 28.9923 30.7261 29.1139 30.8477C29.2356 30.9693 29.3039 31.1343 29.3039 31.3064V32.5304C29.3039 32.7024 29.2356 32.8674 29.1139 32.989C28.9923 33.1107 28.8273 33.179 28.6552 33.179Z" fill="#214E41"/>
<path d="M30.8445 34.0054C30.6724 34.0054 30.5074 33.9371 30.3858 33.8154C30.2641 33.6938 30.1958 33.5288 30.1958 33.3567V32.1327C30.1958 31.9607 30.2641 31.7957 30.3858 31.6741C30.5074 31.5524 30.6724 31.4841 30.8445 31.4841C31.0165 31.4841 31.1815 31.5524 31.3031 31.6741C31.4248 31.7957 31.4931 31.9607 31.4931 32.1327V33.3567C31.4931 33.5288 31.4248 33.6938 31.3031 33.8154C31.1815 33.9371 31.0165 34.0054 30.8445 34.0054Z" fill="#214E41"/>
<path d="M26.4648 37.2142C26.2928 37.2142 26.1278 37.1459 26.0061 37.0243C25.8845 36.9026 25.8162 36.7376 25.8162 36.5656V35.3416C25.8162 35.1696 25.8845 35.0046 26.0061 34.8829C26.1278 34.7613 26.2928 34.693 26.4648 34.693C26.6368 34.693 26.8018 34.7613 26.9235 34.8829C27.0451 35.0046 27.1135 35.1696 27.1135 35.3416V36.5656C27.1135 36.7376 27.0451 36.9026 26.9235 37.0243C26.8018 37.1459 26.6368 37.2142 26.4648 37.2142Z" fill="#214E41"/>
<path d="M28.6552 38.0406C28.4832 38.0406 28.3182 37.9723 28.1966 37.8507C28.0749 37.729 28.0066 37.564 28.0066 37.392V36.168C28.0066 35.996 28.0749 35.831 28.1966 35.7093C28.3182 35.5877 28.4832 35.5193 28.6552 35.5193C28.8273 35.5193 28.9923 35.5877 29.1139 35.7093C29.2356 35.831 29.3039 35.996 29.3039 36.168V37.392C29.3039 37.564 29.2356 37.729 29.1139 37.8507C28.9923 37.9723 28.8273 38.0406 28.6552 38.0406Z" fill="#214E41"/>
<path d="M30.8445 38.867C30.6724 38.867 30.5074 38.7987 30.3858 38.677C30.2641 38.5554 30.1958 38.3904 30.1958 38.2184V36.9944C30.1958 36.8223 30.2641 36.6574 30.3858 36.5357C30.5074 36.4141 30.6724 36.3457 30.8445 36.3457C31.0165 36.3457 31.1815 36.4141 31.3031 36.5357C31.4248 36.6574 31.4931 36.8223 31.4931 36.9944V38.2184C31.4931 38.3904 31.4248 38.5554 31.3031 38.677C31.1815 38.7987 31.0165 38.867 30.8445 38.867Z" fill="#214E41"/>
<path d="M39.0488 21.827C38.8768 21.827 38.7118 21.7587 38.5901 21.637C38.4685 21.5154 38.4001 21.3504 38.4001 21.1784V20.5226C38.4001 20.3505 38.4685 20.1856 38.5901 20.0639C38.7118 19.9423 38.8768 19.8739 39.0488 19.8739C39.2208 19.8739 39.3858 19.9423 39.5075 20.0639C39.6291 20.1856 39.6974 20.3505 39.6974 20.5226V21.1784C39.6974 21.3504 39.6291 21.5154 39.5075 21.637C39.3858 21.7587 39.2208 21.827 39.0488 21.827Z" fill="#214E41"/>
<path d="M41.2346 23.2009C41.0626 23.2009 40.8976 23.1325 40.7759 23.0109C40.6543 22.8893 40.5859 22.7243 40.5859 22.5522V21.8965C40.5859 21.7244 40.6543 21.5594 40.7759 21.4378C40.8976 21.3161 41.0626 21.2478 41.2346 21.2478C41.4066 21.2478 41.5716 21.3161 41.6933 21.4378C41.8149 21.5594 41.8832 21.7244 41.8832 21.8965V22.5522C41.8832 22.7243 41.8149 22.8893 41.6933 23.0109C41.5716 23.1325 41.4066 23.2009 41.2346 23.2009Z" fill="#214E41"/>
<path d="M39.0488 25.0301C38.8768 25.0301 38.7118 24.9617 38.5901 24.8401C38.4685 24.7184 38.4001 24.5535 38.4001 24.3814V23.7263C38.4001 23.5543 38.4685 23.3893 38.5901 23.2676C38.7118 23.146 38.8768 23.0776 39.0488 23.0776C39.2208 23.0776 39.3858 23.146 39.5075 23.2676C39.6291 23.3893 39.6974 23.5543 39.6974 23.7263V24.3821C39.6973 24.554 39.6289 24.7188 39.5072 24.8403C39.3856 24.9618 39.2207 25.0301 39.0488 25.0301Z" fill="#214E41"/>
<path d="M41.2346 26.4039C41.0626 26.4039 40.8976 26.3355 40.7759 26.2139C40.6543 26.0922 40.5859 25.9273 40.5859 25.7552V25.1027C40.5859 24.9307 40.6543 24.7657 40.7759 24.644C40.8976 24.5224 41.0626 24.454 41.2346 24.454C41.4066 24.454 41.5716 24.5224 41.6933 24.644C41.8149 24.7657 41.8832 24.9307 41.8832 25.1027V25.7585C41.8824 25.9299 41.8137 26.0941 41.6921 26.215C41.5706 26.336 41.4061 26.4039 41.2346 26.4039Z" fill="#214E41"/>
<path d="M39.0488 28.2337C38.8768 28.2337 38.7118 28.1654 38.5901 28.0437C38.4685 27.9221 38.4001 27.7571 38.4001 27.5851V26.9293C38.4001 26.7573 38.4685 26.5923 38.5901 26.4706C38.7118 26.349 38.8768 26.2806 39.0488 26.2806C39.2208 26.2806 39.3858 26.349 39.5075 26.4706C39.6291 26.5923 39.6974 26.7573 39.6974 26.9293V27.5851C39.6974 27.7571 39.6291 27.9221 39.5075 28.0437C39.3858 28.1654 39.2208 28.2337 39.0488 28.2337Z" fill="#214E41"/>
<path d="M41.2346 29.6076C41.0626 29.6076 40.8976 29.5392 40.7759 29.4176C40.6543 29.2959 40.5859 29.1309 40.5859 28.9589V28.3031C40.5859 28.1311 40.6543 27.9661 40.7759 27.8445C40.8976 27.7228 41.0626 27.6545 41.2346 27.6545C41.4066 27.6545 41.5716 27.7228 41.6933 27.8445C41.8149 27.9661 41.8832 28.1311 41.8832 28.3031V28.9589C41.8832 29.1309 41.8149 29.2959 41.6933 29.4176C41.5716 29.5392 41.4066 29.6076 41.2346 29.6076Z" fill="#214E41"/>
<path d="M39.0488 31.4374C38.8768 31.4374 38.7118 31.3691 38.5901 31.2474C38.4685 31.1258 38.4001 30.9608 38.4001 30.7887V30.133C38.4001 29.9609 38.4685 29.7959 38.5901 29.6743C38.7118 29.5527 38.8768 29.4843 39.0488 29.4843C39.2208 29.4843 39.3858 29.5527 39.5075 29.6743C39.6291 29.7959 39.6974 29.9609 39.6974 30.133V30.7887C39.6974 30.9608 39.6291 31.1258 39.5075 31.2474C39.3858 31.3691 39.2208 31.4374 39.0488 31.4374Z" fill="#214E41"/>
<path d="M41.2346 32.8106C41.0626 32.8106 40.8976 32.7422 40.7759 32.6206C40.6543 32.499 40.5859 32.334 40.5859 32.1619V31.5062C40.5859 31.3341 40.6543 31.1691 40.7759 31.0475C40.8976 30.9259 41.0626 30.8575 41.2346 30.8575C41.4066 30.8575 41.5716 30.9259 41.6933 31.0475C41.8149 31.1691 41.8832 31.3341 41.8832 31.5062V32.1619C41.8832 32.334 41.8149 32.499 41.6933 32.6206C41.5716 32.7422 41.4066 32.8106 41.2346 32.8106Z" fill="#214E41"/>
<path d="M39.0488 34.6378C38.8768 34.6378 38.7118 34.5695 38.5901 34.4479C38.4685 34.3262 38.4001 34.1612 38.4001 33.9892V33.336C38.4001 33.164 38.4685 32.999 38.5901 32.8773C38.7118 32.7557 38.8768 32.6873 39.0488 32.6873C39.2208 32.6873 39.3858 32.7557 39.5075 32.8773C39.6291 32.999 39.6974 33.164 39.6974 33.336V33.9892C39.6974 34.1612 39.6291 34.3262 39.5075 34.4479C39.3858 34.5695 39.2208 34.6378 39.0488 34.6378Z" fill="#214E41"/>
<path d="M41.2346 36.0143C41.0626 36.0143 40.8976 35.9459 40.7759 35.8243C40.6543 35.7026 40.5859 35.5376 40.5859 35.3656V34.7098C40.5859 34.5378 40.6543 34.3728 40.7759 34.2512C40.8976 34.1295 41.0626 34.0612 41.2346 34.0612C41.4066 34.0612 41.5716 34.1295 41.6933 34.2512C41.8149 34.3728 41.8832 34.5378 41.8832 34.7098V35.3656C41.8832 35.5376 41.8149 35.7026 41.6933 35.8243C41.5716 35.9459 41.4066 36.0143 41.2346 36.0143Z" fill="#214E41"/>
<path d="M39.0488 37.8441C38.8768 37.8441 38.7118 37.7758 38.5901 37.6541C38.4685 37.5325 38.4001 37.3675 38.4001 37.1955V36.5397C38.4001 36.3676 38.4685 36.2027 38.5901 36.081C38.7118 35.9594 38.8768 35.891 39.0488 35.891C39.2208 35.891 39.3858 35.9594 39.5075 36.081C39.6291 36.2027 39.6974 36.3676 39.6974 36.5397V37.1955C39.6974 37.3675 39.6291 37.5325 39.5075 37.6541C39.3858 37.7758 39.2208 37.8441 39.0488 37.8441Z" fill="#214E41"/>
<path d="M41.2346 39.2173C41.0626 39.2173 40.8976 39.149 40.7759 39.0273C40.6543 38.9057 40.5859 38.7407 40.5859 38.5686V37.9129C40.5859 37.7408 40.6543 37.5758 40.7759 37.4542C40.8976 37.3326 41.0626 37.2642 41.2346 37.2642C41.4066 37.2642 41.5716 37.3326 41.6933 37.4542C41.8149 37.5758 41.8832 37.7408 41.8832 37.9129V38.5686C41.8832 38.7407 41.8149 38.9057 41.6933 39.0273C41.5716 39.149 41.4066 39.2173 41.2346 39.2173Z" fill="#214E41"/>
<path d="M45.5553 41.5563H1.44723C1.2752 41.5563 1.11021 41.488 0.988569 41.3664C0.866924 41.2447 0.798584 41.0797 0.798584 40.9077C0.798584 40.7357 0.866924 40.5707 0.988569 40.449C1.11021 40.3274 1.2752 40.259 1.44723 40.259H45.5553C45.7274 40.259 45.8924 40.3274 46.014 40.449C46.1357 40.5707 46.204 40.7357 46.204 40.9077C46.204 41.0797 46.1357 41.2447 46.014 41.3664C45.8924 41.488 45.7274 41.5563 45.5553 41.5563Z" fill="#214E41"/>
</svg>
