<svg width="36" height="36" viewBox="0 0 36 36" fill="none" xmlns="http://www.w3.org/2000/svg">
<path d="M18 9.75C16.3683 9.75 14.7733 10.2339 13.4165 11.1404C12.0598 12.0469 11.0024 13.3354 10.378 14.8429C9.75357 16.3504 9.59019 18.0092 9.90852 19.6095C10.2269 21.2098 11.0126 22.6798 12.1664 23.8336C13.3202 24.9874 14.7902 25.7732 16.3905 26.0915C17.9908 26.4098 19.6496 26.2464 21.1571 25.622C22.6646 24.9976 23.9531 23.9402 24.8596 22.5835C25.7661 21.2267 26.25 19.6317 26.25 18C26.2475 15.8127 25.3775 13.7157 23.8309 12.1691C22.2843 10.6225 20.1873 9.75248 18 9.75ZM18 24.75C16.665 24.75 15.3599 24.3541 14.2499 23.6124C13.1399 22.8707 12.2747 21.8165 11.7638 20.5831C11.2529 19.3497 11.1192 17.9925 11.3797 16.6831C11.6401 15.3738 12.283 14.171 13.227 13.227C14.171 12.283 15.3738 11.6401 16.6831 11.3797C17.9925 11.1192 19.3497 11.2529 20.5831 11.7638C21.8165 12.2747 22.8707 13.1399 23.6124 14.2499C24.3541 15.3599 24.75 16.665 24.75 18C24.748 19.7896 24.0362 21.5053 22.7708 22.7708C21.5053 24.0362 19.7896 24.748 18 24.75ZM26.25 0H9.75C7.16504 0.00292796 4.68679 1.0311 2.85894 2.85894C1.0311 4.68679 0.00292796 7.16504 0 9.75V26.25C0.00292796 28.835 1.0311 31.3132 2.85894 33.1411C4.68679 34.9689 7.16504 35.9971 9.75 36H26.25C28.835 35.9971 31.3132 34.9689 33.1411 33.1411C34.9689 31.3132 35.9971 28.835 36 26.25V9.75C35.9971 7.16504 34.9689 4.68679 33.1411 2.85894C31.3132 1.0311 28.835 0.00292796 26.25 0ZM34.5 26.25C34.4975 28.4373 33.6275 30.5343 32.0809 32.0809C30.5343 33.6275 28.4373 34.4975 26.25 34.5H9.75C7.56273 34.4975 5.46575 33.6275 3.91911 32.0809C2.37247 30.5343 1.50248 28.4373 1.5 26.25V9.75C1.50248 7.56273 2.37247 5.46575 3.91911 3.91911C5.46575 2.37247 7.56273 1.50248 9.75 1.5H26.25C28.4373 1.50248 30.5343 2.37247 32.0809 3.91911C33.6275 5.46575 34.4975 7.56273 34.5 9.75V26.25ZM29.25 8.25C29.25 8.54667 29.162 8.83668 28.9972 9.08336C28.8324 9.33003 28.5981 9.52229 28.324 9.63582C28.0499 9.74935 27.7483 9.77906 27.4574 9.72118C27.1664 9.6633 26.8991 9.52044 26.6893 9.31066C26.4796 9.10088 26.3367 8.83361 26.2788 8.54263C26.2209 8.25166 26.2506 7.95006 26.3642 7.67597C26.4777 7.40189 26.67 7.16762 26.9166 7.0028C27.1633 6.83797 27.4533 6.75 27.75 6.75C28.1477 6.7505 28.5289 6.90869 28.8101 7.18989C29.0913 7.47109 29.2495 7.85233 29.25 8.25Z" fill="#214E41"/>
</svg>
