<svg width="128" height="39" viewBox="0 0 128 39" fill="none" xmlns="http://www.w3.org/2000/svg">
<path fill-rule="evenodd" clip-rule="evenodd" d="M30.5874 0.253334C27.9416 0.82762 25.9093 2.36982 24.7644 4.67208C24.1918 5.82334 24.0971 6.4469 24.1091 8.9799C24.1243 12.1841 24.3526 12.9259 25.9429 14.9411C26.5152 15.6662 27.4102 16.3207 28.5028 16.8131C30.8274 17.8607 34.5318 17.9132 37.4609 16.9399L39.4338 16.2843V14.8517V13.4188L38.2167 14.2311C36.8488 15.1438 34.5874 15.8463 33.0233 15.8439C30.1425 15.8398 27.9282 14.3491 27.0066 11.7929C26.3232 9.89827 26.5126 6.46736 27.3866 4.90793C29.3016 1.49075 33.9923 0.84539 38.0808 3.43654L39.4338 4.29407V2.94034C39.4338 1.64638 39.3856 1.56426 38.3377 1.07613C36.1827 0.071598 32.9874 -0.267373 30.5874 0.253334ZM53.3175 0.212948C50.8263 0.774042 48.6707 2.44467 47.5629 4.67208C46.9953 5.81365 46.893 6.46844 46.8904 8.9799C46.8872 11.8702 46.9123 11.9838 47.9286 13.6916C49.1805 15.7949 50.9228 17.0029 53.3839 17.4736C55.4889 17.8761 58.3159 17.6241 60.459 16.8425L62.0862 16.2491L62.175 14.8235L62.2639 13.3978L61.031 14.2206C57.8316 16.3554 53.5896 16.3568 51.3808 14.2241C49.4543 12.3637 48.8335 8.99713 49.8407 5.87261C51.1797 1.71961 56.3646 0.575344 60.8793 3.43654L62.2323 4.29407V2.94034C62.2323 1.6453 62.1847 1.56426 61.1269 1.06724C59.1469 0.136754 55.4506 -0.267373 53.3175 0.212948ZM96.0656 0.234488C93.487 0.836505 91.4612 2.8776 91.4612 4.87347C91.4612 5.36644 91.757 6.3069 92.1188 6.96357C92.965 8.50011 94.586 9.27902 98.0692 9.82288C102.394 10.4981 103.484 11.3053 103.038 13.4999C102.725 15.0361 101.277 15.7133 98.33 15.7014C96.4067 15.6936 95.6818 15.5601 94.2458 14.9484C93.2856 14.5394 92.2664 14.0101 91.9806 13.7718C91.4887 13.3618 91.4612 13.4191 91.4612 14.852C91.4612 16.6365 91.4927 16.6599 94.7924 17.3319C97.6232 17.9081 100.792 17.7587 102.457 16.9706C105.315 15.6169 106.487 13.0712 105.378 10.6268C104.628 8.97262 103.738 8.62154 96.7224 7.21181C93.2655 6.5169 93.2164 3.1358 96.6481 2.0925C98.7374 1.45737 102.647 2.25243 104.395 3.66809C104.875 4.0566 104.906 3.9901 104.906 2.60083V1.11921L103.372 0.659346C101.533 0.108484 97.5878 -0.120907 96.0656 0.234488ZM118.046 0.326836C114.454 1.21936 112.83 4.00894 114.239 6.86745C115.021 8.4538 116.608 9.21979 120.511 9.89611C123.987 10.4984 124.969 10.9235 125.248 11.9466C126.214 15.4909 121.01 17.0153 115.867 14.6948C115.224 14.4048 114.46 13.9748 114.17 13.7395C113.668 13.3319 113.647 13.3868 113.732 14.8905L113.821 16.4696L115.429 16.9798C117.853 17.7493 121.687 17.9154 123.59 17.3333C127.16 16.2413 128.848 13.3957 127.582 10.6045C126.919 9.14305 125.385 8.4258 121.275 7.6547C117.128 6.87741 116.306 6.37636 116.306 4.63035C116.306 1.66253 122.133 0.865044 126.028 3.30004L127.067 3.94971L127.167 2.60163C127.284 1.01259 127.165 0.919969 124.255 0.351876C121.895 -0.108791 119.833 -0.117138 118.046 0.326836ZM6.61361 0.700809C6.53002 0.959816 5.44943 3.71628 4.21217 6.82599C2.97521 9.93569 1.52136 13.6006 0.981505 14.9705L0 17.4609H1.28022C2.50141 17.4609 2.57623 17.4146 2.91441 16.4513C3.10907 15.8961 3.52325 14.8057 3.83483 14.0281L4.40128 12.6146H8.44801H12.4945L13.3456 14.9705L14.1965 17.3263L15.6 17.4098C16.8534 17.4843 16.9817 17.441 16.7975 17.0059C16.4927 16.2851 11.0997 2.70691 10.5887 1.37391L10.15 0.229641H8.45795C7.0991 0.229641 6.73579 0.322529 6.61361 0.700809ZM71.001 8.84528V17.4609H77.139H83.2771V16.384V15.307H78.3082H73.3393V12.2108V9.11452H78.3082H83.2771V8.03756V6.96061H78.3082H73.3393V4.67208V2.38355H78.3082H83.2771V1.3066V0.229641H77.139H71.001V8.84528ZM8.74352 2.94087C8.74352 3.17188 10.6484 8.1746 11.5296 10.2588C11.7123 10.6904 11.4539 10.7299 8.45123 10.7299C5.95479 10.7299 5.20449 10.6497 5.30299 10.3934C5.37402 10.2084 6.06294 8.39107 6.834 6.35482C7.60476 4.31884 8.34981 2.65279 8.48952 2.65279C8.62923 2.65279 8.74352 2.78229 8.74352 2.94087ZM12.8356 34.1209V39H13.5663C14.2762 39 14.297 38.9462 14.297 37.1153V35.2307H15.3074C16.2062 35.2307 16.5006 35.4391 17.9711 37.1153C19.3276 38.6621 19.7754 39 20.4681 39C21.4703 39 21.5338 38.7291 20.6949 38.0321C20.3553 37.7499 19.5518 36.9414 18.909 36.2349L17.7405 34.9507L18.482 34.4135C19.3667 33.7722 19.9478 32.3161 19.6926 31.3795C19.3039 29.9525 18.3212 29.4832 15.4603 29.3572L12.8356 29.2414V34.1209ZM33.2958 34.1537V39H36.8032C40.1157 39 40.3107 38.9701 40.3107 38.4615C40.3107 37.9607 40.1157 37.923 37.5339 37.923H34.7572V36.0384V34.1537H37.5339C40.1157 34.1537 40.3107 34.116 40.3107 33.6152C40.3107 33.1144 40.1157 33.0767 37.5339 33.0767H34.7572V31.7306V30.3844H37.5339C40.1157 30.3844 40.3107 30.3467 40.3107 29.8459C40.3107 29.3373 40.1157 29.3074 36.8032 29.3074H33.2958V34.1537ZM55.2592 29.8962C55.1215 30.2387 54.2666 32.3536 53.3593 34.5958C52.4523 36.838 51.7099 38.7461 51.7099 38.8363C51.7099 38.9262 52.0078 39 52.372 39C52.9025 39 53.1375 38.7324 53.5531 37.6538L54.0722 36.3076H56.3693H58.6661L59.1916 37.6538C59.6155 38.7394 59.8475 39 60.3903 39C60.7604 39 61.0617 38.909 61.06 38.7981C61.0582 38.6871 60.236 36.5365 59.2323 34.0191C57.4119 29.4523 57.4058 29.4418 56.4585 29.3578C55.6892 29.2894 55.4618 29.3914 55.2592 29.8962ZM73.047 34.1537V39H76.4083C79.5747 39 79.7696 38.9688 79.7696 38.4615C79.7696 37.9629 79.5747 37.923 77.139 37.923H74.5084V33.6152V29.3074H73.7777H73.047V34.1537ZM89.9997 29.8459C89.9997 30.3292 90.1947 30.3844 91.8996 30.3844H93.7995V34.6922V39H94.5302H95.2609V34.6922V30.3844H97.1608C98.8657 30.3844 99.0607 30.3292 99.0607 29.8459C99.0607 29.3306 98.8657 29.3074 94.5302 29.3074C90.1947 29.3074 89.9997 29.3306 89.9997 29.8459ZM110.907 32.0671L112.792 34.8268L112.795 36.9134C112.798 38.9588 112.813 39 113.529 39C114.249 39 114.26 38.9669 114.26 36.8052V34.6103L116.013 32.0913C116.978 30.7061 117.767 29.5128 117.767 29.4399C117.767 29.3672 117.471 29.3101 117.109 29.3133C116.608 29.3176 116.103 29.8295 114.98 31.4745L113.509 33.63L112.09 31.4689C110.855 29.5855 110.566 29.3074 109.847 29.3074H109.022L110.907 32.0671ZM17.3467 30.6945C18.2113 31.0575 18.4878 31.6778 18.2213 32.6562C17.9559 33.6303 17.0211 34.1537 15.5471 34.1537H14.297V32.269V30.3844H15.4524C16.0879 30.3844 16.9402 30.5238 17.3467 30.6945ZM57.3789 33.0256C57.7977 34.1079 58.1403 35.0468 58.1403 35.1122C58.1403 35.1773 57.3359 35.2307 56.3524 35.2307C54.7854 35.2307 54.5837 35.1725 54.7199 34.7595C55.3893 32.731 56.2731 30.7201 56.4289 30.8728C56.5324 30.9743 56.96 31.943 57.3789 33.0256Z" fill="white"/>
</svg>
