<svg width="167" height="63" viewBox="0 0 167 63" fill="none" xmlns="http://www.w3.org/2000/svg">
<rect width="167" height="63" fill="white"/>
<path d="M25.7145 30H22.8297L20.8336 24.3262H12.0289L10.0328 30H7.28477L14.6949 9.64258H18.3043L25.7145 30ZM19.9996 22.002L16.4313 12.0078L12.8492 22.002H19.9996ZM52.367 28.5234C51.8657 28.7422 51.4099 28.9473 50.9998 29.1387C50.5987 29.3301 50.0701 29.5306 49.4138 29.7402C48.8578 29.9134 48.2517 30.0592 47.5955 30.1777C46.9483 30.3053 46.2328 30.3691 45.449 30.3691C43.9724 30.3691 42.628 30.1641 41.4158 29.7539C40.2127 29.3346 39.1645 28.6829 38.2713 27.7988C37.3963 26.9329 36.7127 25.8346 36.2205 24.5039C35.7283 23.1641 35.4822 21.61 35.4822 19.8418C35.4822 18.1647 35.7192 16.6654 36.1931 15.3438C36.6671 14.0221 37.3507 12.9056 38.2439 11.9941C39.1098 11.11 40.1534 10.4355 41.3748 9.9707C42.6052 9.50586 43.9679 9.27344 45.4627 9.27344C46.5564 9.27344 47.6456 9.4056 48.7302 9.66992C49.824 9.93424 51.0362 10.3991 52.367 11.0645V14.2773H52.1619C51.0408 13.3385 49.9288 12.6549 48.8259 12.2266C47.7231 11.7982 46.5427 11.584 45.2849 11.584C44.255 11.584 43.3253 11.7526 42.4959 12.0898C41.6755 12.418 40.9418 12.9329 40.2947 13.6348C39.6658 14.3184 39.1736 15.1842 38.8181 16.2324C38.4718 17.2715 38.2986 18.4746 38.2986 19.8418C38.2986 21.2728 38.49 22.5033 38.8728 23.5332C39.2647 24.5632 39.766 25.4017 40.3767 26.0488C41.0147 26.7233 41.7576 27.2246 42.6052 27.5527C43.462 27.8717 44.3644 28.0312 45.3123 28.0312C46.6157 28.0312 47.837 27.8079 48.9763 27.3613C50.1157 26.9147 51.1821 26.2448 52.1755 25.3516H52.367V28.5234ZM79.7577 28.5234C79.2564 28.7422 78.8007 28.9473 78.3905 29.1387C77.9895 29.3301 77.4609 29.5306 76.8046 29.7402C76.2486 29.9134 75.6425 30.0592 74.9863 30.1777C74.3391 30.3053 73.6236 30.3691 72.8398 30.3691C71.3632 30.3691 70.0188 30.1641 68.8066 29.7539C67.6034 29.3346 66.5553 28.6829 65.662 27.7988C64.787 26.9329 64.1034 25.8346 63.6113 24.5039C63.1191 23.1641 62.873 21.61 62.873 19.8418C62.873 18.1647 63.1099 16.6654 63.5839 15.3438C64.0579 14.0221 64.7415 12.9056 65.6347 11.9941C66.5006 11.11 67.5442 10.4355 68.7655 9.9707C69.996 9.50586 71.3586 9.27344 72.8534 9.27344C73.9472 9.27344 75.0364 9.4056 76.121 9.66992C77.2148 9.93424 78.427 10.3991 79.7577 11.0645V14.2773H79.5527C78.4316 13.3385 77.3196 12.6549 76.2167 12.2266C75.1139 11.7982 73.9335 11.584 72.6757 11.584C71.6458 11.584 70.7161 11.7526 69.8866 12.0898C69.0663 12.418 68.3326 12.9329 67.6855 13.6348C67.0566 14.3184 66.5644 15.1842 66.2089 16.2324C65.8626 17.2715 65.6894 18.4746 65.6894 19.8418C65.6894 21.2728 65.8808 22.5033 66.2636 23.5332C66.6555 24.5632 67.1568 25.4017 67.7675 26.0488C68.4055 26.7233 69.1484 27.2246 69.996 27.5527C70.8528 27.8717 71.7551 28.0312 72.703 28.0312C74.0064 28.0312 75.2278 27.8079 76.3671 27.3613C77.5064 26.9147 78.5728 26.2448 79.5663 25.3516H79.7577V28.5234ZM104.838 30H91.4259V9.64258H104.838V12.0488H94.1329V17.627H104.838V20.0332H94.1329V27.5938H104.838V30ZM131.778 24.1895C131.778 24.9824 131.591 25.7663 131.217 26.541C130.852 27.3158 130.337 27.972 129.672 28.5098C128.943 29.0931 128.091 29.5488 127.115 29.877C126.149 30.2051 124.983 30.3691 123.615 30.3691C122.148 30.3691 120.826 30.2324 119.651 29.959C118.484 29.6855 117.295 29.2799 116.082 28.7422V25.3516H116.274C117.304 26.2083 118.493 26.8691 119.842 27.334C121.191 27.7988 122.458 28.0312 123.643 28.0312C125.32 28.0312 126.623 27.7168 127.553 27.0879C128.492 26.459 128.961 25.6204 128.961 24.5723C128.961 23.6699 128.738 23.0046 128.291 22.5762C127.854 22.1478 127.184 21.8151 126.281 21.5781C125.598 21.3958 124.855 21.2454 124.053 21.127C123.26 21.0085 122.417 20.8581 121.524 20.6758C119.719 20.293 118.379 19.6413 117.504 18.7207C116.638 17.791 116.205 16.5833 116.205 15.0977C116.205 13.3932 116.925 11.9987 118.365 10.9141C119.806 9.82031 121.633 9.27344 123.848 9.27344C125.279 9.27344 126.591 9.41016 127.785 9.68359C128.979 9.95703 130.037 10.2943 130.957 10.6953V13.8945H130.766C129.991 13.2383 128.97 12.696 127.703 12.2676C126.446 11.8301 125.156 11.6113 123.834 11.6113C122.385 11.6113 121.218 11.9121 120.334 12.5137C119.459 13.1152 119.022 13.89 119.022 14.8379C119.022 15.6855 119.24 16.3509 119.678 16.834C120.115 17.3171 120.886 17.6862 121.989 17.9414C122.572 18.069 123.401 18.224 124.477 18.4062C125.552 18.5885 126.464 18.7754 127.211 18.9668C128.724 19.3678 129.864 19.974 130.629 20.7852C131.395 21.5964 131.778 22.7311 131.778 24.1895ZM158.457 24.1895C158.457 24.9824 158.271 25.7663 157.897 26.541C157.532 27.3158 157.017 27.972 156.352 28.5098C155.623 29.0931 154.771 29.5488 153.795 29.877C152.829 30.2051 151.663 30.3691 150.295 30.3691C148.828 30.3691 147.506 30.2324 146.33 29.959C145.164 29.6855 143.974 29.2799 142.762 28.7422V25.3516H142.954C143.983 26.2083 145.173 26.8691 146.522 27.334C147.871 27.7988 149.138 28.0312 150.323 28.0312C152 28.0312 153.303 27.7168 154.233 27.0879C155.172 26.459 155.641 25.6204 155.641 24.5723C155.641 23.6699 155.418 23.0046 154.971 22.5762C154.534 22.1478 153.864 21.8151 152.961 21.5781C152.278 21.3958 151.535 21.2454 150.733 21.127C149.94 21.0085 149.097 20.8581 148.204 20.6758C146.399 20.293 145.059 19.6413 144.184 18.7207C143.318 17.791 142.885 16.5833 142.885 15.0977C142.885 13.3932 143.605 11.9987 145.045 10.9141C146.485 9.82031 148.313 9.27344 150.528 9.27344C151.959 9.27344 153.271 9.41016 154.465 9.68359C155.659 9.95703 156.717 10.2943 157.637 10.6953V13.8945H157.446C156.671 13.2383 155.65 12.696 154.383 12.2676C153.125 11.8301 151.836 11.6113 150.514 11.6113C149.065 11.6113 147.898 11.9121 147.014 12.5137C146.139 13.1152 145.702 13.89 145.702 14.8379C145.702 15.6855 145.92 16.3509 146.358 16.834C146.795 17.3171 147.566 17.6862 148.668 17.9414C149.252 18.069 150.081 18.224 151.157 18.4062C152.232 18.5885 153.144 18.7754 153.891 18.9668C155.404 19.3678 156.543 19.974 157.309 20.7852C158.075 21.5964 158.457 22.7311 158.457 24.1895Z" fill="#214E41"/>
<path d="M46.5531 55H44.5453L40.6547 50.375H38.475V55H36.9281V43.3672H40.1859C40.8891 43.3672 41.475 43.4141 41.9437 43.5078C42.4125 43.5964 42.8344 43.7578 43.2094 43.9922C43.6312 44.2578 43.9594 44.5938 44.1937 45C44.4333 45.401 44.5531 45.9115 44.5531 46.5312C44.5531 47.3698 44.3422 48.0729 43.9203 48.6406C43.4984 49.2031 42.9177 49.6276 42.1781 49.9141L46.5531 55ZM42.9359 46.6406C42.9359 46.3073 42.876 46.013 42.7562 45.7578C42.6417 45.4974 42.449 45.2786 42.1781 45.1016C41.9542 44.9505 41.6885 44.8464 41.3812 44.7891C41.074 44.7266 40.712 44.6953 40.2953 44.6953H38.475V49.0859H40.0375C40.5271 49.0859 40.9542 49.0443 41.3187 48.9609C41.6833 48.8724 41.9932 48.7109 42.2484 48.4766C42.4828 48.2578 42.6547 48.0078 42.7641 47.7266C42.8786 47.4401 42.9359 47.0781 42.9359 46.6406ZM63.4772 55H55.8131V43.3672H63.4772V44.7422H57.36V47.9297H63.4772V49.3047H57.36V53.625H63.4772V55ZM82.87 55H81.2216L80.0809 51.7578H75.0497L73.9091 55H72.3387L76.5731 43.3672H78.6356L82.87 55ZM79.6044 50.4297L77.5653 44.7188L75.5184 50.4297H79.6044ZM99.755 55H92.3956V43.3672H93.9425V53.625H99.755V55ZM116.031 44.7422H111.874V55H110.327V44.7422H106.171V43.3672H116.031V44.7422ZM133.588 43.3672L129.494 49.8984V55H127.947V50.0625L123.838 43.3672H125.548L128.728 48.5703L131.939 43.3672H133.588Z" fill="#214E41"/>
</svg>
