<svg width="16" height="17" viewBox="0 0 16 17" fill="none" xmlns="http://www.w3.org/2000/svg">
<g clip-path="url(#clip0)">
<path d="M1.85406 16.2362H11.7059V13H16L15.9999 2.72097H1.85406V16.2362ZM2.54547 3.4771H15.2727V12.4068H10.9583V15.4544H2.54547V3.4771Z" fill="#214E41"/>
<path d="M1.85406 1.15898H16L15.9999 1.72645H1.85406V1.15898Z" fill="#214E41"/>
<path d="M0.157898 2.72097H0.727228V16.2362H0.157882L0.157898 2.72097Z" fill="#214E41"/>
<path d="M8.26673 6.1817L6.92121 8.65223L5.53945 6.1817H4.36365V10.8181H5.66674V8.778L6.58797 10.4007H7.21821L8.13945 8.70516L8.15146 10.8181H9.45456L9.44236 6.1817H8.26673Z" fill="#214E41"/>
<path d="M11.6771 7.3291C12.1569 6.91454 12.2676 6.65995 12.2676 6.36909C12.2676 5.77993 11.7214 5.40908 10.9092 5.40908C10.1488 5.40908 9.66867 5.71437 9.45459 6.12892L10.3111 6.52905C10.407 6.35445 10.5769 6.25261 10.8059 6.25261C11.0126 6.25261 11.1011 6.34002 11.1011 6.45628C11.1011 6.55091 11.0568 6.66717 10.8354 6.84898L9.66135 7.83828V8.49999H12.3637V7.6711H11.2709L11.6771 7.3291Z" fill="#214E41"/>
</g>
<defs>
<clipPath id="clip0">
<rect width="16" height="17" fill="white"/>
</clipPath>
</defs>
</svg>
