<svg width="24" height="23" viewBox="0 0 24 23" fill="none" xmlns="http://www.w3.org/2000/svg">
<g clip-path="url(#clip0)">
<path d="M12.0002 0C7.58907 0 4.00018 3.43935 4.00018 7.66668C4.00018 8.93573 4.33126 10.194 4.96065 11.31L11.5627 22.7529C11.6506 22.9055 11.8181 23 12.0002 23C12.1823 23 12.3498 22.9055 12.4377 22.7529L19.0422 11.3063C19.6691 10.194 20.0002 8.93568 20.0002 7.66664C20.0002 3.43935 16.4113 0 12.0002 0ZM18.1647 10.8463L12.0002 21.5307L5.8381 10.8505C5.28976 9.87814 5.00021 8.77711 5.00021 7.66668C5.00021 3.96763 8.14037 0.958363 12.0002 0.958363C15.86 0.958363 19.0002 3.96768 19.0002 7.66668C19.0002 8.77706 18.7106 9.87814 18.1647 10.8463Z" fill="#214E41"/>
<path d="M12.0001 3.83345C9.79454 3.83345 8.00012 5.5531 8.00012 7.66677C8.00012 9.78048 9.79454 11.5001 12.0001 11.5001C14.2056 11.5001 16.0001 9.78048 16.0001 7.66681C16.0001 5.55315 14.2056 3.83345 12.0001 3.83345ZM12.0001 10.5418C10.3458 10.5418 9.0001 9.2522 9.0001 7.66681C9.0001 6.08143 10.3458 4.79181 12.0001 4.79181C13.6544 4.79181 15.0001 6.08143 15.0001 7.66681C15.0001 9.25215 13.6544 10.5418 12.0001 10.5418Z" fill="#214E41"/>
</g>
<defs>
<clipPath id="clip0">
<rect width="24" height="23" fill="white"/>
</clipPath>
</defs>
</svg>
