<svg width="53" height="53" viewBox="0 0 53 53" fill="none" xmlns="http://www.w3.org/2000/svg">
<path d="M43.8317 39.3962C42.8712 37.121 41.4774 35.0545 39.7278 33.3115C37.9835 31.5636 35.9173 30.17 33.6432 29.2076C33.6228 29.1974 33.6024 29.1923 33.5821 29.1821C36.7542 26.8909 38.8164 23.1586 38.8164 18.9478C38.8164 11.9721 33.1646 6.32025 26.1889 6.32025C19.2132 6.32025 13.5614 11.9721 13.5614 18.9478C13.5614 23.1586 15.6235 26.8909 18.7957 29.1872C18.7753 29.1974 18.7549 29.2025 18.7346 29.2127C16.4535 30.175 14.4066 31.5549 12.65 33.3166C10.902 35.0609 9.50837 37.1271 8.54601 39.4013C7.60059 41.6276 7.0907 44.0146 7.04395 46.4329C7.04259 46.4873 7.05212 46.5414 7.07198 46.592C7.09185 46.6426 7.12164 46.6887 7.1596 46.7276C7.19756 46.7665 7.24292 46.7974 7.29302 46.8185C7.34312 46.8396 7.39693 46.8505 7.45129 46.8505H10.5063C10.7304 46.8505 10.9086 46.6723 10.9137 46.4533C11.0155 42.5225 12.5939 38.8412 15.3842 36.0509C18.2712 33.1639 22.1053 31.5753 26.1889 31.5753C30.2724 31.5753 34.1065 33.1639 36.9935 36.0509C39.7838 38.8412 41.3623 42.5225 41.4641 46.4533C41.4692 46.6773 41.6474 46.8505 41.8714 46.8505H44.9265C44.9808 46.8505 45.0346 46.8396 45.0847 46.8185C45.1348 46.7974 45.1802 46.7665 45.2182 46.7276C45.2561 46.6887 45.2859 46.6426 45.3058 46.592C45.3256 46.5414 45.3352 46.4873 45.3338 46.4329C45.2829 43.9991 44.7788 41.6314 43.8317 39.3962ZM26.1889 27.7055C23.8518 27.7055 21.6521 26.7941 19.9973 25.1393C18.3425 23.4845 17.4311 21.2849 17.4311 18.9478C17.4311 16.6106 18.3425 14.411 19.9973 12.7562C21.6521 11.1014 23.8518 10.19 26.1889 10.19C28.526 10.19 30.7256 11.1014 32.3804 12.7562C34.0352 14.411 34.9467 16.6106 34.9467 18.9478C34.9467 21.2849 34.0352 23.4845 32.3804 25.1393C30.7256 26.7941 28.526 27.7055 26.1889 27.7055Z" fill="#214E41"/>
</svg>
